<svg id="Компонент_9_1" data-name="Компонент 9 – 1" xmlns="http://www.w3.org/2000/svg" width="195.7" height="25.565" viewBox="0 0 195.7 25.565">
  <g id="Сгруппировать_2973" data-name="Сгруппировать 2973">
    <g id="Сгруппировать_2968" data-name="Сгруппировать 2968" transform="translate(6.716 16.905)">
      <circle id="Эллипс_1163" data-name="Эллипс 1163" cx="2.222" cy="2.222" r="2.222" transform="translate(4.94 1.713)" fill="#fff"/>
      <path id="Контур_9244" data-name="Контур 9244" d="M173.252,340.056a8.173,8.173,0,0,0,13.622-6,.568.568,0,0,0-1.076-.255,10.227,10.227,0,0,1-2.9,3.542,2.676,2.676,0,0,1-4.536,2,10.227,10.227,0,0,1-4.571-.249A.568.568,0,0,0,173.252,340.056Z" transform="translate(-173.061 -333.48)" fill="#fff" style="isolation: isolate"/>
    </g>
    <g id="Сгруппировать_2969" data-name="Сгруппировать 2969" transform="translate(0 9.751)">
      <circle id="Эллипс_1164" data-name="Эллипс 1164" cx="2.222" cy="2.222" r="2.222" transform="translate(3.14 3.928)" fill="#fff"/>
      <path id="Контур_9245" data-name="Контур 9245" d="M151.473,310.078a8.173,8.173,0,0,0,9.92,11.1.568.568,0,0,0-.09-1.1,10.228,10.228,0,0,1-4.265-1.664,2.676,2.676,0,0,1-3.3-3.7,10.225,10.225,0,0,1-1.176-4.424A.568.568,0,0,0,151.473,310.078Z" transform="translate(-150.778 -309.741)" fill="#fff" style="isolation: isolate"/>
    </g>
    <g id="Сгруппировать_2970" data-name="Сгруппировать 2970" transform="translate(2.511)">
      <circle id="Эллипс_1165" data-name="Эллипс 1165" cx="2.222" cy="2.222" r="2.222" transform="translate(2.695 4.054)" fill="#fff"/>
      <path id="Контур_9246" data-name="Контур 9246" d="M168.113,277.429a8.173,8.173,0,0,0-7.491,12.865.567.567,0,0,0,1.02-.426,10.23,10.23,0,0,1,.265-4.57,2.676,2.676,0,0,1,2.494-4.284,10.229,10.229,0,0,1,3.844-2.486A.567.567,0,0,0,168.113,277.429Z" transform="translate(-159.11 -277.387)" fill="#fff" style="isolation: isolate"/>
    </g>
    <g id="Сгруппировать_2971" data-name="Сгруппировать 2971" transform="translate(9.746 0.776)">
      <circle id="Эллипс_1166" data-name="Эллипс 1166" cx="2.222" cy="2.222" r="2.222" transform="translate(5.252 2.269)" fill="#fff"/>
      <path id="Контур_9247" data-name="Контур 9247" d="M197.782,286.412a8.173,8.173,0,0,0-14.55-3.149.568.568,0,0,0,.721.839,10.229,10.229,0,0,1,4.428-1.161,2.677,2.677,0,0,1,4.845,1.049,10.228,10.228,0,0,1,3.552,2.888A.568.568,0,0,0,197.782,286.412Z" transform="translate(-183.117 -279.961)" fill="#fff" style="isolation: isolate"/>
    </g>
    <g id="Сгруппировать_2972" data-name="Сгруппировать 2972" transform="translate(18.984 6.869)">
      <circle id="Эллипс_1167" data-name="Эллипс 1167" cx="2.222" cy="2.222" r="2.222" transform="translate(0 5.176)" fill="#fff"/>
      <path id="Контур_9248" data-name="Контур 9248" d="M217.113,315.024a8.173,8.173,0,0,0-1.5-14.811.568.568,0,0,0-.575.945,10.223,10.223,0,0,1,2.472,3.853,2.676,2.676,0,0,1,.5,4.932,10.229,10.229,0,0,1-1.649,4.271A.568.568,0,0,0,217.113,315.024Z" transform="translate(-214.534 -300.181)" fill="#fff" style="isolation: isolate"/>
    </g>
  </g>
  <g id="Сгруппировать_3002" data-name="Сгруппировать 3002" transform="translate(28.559 4.562)">
    <path id="Контур_9771" data-name="Контур 9771" d="M-77.36-3.32h6.32V0h-12.9l7.14-11.76h-5.94v-3.32h12.48Zm13.3-11.76V0h-3.92V-15.08ZM-61.18,0l2.56-15.08h3.88l3.02,8.04,3-8.04h3.88L-42.28,0h-3.9l-1.3-8.68L-51.04,0H-52.6l-3.38-8.68L-57.28,0Zm32.9-8.16h1.3q2.16,0,2.16-1.88t-2.16-1.88h-1.3Zm0,8.16H-32.2V-15.08h6.24a5.338,5.338,0,0,1,3.89,1.32,4.965,4.965,0,0,1,1.35,3.72,4.965,4.965,0,0,1-1.35,3.72A5.338,5.338,0,0,1-25.96-5h-2.32Zm13.96-15.08V-3.32h4.7V0h-8.62V-15.08ZM1.62-5.6-.14-10.62-1.9-5.6ZM2.66-2.62h-5.6L-3.84,0H-8.02l5.74-15.08H2L7.74,0H3.56Zm12.26-9.14V0H11V-11.76H7.78v-3.32H18.14v3.32Zm14,0H24.2v2.52h4.3v3.32H24.2V0H20.28V-15.08h8.64Zm6.14,4.22a4.018,4.018,0,0,0,.34,1.66,4.2,4.2,0,0,0,.92,1.32,4.159,4.159,0,0,0,1.35.87,4.323,4.323,0,0,0,1.63.31,4.323,4.323,0,0,0,1.63-.31,4.275,4.275,0,0,0,1.36-.87,4.119,4.119,0,0,0,.93-1.32,4.018,4.018,0,0,0,.34-1.66,4.018,4.018,0,0,0-.34-1.66,4.119,4.119,0,0,0-.93-1.32,4.275,4.275,0,0,0-1.36-.87,4.323,4.323,0,0,0-1.63-.31,4.323,4.323,0,0,0-1.63.31,4.159,4.159,0,0,0-1.35.87A4.2,4.2,0,0,0,35.4-9.2,4.018,4.018,0,0,0,35.06-7.54Zm-4.1,0a7.877,7.877,0,0,1,.62-3.13A7.811,7.811,0,0,1,33.3-13.2a7.859,7.859,0,0,1,2.63-1.69,9.022,9.022,0,0,1,3.37-.61,9.044,9.044,0,0,1,3.36.61,7.948,7.948,0,0,1,2.65,1.69,7.735,7.735,0,0,1,1.73,2.53,7.877,7.877,0,0,1,.62,3.13,7.877,7.877,0,0,1-.62,3.13,7.735,7.735,0,0,1-1.73,2.53A7.948,7.948,0,0,1,42.66-.19,9.044,9.044,0,0,1,39.3.42a9.022,9.022,0,0,1-3.37-.61A7.859,7.859,0,0,1,33.3-1.88a7.811,7.811,0,0,1-1.72-2.53A7.877,7.877,0,0,1,30.96-7.54Zm23.5-.8h.74a2.858,2.858,0,0,0,1.78-.48,1.641,1.641,0,0,0,.62-1.38,1.641,1.641,0,0,0-.62-1.38,2.858,2.858,0,0,0-1.78-.48h-.74ZM63.08,0H58.2L54.46-5.8V0H50.54V-15.08h6.1a5.987,5.987,0,0,1,2.2.37,4.257,4.257,0,0,1,1.55,1.01,4.258,4.258,0,0,1,.92,1.48,5.158,5.158,0,0,1,.31,1.8,4.424,4.424,0,0,1-.83,2.79,4.18,4.18,0,0,1-2.45,1.45Zm1.36,0L67-15.08h3.88L73.9-7.04l3-8.04h3.88L83.34,0h-3.9l-1.3-8.68L74.58,0H73.02L69.64-8.68,68.34,0Z" transform="translate(83.801 15.438)" fill="#fff"/>
  </g>
</svg>
