<svg xmlns="http://www.w3.org/2000/svg" width="215.411" height="81.617" viewBox="0 0 215.411 81.617">
  <g id="Компонент_10_1" data-name="Компонент 10 – 1" transform="translate(0 0)">
    <g id="Сгруппировать_2973" data-name="Сгруппировать 2973">
      <g id="Сгруппировать_2968" data-name="Сгруппировать 2968" transform="translate(21.44 53.97)">
        <circle id="Эллипс_1163" data-name="Эллипс 1163" cx="7.092" cy="7.092" r="7.092" transform="translate(15.77 5.468)" fill="#fff"/>
        <path id="Контур_9244" data-name="Контур 9244" d="M173.671,354.474A26.092,26.092,0,0,0,217.16,335.3a1.812,1.812,0,0,0-3.436-.814,32.651,32.651,0,0,1-9.261,11.308,8.544,8.544,0,0,1-14.481,6.383,32.648,32.648,0,0,1-14.594-.794A1.812,1.812,0,0,0,173.671,354.474Z" transform="translate(-173.061 -333.48)" fill="#fff" style="isolation: isolate"/>
      </g>
      <g id="Сгруппировать_2969" data-name="Сгруппировать 2969" transform="translate(0 31.129)">
        <circle id="Эллипс_1164" data-name="Эллипс 1164" cx="7.092" cy="7.092" r="7.092" transform="translate(10.025 12.541)" fill="#fff"/>
        <path id="Контур_9245" data-name="Контур 9245" d="M153,310.817a26.091,26.091,0,0,0,31.67,35.437,1.812,1.812,0,0,0-.288-3.52,32.653,32.653,0,0,1-13.616-5.313,8.544,8.544,0,0,1-10.545-11.8,32.643,32.643,0,0,1-3.755-14.124A1.812,1.812,0,0,0,153,310.817Z" transform="translate(-150.778 -309.741)" fill="#fff" style="isolation: isolate"/>
      </g>
      <g id="Сгруппировать_2970" data-name="Сгруппировать 2970" transform="translate(8.017)">
        <circle id="Эллипс_1165" data-name="Эллипс 1165" cx="7.092" cy="7.092" r="7.092" transform="translate(8.604 12.943)" fill="#fff"/>
        <path id="Контур_9246" data-name="Контур 9246" d="M187.852,277.521a26.091,26.091,0,0,0-23.916,41.07,1.812,1.812,0,0,0,3.258-1.361,32.659,32.659,0,0,1,.846-14.591A8.544,8.544,0,0,1,176,288.963a32.656,32.656,0,0,1,12.273-7.937A1.812,1.812,0,0,0,187.852,277.521Z" transform="translate(-159.11 -277.387)" fill="#fff" style="isolation: isolate"/>
      </g>
      <g id="Сгруппировать_2971" data-name="Сгруппировать 2971" transform="translate(31.115 2.476)">
        <circle id="Эллипс_1166" data-name="Эллипс 1166" cx="7.092" cy="7.092" r="7.092" transform="translate(16.768 7.245)" fill="#fff"/>
        <path id="Контур_9247" data-name="Контур 9247" d="M229.935,300.555A26.091,26.091,0,0,0,183.485,290.5a1.812,1.812,0,0,0,2.3,2.679,32.657,32.657,0,0,1,14.138-3.705,8.545,8.545,0,0,1,15.468,3.348,32.654,32.654,0,0,1,11.34,9.219A1.812,1.812,0,0,0,229.935,300.555Z" transform="translate(-183.117 -279.961)" fill="#fff" style="isolation: isolate"/>
      </g>
      <g id="Сгруппировать_2972" data-name="Сгруппировать 2972" transform="translate(60.607 21.931)">
        <circle id="Эллипс_1167" data-name="Эллипс 1167" cx="7.092" cy="7.092" r="7.092" transform="translate(0 16.526)" fill="#fff"/>
        <path id="Контур_9248" data-name="Контур 9248" d="M222.046,347.568a26.092,26.092,0,0,0-4.792-47.285,1.813,1.813,0,0,0-1.837,3.017,32.636,32.636,0,0,1,7.893,12.3,8.543,8.543,0,0,1,1.6,15.744,32.656,32.656,0,0,1-5.264,13.635A1.812,1.812,0,0,0,222.046,347.568Z" transform="translate(-213.81 -300.181)" fill="#fff" style="isolation: isolate"/>
      </g>
    </g>
    <g id="Сгруппировать_3002" data-name="Сгруппировать 3002" transform="translate(39.021 20.37)">
      <path id="Контур_9770" data-name="Контур 9770" d="M-43.65-9.96h18.96V0h-38.7l21.42-35.28H-59.79v-9.96h37.44Zm39.9-35.28V0H-15.51V-45.24ZM4.89,0l7.68-45.24H24.21l9.06,24.12,9-24.12H53.91L61.59,0H49.89l-3.9-26.04L35.31,0H30.63L20.49-26.04,16.59,0ZM-50.3,18.37a3.188,3.188,0,0,0-.221-1.183,2.839,2.839,0,0,0-.637-.975,3.184,3.184,0,0,0-.975-.663,2.958,2.958,0,0,0-1.209-.247,2.938,2.938,0,0,0-1.17.234,2.893,2.893,0,0,0-.949.65,3.309,3.309,0,0,0-.65.975,2.9,2.9,0,0,0-.247,1.183,2.938,2.938,0,0,0,.234,1.17,2.893,2.893,0,0,0,.65.949,3.309,3.309,0,0,0,.975.65,2.9,2.9,0,0,0,1.183.247,2.938,2.938,0,0,0,1.17-.234,2.893,2.893,0,0,0,.949-.65,3.361,3.361,0,0,0,.65-.962A2.745,2.745,0,0,0-50.3,18.37Zm-5.928,13.286h-4.706V11.662h4.706v1.482a4.965,4.965,0,0,1,4.108-1.9,6.387,6.387,0,0,1,2.665.559,6.755,6.755,0,0,1,2.145,1.521,6.9,6.9,0,0,1,1.417,2.262,7.588,7.588,0,0,1,.507,2.782,7.386,7.386,0,0,1-.507,2.756,7.086,7.086,0,0,1-1.4,2.236,6.479,6.479,0,0,1-2.119,1.508,6.426,6.426,0,0,1-2.652.546,5.556,5.556,0,0,1-4.16-1.716ZM-37.479,3.42V25h-4.706V3.42Zm8.112,14.872a3.1,3.1,0,0,0,.234,1.209,3.114,3.114,0,0,0,.637.975,2.86,2.86,0,0,0,.962.65,3.1,3.1,0,0,0,1.209.234,3.033,3.033,0,0,0,1.183-.234,2.86,2.86,0,0,0,.962-.65,3.361,3.361,0,0,0,.65-.962,2.805,2.805,0,0,0,.247-1.17,2.9,2.9,0,0,0-.247-1.183,3.309,3.309,0,0,0-.65-.975,2.86,2.86,0,0,0-.962-.65,3.033,3.033,0,0,0-1.183-.234,3.1,3.1,0,0,0-1.209.234,2.86,2.86,0,0,0-.962.65,3.2,3.2,0,0,0-.637.949A2.846,2.846,0,0,0-29.367,18.292Zm5.928-6.63h4.732V25h-4.732V23.518a4.938,4.938,0,0,1-4.082,1.9,6.626,6.626,0,0,1-2.678-.533,6.458,6.458,0,0,1-2.132-1.495,6.9,6.9,0,0,1-1.417-2.262,7.734,7.734,0,0,1-.507-2.834,7.516,7.516,0,0,1,.494-2.717,6.986,6.986,0,0,1,1.378-2.249,6.5,6.5,0,0,1,2.106-1.521,6.424,6.424,0,0,1,2.7-.559,5.432,5.432,0,0,1,4.134,1.742Zm13.7,3.926V25h-4.706V15.588H-16V11.662h1.56v-4h4.706v4h2.678v3.926Zm10.92,0V25H-3.523V15.588h-1.69V11.662h1.69v-2a9.089,9.089,0,0,1,.312-2.652,4.713,4.713,0,0,1,.832-1.547A6.055,6.055,0,0,1-1.04,4.226,6.484,6.484,0,0,1,.611,3.42a5.637,5.637,0,0,1,1.742-.286,4.442,4.442,0,0,1,1.1.13,6.345,6.345,0,0,1,1.027.364V7.736a5.23,5.23,0,0,0-.871-.351,3.016,3.016,0,0,0-.845-.117,2,2,0,0,0-.585.091,1.258,1.258,0,0,0-.559.377,1.591,1.591,0,0,0-.351.819A8.99,8.99,0,0,0,1.183,10v1.664h3.3v3.926Zm10.27,2.678A3.022,3.022,0,0,0,11.7,19.5a3.309,3.309,0,0,0,.65.975,2.86,2.86,0,0,0,.962.65,3.107,3.107,0,0,0,2.366,0,2.86,2.86,0,0,0,.962-.65,3.309,3.309,0,0,0,.65-.975,2.958,2.958,0,0,0,.247-1.209,2.9,2.9,0,0,0-.247-1.183,3.309,3.309,0,0,0-.65-.975,2.86,2.86,0,0,0-.962-.65,3.107,3.107,0,0,0-2.366,0,2.86,2.86,0,0,0-.962.65,3.361,3.361,0,0,0-.65.962A2.805,2.805,0,0,0,11.453,18.266Zm-4.966-.052a6.49,6.49,0,0,1,.6-2.769,6.8,6.8,0,0,1,1.664-2.236,7.912,7.912,0,0,1,2.535-1.495,9.148,9.148,0,0,1,3.211-.546,9.27,9.27,0,0,1,3.185.533,7.884,7.884,0,0,1,2.548,1.482,6.648,6.648,0,0,1,1.677,2.262,6.912,6.912,0,0,1,.6,2.9,6.787,6.787,0,0,1-.611,2.9A6.881,6.881,0,0,1,20.215,23.5a7.511,7.511,0,0,1-2.561,1.469,9.789,9.789,0,0,1-3.237.52,9.367,9.367,0,0,1-3.172-.52,7.321,7.321,0,0,1-2.509-1.482,6.876,6.876,0,0,1-1.651-2.3A7.22,7.22,0,0,1,6.487,18.214Zm19.24-6.552h4.706v2.184a5.405,5.405,0,0,1,1.846-1.833,4.965,4.965,0,0,1,2.548-.637h.4a2.872,2.872,0,0,1,.507.052v4.5a4.471,4.471,0,0,0-2.028-.468,3.027,3.027,0,0,0-2.457.975,4.323,4.323,0,0,0-.819,2.847V25H25.727Zm12.636,0h4.706V13.3a6.086,6.086,0,0,1,4.316-1.846,5.019,5.019,0,0,1,4.524,2.5,5.046,5.046,0,0,1,4.524-2.522A5.635,5.635,0,0,1,58.2,11.7a3.632,3.632,0,0,1,1.43.858,4.105,4.105,0,0,1,.949,1.521,6.46,6.46,0,0,1,.351,2.262V25H56.225V18.422a7.966,7.966,0,0,0-.143-1.664,2.629,2.629,0,0,0-.416-1.014,1.378,1.378,0,0,0-.637-.494,2.3,2.3,0,0,0-.78-.13q-2.262,0-2.262,3.3V25H47.281V18.422a8.953,8.953,0,0,0-.13-1.677,3.09,3.09,0,0,0-.377-1.053,1.261,1.261,0,0,0-.637-.533,2.848,2.848,0,0,0-1.742-.013,1.476,1.476,0,0,0-.689.507,2.764,2.764,0,0,0-.468,1.04,7.213,7.213,0,0,0-.169,1.729V25H38.363Z" transform="translate(114.801 29.438)" fill="#fff"/>
    </g>
  </g>
</svg>
