<svg width="390" height="844" viewBox="0 0 390 844" fill="none" xmlns="http://www.w3.org/2000/svg">
<defs>
<linearGradient id="paint0_linear_0_1" x1="195" y1="0" x2="195" y2="1126" gradientUnits="userSpaceOnUse">
<stop offset="0.198934" stop-color="#46BCB3"/>
<stop offset="1" stop-color="white"/>
</linearGradient>
<linearGradient id="paint1_linear_0_1" x1="411.961" y1="-229.793" x2="411.673" y2="208.479" gradientUnits="userSpaceOnUse">
<stop stop-color="#46BCB3"/>
<stop offset="1" stop-color="#A9E5E0"/>
</linearGradient>
<linearGradient id="paint2_linear_0_1" x1="564.185" y1="-123.662" x2="254.863" y2="98.0682" gradientUnits="userSpaceOnUse">
<stop stop-color="#65C3BB"/>
<stop offset="0.484375" stop-color="#A9E5E0"/>
</linearGradient>
<clipPath id="clip0_0_1">
<rect width="390" height="844" fill="white"/>
</clipPath>
</defs>
<rect width="390" height="844" fill="white"/>
<g id="iPhone 14 - 65" clip-path="url(#clip0_0_1)">
<rect width="390" height="844" fill="url(#paint0_linear_0_1)"/>
<path id="&#208;&#154;&#208;&#190;&#208;&#189;&#209;&#130;&#209;&#131;&#209;&#128; 9638" opacity="0.728" d="M412.238 -652.332C722.56 -652.128 973.96 -400.398 973.756 -90.0759C973.553 220.246 721.823 471.646 411.501 471.442C101.179 471.239 -150.221 219.509 -150.018 -90.8134C-149.814 -401.135 101.916 -652.535 412.238 -652.332Z" fill="url(#paint1_linear_0_1)"/>
<path id="&#208;&#154;&#208;&#190;&#208;&#189;&#209;&#130;&#209;&#131;&#209;&#128; 9637" d="M862.403 -337.434C1019.4 -118.416 969.124 186.406 750.106 343.404C531.088 500.402 226.267 450.124 69.2695 231.106C-87.7285 12.088 -37.4506 -292.733 181.566 -449.73C400.584 -606.727 705.406 -556.451 862.403 -337.434Z" fill="url(#paint2_linear_0_1)"/>
<circle id="Ellipse 32" cx="195" cy="405" r="105" fill="white"/>
<path id="&#208;&#154;&#208;&#190;&#208;&#189;&#209;&#130;&#209;&#131;&#209;&#128; 9769" d="M280.888 329.504C286.952 329.72 292.966 328.343 298.331 325.508C299.548 324.928 300.645 324.123 301.563 323.135C302.018 322.638 302.357 322.046 302.555 321.401C302.753 320.757 302.805 320.077 302.707 319.41C302.332 317.535 300.428 316.272 298.531 316.022C296.633 315.773 294.729 316.313 292.891 316.848C293.819 314.958 294.347 312.897 294.445 310.794C294.464 308.762 293.386 306.569 291.446 305.956C290.032 305.513 288.451 305.997 287.275 306.898C286.139 307.856 285.205 309.031 284.528 310.354C281.199 316.176 280.804 322.796 280.888 329.504Z" fill="white"/>
<path id="&#208;&#154;&#208;&#190;&#208;&#189;&#209;&#130;&#209;&#131;&#209;&#128; 9768" d="M113.77 321.646C114.955 318.694 115.608 315.555 115.698 312.375C115.774 311.467 115.651 310.553 115.338 309.696C115.176 309.27 114.902 308.896 114.545 308.613C114.188 308.33 113.761 308.149 113.309 308.089C112.292 308.024 111.373 308.807 110.953 309.735C110.596 310.693 110.435 311.713 110.479 312.735C109.497 312.041 108.393 311.103 107.203 310.929C106.014 310.755 104.624 311.306 104.259 312.451C103.867 313.682 104.76 314.927 105.66 315.852C108.001 318.246 110.746 320.208 113.77 321.646Z" fill="white"/>
<path id="&#208;&#154;&#208;&#190;&#208;&#189;&#209;&#130;&#209;&#131;&#209;&#128; 9767" d="M82.759 343.124C81.4145 341.87 80.3621 340.184 80.3135 338.347C80.265 336.511 81.4473 334.586 83.2426 334.197C85.1106 333.793 86.9071 335.039 88.3409 336.303C92.6909 340.141 96.2751 344.768 98.9042 349.94C96.4339 351.645 93.6488 352.842 90.7112 353.46C87.7737 354.078 84.7425 354.104 81.7945 353.539C80.303 353.3 78.8885 352.715 77.6655 351.828C76.4905 350.89 75.6642 349.409 75.8307 347.915C75.9972 346.42 77.1086 345.178 78.4183 344.453C79.787 343.786 81.2516 343.338 82.759 343.124Z" fill="white"/>
</g>
</svg>
