<svg width="338" height="249" viewBox="0 0 338 249" fill="none" xmlns="http://www.w3.org/2000/svg">
<g clip-path="url(#clip0_528_3136)">
<path d="M238.032 156.705C233.827 154.064 229.012 152.408 224.074 151.897C221.792 151.66 219.304 151.729 217.473 153.11C217.083 153.4 216.709 153.835 216.793 154.316C216.854 154.667 217.152 154.926 217.442 155.14C223.12 159.475 231.713 160.017 238.04 156.697" fill="#E0E0E0"/>
<path d="M237.674 156.308C234.514 153.843 231.332 151.355 228.661 148.371C225.982 145.387 223.807 141.846 223.006 137.915C222.761 136.725 222.685 135.366 223.456 134.42C230.645 140.037 236.292 147.295 237.681 156.308" fill="#E0E0E0"/>
<path d="M237.956 156.651C237.414 152.721 237.223 148.676 238.124 144.814C239.025 140.953 241.131 137.251 244.428 135.046C245.672 137.946 245.138 141.296 244.26 144.326C242.909 149.012 240.787 153.476 238.01 157.491" fill="#E0E0E0"/>
<path d="M245 169.274C240.726 169.793 236.995 172.052 233.804 174.937C230.614 177.829 228.34 181.729 227.401 185.926C231.599 185.667 235.155 182.706 237.735 179.394C240.314 176.074 242.108 172.433 244.939 169.335" fill="#E0E0E0"/>
<path d="M246.534 171.296C243.092 162.81 244.336 152.583 249.724 145.181C252.159 153.85 251.266 163.642 246.534 171.296Z" fill="#E0E0E0"/>
<path d="M255.845 182.378C251.96 182.133 248.015 183.064 244.649 185.003C241.276 186.941 238.498 189.895 236.758 193.367C236.521 193.84 236.315 194.443 236.628 194.863C236.903 195.229 237.437 195.268 237.895 195.237C241.657 194.993 244.993 192.726 247.748 190.154C250.503 187.575 252.899 184.598 255.936 182.37" fill="#E0E0E0"/>
<path d="M255.547 181.775C253.548 175.372 253.418 168.389 255.196 161.909C255.898 159.353 257.073 156.659 259.432 155.461C259.63 155.361 259.867 155.27 260.08 155.346C260.279 155.422 260.401 155.629 260.492 155.819C261.332 157.575 261.576 159.574 261.492 161.52C261.408 163.466 261.004 165.382 260.599 167.29C259.851 170.816 259.462 174.601 257.524 177.646C257.066 178.371 256.661 179.149 256.295 179.92C255.929 180.691 255.929 180.966 255.593 181.576" fill="#E0E0E0"/>
<path d="M280.19 185.446C278.366 178.501 280.304 170.083 284.677 164.39C284.998 163.97 285.425 163.52 285.952 163.573C286.761 163.649 286.967 164.718 286.929 165.527C286.616 172.624 284.242 179.615 280.182 185.446" fill="#E0E0E0"/>
<path d="M282.411 186.964C290.851 189.162 300.528 187.025 307.542 181.851C303.383 179.745 298.483 179.142 293.935 180.18C289.386 181.218 285.234 183.255 282.403 186.964" fill="#E0E0E0"/>
<path d="M284.28 182.339C289.004 174.639 298.063 169.61 307.092 169.152C306.054 172.823 303.032 175.677 299.628 177.402C296.224 179.126 292.423 179.874 288.676 180.607C287.219 180.889 285.219 181.202 284.273 182.347" fill="#E0E0E0"/>
<path d="M280.655 159.902C281.938 155.522 283.22 151.095 283.571 146.547C283.922 141.991 283.273 137.244 280.907 133.329C276.496 141.869 276.046 151.851 280.518 160.36" fill="#E0E0E0"/>
<path d="M295.514 152.393C300.673 143.013 311.205 135.519 321.867 134.466C317.753 144.7 306.542 152.614 295.514 152.393Z" fill="#E0E0E0"/>
<path d="M292.271 154.232C299.971 155.407 306.527 160.322 313.724 163.298C315.265 163.939 316.921 164.443 318.57 164.229C320.218 164.016 321.851 162.902 322.218 161.284C322.523 159.933 321.912 158.506 320.943 157.514C319.974 156.529 318.699 155.911 317.417 155.377C309.58 152.118 301.177 152.034 292.927 154.011" fill="#E0E0E0"/>
<path d="M287.814 159.635C289.554 160.131 290.149 161.04 291.531 162.215C296.216 166.206 301.826 169.091 307.794 170.571C308.412 170.724 309.228 170.785 309.541 170.228C309.809 169.74 309.473 169.144 309.122 168.709C306.618 165.58 303.054 163.444 299.3 162.039C295.545 160.643 292.294 158.956 287.814 159.315" fill="#E0E0E0"/>
<path d="M282.785 127.025C289.043 132.871 297.865 135.87 306.389 135.054C306.779 135.015 307.198 134.954 307.466 134.664C308.061 134.016 307.343 133.024 306.657 132.482C299.719 127.071 291.309 124.827 282.792 127.017" fill="#E0E0E0"/>
<path d="M288.745 124.842C297.018 118.638 308.366 116.768 318.196 119.981C314.487 123.636 309.343 125.605 304.161 126.14C298.979 126.681 293.797 126.101 288.745 124.835" fill="#E0E0E0"/>
<path d="M286.379 109.854C285.7 102.924 286.143 97.4597 285.662 90.4996C285.624 89.9425 285.501 89.2786 284.983 89.0725C284.258 88.7901 283.655 89.683 283.418 90.4233C281.357 96.8416 282.479 104.191 286.371 109.701" fill="#E0E0E0"/>
<path d="M285.883 110.624C290.577 107.724 294.102 103.931 297.353 99.4745C299.62 96.376 301.528 92.6594 301.017 88.8512C297.834 88.7901 294.812 90.5454 292.744 92.957C290.676 95.3763 289.447 98.3984 288.524 101.443C287.608 104.488 286.959 107.625 285.883 110.617" fill="#E0E0E0"/>
<path d="M297.155 107.488C307.458 103.68 317.066 98.0093 325.392 90.8432C322.019 89.4847 318.158 90.3013 314.784 91.6598C307.084 94.7659 300.788 100.016 297.01 107.419" fill="#E0E0E0"/>
<path d="M289.05 114.41C294.263 114.982 299.559 115.348 304.726 114.486C309.808 113.639 314.609 111.624 319.363 109.625C319.76 109.457 320.188 109.258 320.355 108.869C320.546 108.442 320.34 107.93 319.997 107.618C319.653 107.305 319.195 107.16 318.745 107.03C313.579 105.588 308.007 106.259 302.932 107.976C297.85 109.693 293.683 111.723 289.043 114.41" fill="#E0E0E0"/>
<path d="M259.287 127.261C255.73 120.08 255.959 111.708 259.035 104.313C261.195 107.61 261.462 111.807 261.065 115.722C260.668 119.645 259.477 123.682 259.401 127.62" fill="#E0E0E0"/>
<path d="M245.084 120.095C236.208 119.928 227.325 123.713 221.296 130.23C225.73 130.925 230.294 129.78 234.323 127.819C238.353 125.85 241.932 123.087 245.489 120.347" fill="#E0E0E0"/>
<path d="M235.529 116.898C231.187 116.547 227.005 116.005 222.83 117.287C218.656 118.569 214.855 121.469 213.153 125.491C217.213 125.949 221.334 124.934 225.059 123.24C228.783 121.553 232.171 119.218 235.529 116.89" fill="#E0E0E0"/>
<path d="M249.671 117.05C245.763 114.486 241.749 111.884 237.201 110.823C232.652 109.762 227.379 110.548 224.204 113.975C227.89 116.135 232.354 116.394 236.628 116.387C240.902 116.387 246.13 116.333 250.159 117.76" fill="#E0E0E0"/>
<path d="M249.694 117.256C243.016 110.701 240.482 98.9175 243.168 89.9426C248.419 97.9177 250.77 107.763 249.694 117.256Z" fill="#E0E0E0"/>
<path d="M268.063 98.6657C269.322 95.7351 270.208 92.6595 271.337 89.6832C272.467 86.6992 273.871 83.7686 276.008 81.4028C278.145 79.037 281.098 77.274 284.28 77.1138C282.289 86.1421 276.29 94.2011 268.223 98.7115" fill="#E0E0E0"/>
<path d="M264.743 102.543C262.66 99.673 260.248 95.7809 257.425 93.6364C254.601 91.4918 250.915 90.2021 247.465 91.0187C250.976 97.2919 257.608 101.711 264.743 102.543Z" fill="#E0E0E0"/>
<path d="M265.407 98.9098C264.041 95.4374 262.667 91.9268 262.11 88.2407C261.561 84.547 261.897 80.609 263.782 77.3884C267.445 84.318 268.628 91.7589 265.59 98.9861" fill="#E0E0E0"/>
<path d="M268.101 77.3808C270.177 70.5123 276.473 65.4525 283.266 63.1325C284.12 62.8425 285.028 62.5982 285.921 62.7356C286.814 62.873 287.692 63.4835 287.883 64.3688C288.127 65.5364 287.165 66.582 286.257 67.3604C280.968 71.886 274.749 75.3126 268.101 77.3808Z" fill="#E0E0E0"/>
<path d="M268.17 71.7639C268.437 67.3299 268.712 62.8425 270.154 58.645C271.597 54.4476 274.375 50.5096 278.412 48.6704C279.099 53.1426 277.122 57.5995 274.741 61.4459C272.36 65.2922 269.49 68.9325 268.063 73.2292" fill="#E0E0E0"/>
<path d="M268.063 74.8166C266.346 69.8102 266.17 63.4454 263.171 59.0877C261.073 56.035 257.722 53.9592 255.913 50.731C254.715 53.7455 255.082 57.2255 256.333 60.2171C257.585 63.2088 259.661 65.7883 261.881 68.1617C264.102 70.5352 266.003 72.3134 268.063 74.8242" fill="#E0E0E0"/>
<path d="M268.101 222.284C267.971 222.284 267.849 188.88 267.842 147.684C267.834 106.473 267.933 73.0767 268.063 73.0767C268.193 73.0767 268.315 106.473 268.323 147.684C268.33 188.88 268.231 222.291 268.101 222.291V222.284Z" fill="#E0E0E0"/>
<path d="M297.292 122.217C297.292 122.217 296.857 122.415 296.033 122.69C295.133 122.995 293.973 123.385 292.576 123.858C289.661 124.85 285.662 126.285 281.312 128.071C277.007 129.917 272.955 131.413 270.643 133.42C269.49 134.405 268.826 135.481 268.498 136.259C268.17 137.045 268.109 137.526 268.063 137.519C268.048 137.519 268.055 137.396 268.078 137.168C268.117 136.939 268.178 136.603 268.323 136.191C268.605 135.366 269.246 134.222 270.414 133.169C271.574 132.108 273.192 131.161 275.046 130.291C276.901 129.429 278.954 128.528 281.129 127.628C285.486 125.842 289.523 124.453 292.469 123.537C293.942 123.079 295.14 122.736 295.98 122.515C296.812 122.293 297.277 122.194 297.292 122.225V122.217Z" fill="#E0E0E0"/>
<path d="M306.863 98.7114C306.863 98.7114 306.756 98.8564 306.512 99.0854C306.229 99.3525 305.871 99.6883 305.443 100.093C304.451 101.001 303.093 102.23 301.444 103.725C297.987 106.801 293.301 110.976 288.127 115.585C282.93 120.21 278.435 124.636 275.321 127.964C273.764 129.627 272.535 131.001 271.696 131.963C271.307 132.413 270.986 132.772 270.727 133.069C270.505 133.321 270.375 133.443 270.368 133.436C270.353 133.428 270.452 133.275 270.65 133.008C270.856 132.741 271.146 132.337 271.551 131.841C272.344 130.841 273.535 129.421 275.069 127.727C278.129 124.331 282.594 119.859 287.806 115.219C293.026 110.602 297.773 106.458 301.223 103.466C302.917 102.016 304.306 100.818 305.329 99.9477C305.787 99.5662 306.161 99.2609 306.458 99.009C306.718 98.7954 306.863 98.6961 306.878 98.7038L306.863 98.7114Z" fill="#E0E0E0"/>
<path d="M282.502 120.301C282.365 120.24 283.449 117.73 284.532 114.562C285.624 111.388 286.135 108.717 286.28 108.739C286.41 108.755 286.097 111.51 284.99 114.723C284.448 116.325 283.845 117.737 283.372 118.737C282.899 119.737 282.556 120.332 282.502 120.309V120.301Z" fill="#E0E0E0"/>
<path d="M268.132 140.518C268.132 140.518 267.819 140.205 267.33 139.587C266.789 138.892 266.102 138.007 265.278 136.954C263.553 134.725 261.172 131.65 258.501 128.284C255.83 124.919 253.372 121.896 251.594 119.714C250.754 118.676 250.052 117.806 249.495 117.119C249.007 116.501 248.747 116.15 248.77 116.127C248.793 116.104 249.106 116.417 249.64 116.997C250.174 117.577 250.93 118.432 251.853 119.492C253.7 121.622 256.203 124.613 258.875 127.987C261.546 131.36 263.896 134.473 265.545 136.755C266.369 137.9 267.033 138.831 267.475 139.48C267.918 140.129 268.155 140.503 268.124 140.518H268.132Z" fill="#E0E0E0"/>
<path d="M261.729 132.298C261.652 132.382 259.943 130.36 259.05 127.277C258.394 125.109 258.363 123.125 258.44 122.217L258.653 122.232C258.562 122.621 258.485 122.82 258.447 122.82C258.409 122.82 258.409 122.599 258.44 122.202L258.653 122.217C258.73 123.117 258.867 125.033 259.508 127.139C260.37 130.123 261.859 132.214 261.729 132.298Z" fill="#E0E0E0"/>
<path d="M253.464 121.904C253.403 121.973 252.853 121.278 251.594 120.82C250.342 120.34 248.465 120.233 246.397 120.408C244.329 120.561 242.482 120.927 241.161 121.255C239.841 121.584 239.032 121.843 239.009 121.774C238.986 121.721 239.757 121.347 241.07 120.927C242.383 120.515 244.252 120.088 246.359 119.927C248.45 119.744 250.426 119.905 251.724 120.507C253.036 121.087 253.51 121.896 253.471 121.912L253.464 121.904Z" fill="#E0E0E0"/>
<path d="M251.502 119.386C251.464 119.462 250.411 118.951 248.633 118.34C246.862 117.73 244.329 117.088 241.474 116.867C238.62 116.653 236.025 116.905 234.178 117.241C232.332 117.569 231.21 117.92 231.187 117.836C231.179 117.806 231.446 117.691 231.95 117.516C232.446 117.333 233.186 117.119 234.117 116.905C235.972 116.478 238.612 116.173 241.52 116.386C244.428 116.615 246.992 117.317 248.755 118.02C249.64 118.371 250.342 118.691 250.8 118.951C251.266 119.202 251.518 119.355 251.502 119.386Z" fill="#E0E0E0"/>
<path d="M268.063 108.732C267.933 108.762 266.995 105.511 265.972 101.467C264.949 97.4218 264.217 94.1172 264.346 94.0791C264.476 94.0485 265.415 97.2996 266.438 101.344C267.46 105.389 268.193 108.694 268.063 108.732Z" fill="#E0E0E0"/>
<path d="M268.2 108.732C268.055 108.778 267.453 106.603 265.88 104.382C264.346 102.115 262.393 100.97 262.469 100.864C262.492 100.81 263.034 101.009 263.789 101.543C264.545 102.069 265.476 102.955 266.277 104.107C267.91 106.419 268.315 108.724 268.2 108.732Z" fill="#E0E0E0"/>
<path d="M268.101 204.479C268.048 204.487 267.949 203.678 267.575 202.258C267.201 200.839 266.499 198.824 265.346 196.473C263.041 191.757 258.836 185.774 253.502 179.791C250.861 176.768 248.289 173.922 246.114 171.19C243.932 168.465 242.138 165.87 240.833 163.573C239.521 161.276 238.666 159.307 238.17 157.918C237.926 157.224 237.742 156.674 237.643 156.3C237.536 155.926 237.491 155.728 237.506 155.72C237.552 155.705 237.788 156.483 238.345 157.849C238.895 159.208 239.788 161.146 241.131 163.398C242.466 165.657 244.275 168.213 246.465 170.907C248.648 173.609 251.22 176.44 253.868 179.47C259.218 185.476 263.408 191.528 265.659 196.328C266.789 198.725 267.445 200.77 267.765 202.212C267.918 202.937 268.025 203.502 268.063 203.891C268.109 204.281 268.132 204.479 268.109 204.479H268.101Z" fill="#E0E0E0"/>
<path d="M294.476 174.677C294.476 174.677 293.988 174.967 293.095 175.456C292.21 175.952 290.951 176.722 289.508 177.829C288.066 178.936 286.455 180.386 284.799 182.126C283.143 183.873 281.441 185.903 279.709 188.071C276.237 192.428 272.986 196.29 271.039 199.366C270.055 200.892 269.33 202.182 268.864 203.082C268.391 203.983 268.139 204.487 268.101 204.471C268.086 204.471 268.132 204.326 268.231 204.082C268.33 203.83 268.475 203.464 268.697 202.998C269.116 202.067 269.796 200.747 270.749 199.183C272.642 196.031 275.863 192.116 279.335 187.766C281.075 185.591 282.8 183.553 284.487 181.813C286.173 180.073 287.829 178.63 289.31 177.554C290.79 176.471 292.095 175.738 293.011 175.288C293.469 175.059 293.843 174.914 294.087 174.807C294.339 174.708 294.469 174.662 294.476 174.677Z" fill="#E0E0E0"/>
<path d="M294.995 184.347C294.995 184.415 293.881 184.553 292.072 184.774C290.271 185.011 287.768 185.308 285.143 186.14C282.525 186.995 280.35 188.292 278.938 189.399C277.511 190.505 276.832 191.421 276.771 191.368C276.748 191.353 276.885 191.101 277.206 190.696C277.519 190.284 278.03 189.742 278.725 189.139C280.121 187.941 282.311 186.56 284.998 185.69C287.684 184.835 290.226 184.591 292.042 184.446C293.866 184.316 294.995 184.301 294.995 184.362V184.347Z" fill="#E0E0E0"/>
<path d="M277.618 190.299C277.465 190.215 278.786 188.201 279.801 185.499C280.762 182.767 280.984 180.378 281.159 180.401C281.22 180.409 281.22 181.004 281.113 181.966C280.999 182.927 280.77 184.255 280.259 185.659C279.747 187.064 279.076 188.231 278.564 189.048C278.045 189.864 277.671 190.33 277.618 190.299Z" fill="#E0E0E0"/>
<path d="M303.024 148.729C303.024 148.729 302.871 148.829 302.558 148.981C302.192 149.149 301.742 149.355 301.185 149.607C300.582 149.867 299.857 150.195 299.033 150.63C298.208 151.057 297.247 151.492 296.239 152.095C295.728 152.385 295.201 152.69 294.644 153.003C294.095 153.324 293.545 153.698 292.965 154.064C291.79 154.774 290.615 155.651 289.356 156.552C286.898 158.422 284.311 160.627 281.823 163.176C279.358 165.756 277.236 168.412 275.458 170.93C274.604 172.22 273.772 173.426 273.092 174.624C272.749 175.219 272.39 175.776 272.093 176.341C271.795 176.906 271.513 177.448 271.238 177.967C270.673 178.989 270.261 179.966 269.864 180.805C269.46 181.645 269.154 182.385 268.918 182.996C268.681 183.561 268.491 184.018 268.338 184.392C268.201 184.713 268.124 184.873 268.109 184.866C268.094 184.866 268.139 184.682 268.246 184.354C268.376 183.98 268.536 183.507 268.742 182.927C268.956 182.301 269.231 181.553 269.612 180.699C269.986 179.844 270.376 178.852 270.925 177.814C271.192 177.287 271.467 176.738 271.757 176.165C272.047 175.593 272.398 175.028 272.741 174.425C273.405 173.212 274.237 171.983 275.084 170.686C276.855 168.129 278.984 165.443 281.472 162.848C283.983 160.276 286.593 158.063 289.088 156.201C290.363 155.308 291.554 154.438 292.752 153.736C293.339 153.377 293.896 153.003 294.461 152.69C295.026 152.385 295.56 152.087 296.079 151.805C297.102 151.217 298.079 150.798 298.918 150.393C299.758 149.981 300.498 149.676 301.116 149.447C301.688 149.226 302.154 149.05 302.528 148.905C302.856 148.783 303.024 148.729 303.032 148.745L303.024 148.729Z" fill="#E0E0E0"/>
<path d="M282.144 162.718C282.098 162.718 282.334 161.902 283.288 161.009C284.219 160.116 285.929 159.292 287.913 159.231C289.89 159.177 291.607 159.734 292.782 160.185C293.957 160.65 294.644 161.024 294.621 161.077C294.591 161.146 293.858 160.879 292.668 160.505C291.485 160.139 289.806 159.666 287.928 159.711C286.059 159.772 284.448 160.49 283.51 161.261C282.556 162.031 282.22 162.756 282.136 162.711L282.144 162.718Z" fill="#E0E0E0"/>
<path d="M279.022 165.939C278.892 165.863 280.068 164.138 280.335 161.665C280.64 159.193 279.892 157.247 280.037 157.201C280.091 157.178 280.35 157.636 280.579 158.445C280.808 159.254 280.961 160.429 280.808 161.719C280.655 163.001 280.236 164.115 279.831 164.848C279.427 165.588 279.06 165.97 279.015 165.931L279.022 165.939Z" fill="#E0E0E0"/>
<path d="M245.023 209.264C245.74 222.032 249.587 235.013 255.509 248.14H281.243C286.883 235.143 290.47 222.177 291.103 209.264H245.023Z" fill="#E0E0E0"/>
<path d="M286.936 229.923C286.936 230.053 278.465 230.167 268.017 230.167C257.57 230.167 249.098 230.061 249.098 229.923C249.098 229.786 257.57 229.679 268.017 229.679C278.465 229.679 286.936 229.786 286.936 229.923Z" fill="#FAFAFA"/>
<path d="M286.356 234.548C286.356 234.678 278.412 234.792 268.62 234.792C258.829 234.792 250.884 234.685 250.884 234.548C250.884 234.411 258.821 234.304 268.62 234.304C278.419 234.304 286.356 234.411 286.356 234.548Z" fill="#FAFAFA"/>
<path d="M255.929 217.644C256.058 217.644 256.173 220.299 256.173 223.573C256.173 226.847 256.066 229.503 255.929 229.503C255.791 229.503 255.684 226.847 255.684 223.573C255.684 220.299 255.791 217.644 255.929 217.644Z" fill="#FAFAFA"/>
<path d="M269.712 217.644C269.841 217.644 269.956 220.391 269.956 223.779C269.956 227.168 269.849 229.915 269.712 229.915C269.574 229.915 269.467 227.168 269.467 223.779C269.467 220.391 269.574 217.644 269.712 217.644Z" fill="#FAFAFA"/>
<path d="M282.655 217.537C282.785 217.537 282.899 220.338 282.899 223.795C282.899 227.252 282.792 230.053 282.655 230.053C282.517 230.053 282.411 227.252 282.411 223.795C282.411 220.338 282.517 217.537 282.655 217.537Z" fill="#FAFAFA"/>
<path d="M290.287 217.644C290.287 217.773 280.35 217.888 268.094 217.888C255.837 217.888 245.901 217.781 245.901 217.644C245.901 217.506 255.837 217.399 268.094 217.399C280.35 217.399 290.287 217.506 290.287 217.644Z" fill="#FAFAFA"/>
<path d="M338 247.4C338 247.507 262.332 247.598 169.011 247.598C75.6911 247.598 0 247.507 0 247.4C0 247.293 75.653 247.201 169.011 247.201C262.37 247.201 338 247.293 338 247.4Z" fill="#263238"/>
<path d="M320.485 217.529L328.842 247.4H322.706L308.671 217.354L320.485 217.529Z" fill="#96805C"/>
<path opacity="0.3" d="M312.655 225.886L322.714 225.756L321.806 222.406L311.205 222.795L312.655 225.886Z" fill="black"/>
<path d="M286.776 218.369L278.923 247.4H284.96L298.598 218.193L286.776 218.369Z" fill="#96805C"/>
<path opacity="0.3" d="M295.003 225.886L284.777 225.756L285.692 222.406L296.468 222.795L295.003 225.886Z" fill="black"/>
<path d="M320.905 223.551H286.074C283.464 223.551 281.274 221.582 280.991 218.995C279.839 208.371 279.656 198.229 280.862 188.788C281.19 186.247 283.365 184.347 285.929 184.347H321.05C323.66 184.347 325.85 186.316 326.133 188.91C327.216 199.068 326.858 209.218 325.995 218.895C325.759 221.528 323.553 223.551 320.905 223.551Z" fill="#F08390"/>
<path d="M325.888 194.321C325.888 194.42 315.715 194.497 303.161 194.497C290.607 194.497 280.434 194.42 280.434 194.321C280.434 194.222 290.607 194.146 303.161 194.146C315.715 194.146 325.888 194.222 325.888 194.321Z" fill="#263238"/>
<path d="M287.997 222.894C287.997 222.894 287.867 222.513 287.684 221.818C287.501 221.116 287.272 220.101 287.02 218.834C286.509 216.301 285.937 212.767 285.601 208.837C285.265 204.906 285.219 201.327 285.288 198.74C285.326 197.45 285.372 196.405 285.433 195.68C285.486 194.962 285.532 194.558 285.555 194.566C285.578 194.566 285.586 194.97 285.57 195.687C285.555 196.412 285.54 197.45 285.54 198.74C285.532 201.32 285.616 204.884 285.952 208.799C286.295 212.714 286.822 216.24 287.272 218.781C287.493 220.048 287.684 221.078 287.829 221.788C287.967 222.498 288.028 222.894 288.005 222.894H287.997Z" fill="#263238"/>
<path d="M319.737 223.871C319.737 223.871 319.737 223.459 319.806 222.711C319.875 221.91 319.959 220.849 320.065 219.559C320.272 216.903 320.478 213.225 320.493 209.157C320.508 205.09 320.325 201.411 320.134 198.748C320.035 197.466 319.959 196.397 319.89 195.596C319.829 194.856 319.806 194.436 319.829 194.436C319.852 194.436 319.92 194.84 320.02 195.581C320.127 196.321 320.249 197.397 320.371 198.725C320.623 201.388 320.844 205.074 320.829 209.157C320.813 213.24 320.569 216.926 320.294 219.582C320.157 220.91 320.027 221.986 319.92 222.726C319.814 223.467 319.745 223.871 319.722 223.871H319.737Z" fill="#263238"/>
<path d="M267.315 206.395L278.312 247.026H269.857L250.777 206.151L267.315 206.395Z" fill="#96805C"/>
<path opacity="0.3" d="M254.059 213.187L269.101 212.989L267.895 208.28L251.884 208.997L254.059 213.187Z" fill="black"/>
<path d="M128.716 206.395L117.574 247.171H126.106L145.254 206.151L128.716 206.395Z" fill="#7B653F"/>
<path d="M194.181 206.395L182.848 247.392H191.471L210.719 206.151L194.181 206.395Z" fill="#7B653F"/>
<path d="M201.851 206.395L212.848 247.026H204.392L185.313 206.151L201.851 206.395Z" fill="#96805C"/>
<path d="M174.46 26.0808C174.46 26.0808 194.31 25.2566 195.509 45.9232C196.699 66.5898 182.413 100.681 183.771 109.984C185.129 119.287 251.06 98.5666 259.073 97.3226C267.079 96.0786 275.451 102.894 275.451 111.365C275.451 118.348 273.13 180.073 272.322 202.503C272.169 206.769 268.666 210.142 264.4 210.142H213.405L144.628 154.621C144.628 154.621 99.1584 76.0836 99.1584 75.2594C99.1584 74.4352 108.874 21.3186 108.874 21.3186L163.639 25.8671L174.468 26.0731L174.46 26.0808Z" fill="#F08390"/>
<path opacity="0.3" d="M256.921 105.153C248.915 106.397 182.871 130.467 181.512 121.164L174.46 26.0807L163.631 25.8747L108.866 21.3262C108.866 21.3262 99.1509 74.4427 99.1509 75.267C99.1509 76.0912 144.62 154.629 144.62 154.629L219.007 157.384L264.415 155.415C264.415 155.415 269.277 126.231 269.277 117.76C269.277 109.289 264.934 103.916 256.928 105.16L256.921 105.153Z" fill="black"/>
<path opacity="0.3" d="M224.303 190.727C224.959 190.574 267.361 186.995 267.361 186.995L267.598 179.554L223.09 177.707L224.303 190.735V190.727Z" fill="black"/>
<path d="M266.613 209.539C266.613 209.539 266.567 209.119 266.56 208.356C266.56 207.524 266.56 206.441 266.567 205.143C266.59 202.426 266.651 198.679 266.773 194.535C266.895 190.391 267.063 186.644 267.224 183.935C267.308 182.576 267.384 181.485 267.445 180.729C267.506 179.974 267.559 179.554 267.582 179.554C267.605 179.554 267.613 179.974 267.598 180.737C267.575 181.569 267.537 182.645 267.498 183.95C267.407 186.736 267.292 190.445 267.163 194.55C267.04 198.656 266.926 202.365 266.842 205.151C266.789 206.456 266.743 207.532 266.705 208.364C266.667 209.119 266.628 209.539 266.598 209.539H266.613Z" fill="#263238"/>
<path opacity="0.3" d="M126.434 214.828H141.202L143.079 210.813H127.518L126.434 214.828Z" fill="black"/>
<path opacity="0.3" d="M189.22 214.522H206.811L208.544 210.813H187.488L189.22 214.522Z" fill="black"/>
<path d="M267.575 127.926L263.339 116.867L245.71 123.957L251.151 135.756L267.575 127.926Z" fill="#FFBF9D"/>
<path d="M251.106 134.237L259.531 151.264L260.004 156.896C260.149 158.651 261.698 159.956 263.454 159.811L296.117 157.056C296.117 157.056 296.361 153.126 293.973 152.34C291.584 151.554 274.283 144.075 274.283 144.075L267.537 127.896L251.098 134.245L251.106 134.237Z" fill="#E0E0E0"/>
<path d="M251.106 134.237C251.106 134.237 251.212 134.207 251.411 134.131C251.617 134.054 251.899 133.947 252.266 133.81C253.029 133.52 254.128 133.108 255.54 132.574C258.379 131.49 262.484 129.933 267.582 127.987L267.43 127.926C269.33 132.497 271.612 138.007 274.146 144.12L274.169 144.174L274.222 144.197C277.923 145.784 281.877 147.478 286.013 149.257C288.089 150.134 290.21 151.027 292.393 151.905C292.935 152.126 293.507 152.332 294.041 152.538C294.56 152.737 294.972 153.141 295.255 153.637C295.812 154.629 295.972 155.866 295.942 157.033L296.094 156.873C296.033 156.873 295.965 156.881 295.896 156.888C287.509 157.598 279.511 158.277 272.222 158.903C270.398 159.056 268.62 159.208 266.896 159.361C266.033 159.437 265.178 159.506 264.339 159.582C263.927 159.613 263.492 159.666 263.103 159.674C262.706 159.674 262.316 159.582 261.958 159.422C261.24 159.117 260.66 158.529 260.37 157.835C260.065 157.148 260.111 156.354 260.012 155.598C259.882 154.087 259.752 152.637 259.63 151.248V151.226L259.615 151.203C256.997 145.983 254.883 141.747 253.41 138.809C252.67 137.351 252.098 136.214 251.701 135.42C251.51 135.039 251.357 134.749 251.251 134.535C251.144 134.337 251.083 134.23 251.083 134.23C251.083 134.23 251.121 134.329 251.212 134.527C251.312 134.733 251.449 135.031 251.632 135.405C252.014 136.191 252.563 137.328 253.273 138.793C254.723 141.762 256.814 146.036 259.394 151.317L259.378 151.271C259.493 152.66 259.615 154.11 259.737 155.621C259.767 156.003 259.798 156.385 259.829 156.766C259.859 157.155 259.935 157.567 260.103 157.941C260.424 158.697 261.05 159.338 261.828 159.681C262.217 159.849 262.645 159.949 263.08 159.956C263.522 159.956 263.919 159.903 264.347 159.872C265.186 159.804 266.041 159.735 266.903 159.659C268.636 159.514 270.414 159.369 272.23 159.216C279.518 158.605 287.516 157.934 295.904 157.232C295.972 157.232 296.041 157.224 296.102 157.216L296.255 157.201V157.056C296.285 155.82 296.133 154.568 295.522 153.469C295.217 152.927 294.736 152.462 294.141 152.233C293.576 152.012 293.042 151.821 292.492 151.599C290.317 150.729 288.196 149.829 286.12 148.959C281.976 147.188 278.023 145.502 274.321 143.922L274.397 144.006C271.841 137.901 269.536 132.406 267.621 127.834L267.575 127.728L267.468 127.766C262.362 129.773 258.249 131.383 255.402 132.497C254.006 133.047 252.922 133.482 252.174 133.779C251.823 133.924 251.548 134.031 251.342 134.115C251.159 134.192 251.067 134.23 251.067 134.23L251.106 134.237Z" fill="#263238"/>
<path d="M248.297 133.283L251.022 138.068C251.403 138.732 252.22 138.999 252.914 138.694L268.742 131.696C269.437 131.391 269.788 130.605 269.559 129.872L268.063 125.255C267.788 124.423 266.865 124.003 266.056 124.347L248.778 131.833C248.221 132.077 247.992 132.749 248.297 133.283Z" fill="#E0E0E0"/>
<path d="M248.297 133.283C248.297 133.283 248.183 133.108 248.198 132.749C248.206 132.574 248.267 132.352 248.434 132.154C248.595 131.948 248.885 131.856 249.213 131.719C250.526 131.162 252.372 130.383 254.647 129.422C256.944 128.437 259.668 127.27 262.69 125.972C263.446 125.644 264.224 125.316 265.011 124.972C265.407 124.804 265.804 124.637 266.201 124.461C266.567 124.324 267.002 124.369 267.338 124.583C267.506 124.69 267.651 124.835 267.758 125.003C267.865 125.163 267.918 125.369 267.995 125.598C268.132 126.033 268.277 126.468 268.422 126.911C268.704 127.788 268.994 128.681 269.292 129.59C269.368 129.826 269.452 130.032 269.46 130.238C269.475 130.444 269.437 130.658 269.361 130.849C269.277 131.04 269.147 131.207 268.994 131.345C268.834 131.482 268.643 131.559 268.422 131.65C267.575 132.024 266.743 132.398 265.919 132.757C264.278 133.482 262.698 134.184 261.195 134.855C258.195 136.199 255.486 137.404 253.204 138.427C252.914 138.557 252.662 138.687 252.388 138.702C252.113 138.717 251.846 138.656 251.617 138.519C251.151 138.267 250.976 137.733 250.701 137.32C250.205 136.473 249.778 135.741 249.419 135.13C249.076 134.55 248.801 134.092 248.595 133.749C248.404 133.436 248.297 133.276 248.289 133.283C248.282 133.283 248.366 133.459 248.534 133.787C248.724 134.138 248.976 134.604 249.305 135.199C249.648 135.817 250.06 136.557 250.541 137.42C250.663 137.633 250.785 137.862 250.915 138.091C251.045 138.335 251.251 138.564 251.51 138.709C251.77 138.862 252.082 138.946 252.395 138.931C252.723 138.931 253.021 138.77 253.296 138.648C255.585 137.649 258.302 136.458 261.317 135.145C262.828 134.481 264.408 133.787 266.048 133.062C266.865 132.703 267.705 132.329 268.552 131.955C268.75 131.864 269.002 131.772 269.2 131.597C269.399 131.429 269.559 131.215 269.658 130.979C269.757 130.742 269.811 130.475 269.788 130.208C269.788 130.078 269.75 129.948 269.712 129.819L269.605 129.483C269.315 128.582 269.017 127.689 268.735 126.804C268.59 126.361 268.452 125.926 268.307 125.491C268.239 125.285 268.178 125.041 268.033 124.827C267.895 124.614 267.712 124.438 267.506 124.308C267.086 124.041 266.544 123.996 266.087 124.163C265.659 124.339 265.278 124.514 264.881 124.682C264.087 125.026 263.316 125.362 262.561 125.69C259.554 127.01 256.837 128.201 254.547 129.2C252.296 130.2 250.457 131.017 249.152 131.597C248.847 131.734 248.518 131.849 248.351 132.085C248.175 132.306 248.122 132.551 248.122 132.741C248.122 132.932 248.167 133.07 248.213 133.154C248.259 133.238 248.289 133.276 248.289 133.276L248.297 133.283Z" fill="#263238"/>
<path d="M254.868 137.473C254.822 137.565 253.349 136.389 252.571 134.283C251.77 132.184 252.098 130.338 252.197 130.368C252.327 130.368 252.189 132.146 252.953 134.138C253.693 136.138 254.967 137.389 254.868 137.473Z" fill="#263238"/>
<path d="M260.874 135.168C260.783 135.214 259.852 133.711 258.928 131.734C257.997 129.765 257.432 128.094 257.524 128.056C257.623 128.017 258.348 129.62 259.272 131.574C260.195 133.535 260.966 135.115 260.874 135.161V135.168Z" fill="#263238"/>
<path d="M267.056 132.184C266.926 132.207 266.773 130.36 265.514 128.544C264.285 126.705 262.622 125.881 262.698 125.774C262.721 125.728 263.164 125.873 263.789 126.277C264.415 126.674 265.209 127.369 265.858 128.315C266.499 129.261 266.857 130.254 266.995 130.986C267.14 131.719 267.109 132.184 267.063 132.184H267.056Z" fill="#263238"/>
<path d="M267.155 159.315C267.094 159.33 266.979 158.735 266.598 157.85C266.224 156.972 265.545 155.812 264.461 154.843C263.385 153.866 262.156 153.309 261.248 153.034C260.332 152.752 259.729 152.698 259.737 152.637C259.737 152.591 260.355 152.546 261.324 152.775C262.286 152.996 263.591 153.538 264.728 154.56C265.865 155.583 266.544 156.827 266.857 157.758C267.178 158.697 267.201 159.315 267.155 159.323V159.315Z" fill="#263238"/>
<path d="M286.906 157.827C286.868 157.842 286.654 157.438 286.517 156.713C286.379 155.995 286.394 154.919 286.852 153.874C287.303 152.82 288.005 152.057 288.531 151.561C289.073 151.073 289.455 150.829 289.485 150.867C289.523 150.912 289.203 151.225 288.73 151.752C288.264 152.286 287.631 153.042 287.211 154.026C286.791 155.003 286.73 155.988 286.791 156.682C286.852 157.384 286.967 157.812 286.906 157.834V157.827Z" fill="#263238"/>
<path d="M267.59 120.439C267.59 120.439 256.287 94.8805 252.411 85.8522C248.534 76.8239 244.306 63.6134 228.79 66.6203C213.275 69.6272 207.284 98.7269 202.881 109.098C198.477 119.47 196.028 134.016 196.028 134.016L233.721 127.826L234.957 110.266C234.957 110.266 237.422 116.906 239.36 119.187C241.299 121.469 249.121 130.154 249.121 130.154L267.575 120.439H267.59Z" fill="#263238"/>
<path d="M235.316 110.129C235.316 110.129 235.171 109.869 234.972 109.381C234.766 108.892 234.537 108.167 234.301 107.251C234.056 106.336 233.866 105.221 233.736 103.977C233.629 102.733 233.598 101.352 233.705 99.9097C233.949 97.0173 234.72 94.4836 235.483 92.7588C235.865 91.8964 236.208 91.2096 236.491 90.7593C236.758 90.309 236.918 90.0648 236.949 90.0724C237.01 90.1106 236.437 91.118 235.751 92.858C235.064 94.5904 234.346 97.0936 234.11 99.9326C234.003 101.352 234.018 102.711 234.11 103.939C234.217 105.168 234.384 106.267 234.583 107.183C234.98 109.007 235.392 110.098 235.323 110.129H235.316Z" fill="#455A64"/>
<path opacity="0.3" d="M216.557 118.584L234.659 113.204V115.89L217.549 121.683L216.557 118.584Z" fill="black"/>
<path opacity="0.3" d="M236.575 113.204C236.575 113.204 246.13 110.732 251.663 114.082C257.272 117.47 258.226 119.21 259.661 122.561C261.095 125.911 258.897 137.496 258.897 137.496L237.437 115.394L236.567 113.57" fill="black"/>
<path d="M249.167 155.598C254.708 150.34 258.317 143.09 259.187 135.504C259.623 131.719 259.378 127.811 258.012 124.255C256.646 120.699 254.09 117.531 250.671 115.86C245.603 113.38 239.574 114.433 234.133 115.906C227.142 117.806 220.319 120.309 213.764 123.393V156.72L249.175 155.598H249.167Z" fill="#263238"/>
<path d="M249.167 155.598C249.167 155.598 248.953 155.621 248.534 155.644C248.091 155.667 247.465 155.69 246.664 155.728C245 155.789 242.589 155.881 239.513 156.003C233.308 156.217 224.456 156.522 213.764 156.888H213.588V156.72C213.581 147.043 213.565 135.649 213.558 123.393V123.27L213.672 123.217C215.931 122.156 218.358 121.095 220.854 120.111C225.776 118.165 230.706 116.57 235.545 115.341C237.971 114.738 240.406 114.296 242.825 114.204C245.237 114.097 247.641 114.433 249.801 115.28C251.968 116.135 253.8 117.57 255.227 119.233C256.654 120.905 257.684 122.805 258.356 124.743C259.699 128.643 259.714 132.581 259.256 136.008C258.806 139.465 257.821 142.487 256.707 145.006C255.578 147.532 254.311 149.554 253.166 151.119C252.021 152.683 250.991 153.79 250.281 154.53C249.923 154.896 249.633 155.163 249.442 155.339C249.251 155.514 249.152 155.598 249.152 155.598C249.152 155.598 249.243 155.491 249.419 155.301C249.61 155.102 249.877 154.828 250.22 154.469C250.907 153.713 251.915 152.599 253.036 151.019C254.158 149.447 255.395 147.417 256.501 144.906C257.585 142.388 258.546 139.389 258.974 135.962C259.409 132.558 259.378 128.674 258.043 124.843C257.371 122.942 256.356 121.08 254.96 119.447C253.555 117.829 251.77 116.432 249.663 115.608C247.557 114.792 245.206 114.464 242.833 114.57C240.452 114.662 238.048 115.105 235.636 115.707C230.821 116.944 225.906 118.531 220.991 120.47C218.503 121.454 216.084 122.507 213.832 123.56L213.947 123.385C213.939 135.641 213.924 147.043 213.916 156.713L213.741 156.545C224.41 156.239 233.255 155.98 239.444 155.804C242.528 155.728 244.947 155.667 246.618 155.621C247.435 155.606 248.061 155.591 248.511 155.583C248.938 155.583 249.167 155.583 249.167 155.583V155.598Z" fill="#455A64"/>
<path d="M251.747 141.594C251.747 141.594 251.472 141.93 250.93 142.487C250.388 143.052 249.564 143.823 248.511 144.738C247.458 145.662 246.153 146.692 244.641 147.761C243.123 148.814 241.406 149.905 239.536 150.935C237.658 151.95 235.804 152.79 234.087 153.484C232.37 154.164 230.79 154.698 229.447 155.079C228.104 155.461 227.005 155.736 226.234 155.873C225.471 156.026 225.043 156.094 225.036 156.071C225.036 156.041 225.448 155.919 226.196 155.728C226.951 155.537 228.035 155.232 229.363 154.812C230.691 154.4 232.248 153.843 233.949 153.149C235.644 152.439 237.475 151.592 239.345 150.584C241.207 149.569 242.917 148.493 244.435 147.463C245.939 146.417 247.259 145.418 248.335 144.525C249.411 143.639 250.258 142.899 250.831 142.373C251.411 141.846 251.739 141.571 251.754 141.587L251.747 141.594Z" fill="#455A64"/>
<path d="M209.078 89.8435C209.078 89.8435 208.65 87.1648 207.017 86.829C205.392 86.4932 203.24 87.7371 202.568 89.5535C201.896 91.3698 201.851 93.6212 201.851 93.6212L209.078 89.8435Z" fill="#FFBF9D"/>
<path d="M203.392 92.1254C203.346 92.1483 203.178 91.9728 203.018 91.6141C202.858 91.2554 202.736 90.7059 202.812 90.103C202.881 89.5001 203.133 88.9888 203.369 88.6835C203.606 88.3706 203.812 88.2409 203.85 88.2714C203.942 88.3401 203.331 89.0651 203.201 90.1488C203.064 91.2325 203.491 92.0796 203.385 92.1254H203.392Z" fill="#FF9A6C"/>
<path d="M215.733 91.7133C215.733 91.7133 217.503 91.7133 217.549 93.2931C217.595 94.8729 216.404 95.8421 216.404 95.8421C216.404 95.8421 218.656 99.1314 215.015 100.185C215.015 100.185 215.733 102.672 213.199 103.153C213.199 103.153 212.1 104.588 209.322 105.74C206.544 106.885 201.332 104.351 201.332 104.351L200.423 95.4987L210.093 90.8052L215.74 91.7133H215.733Z" fill="#FFBF9D"/>
<path d="M211.55 96.0482C211.512 95.949 212.604 95.4987 214.038 95.4606C215.473 95.3995 216.595 95.7734 216.557 95.8803C216.526 95.9871 215.427 95.804 214.046 95.865C212.672 95.9032 211.581 96.1627 211.543 96.0558L211.55 96.0482Z" fill="#FF9A6C"/>
<path d="M205.72 100.864C205.758 100.81 206.162 101.2 206.994 101.314C207.819 101.467 208.971 101.146 210.276 100.902C212.871 100.398 214.992 100.078 215.015 100.185C215.038 100.291 212.955 100.788 210.36 101.291C209.711 101.413 209.101 101.543 208.521 101.619C207.941 101.696 207.399 101.696 206.956 101.589C206.056 101.39 205.682 100.887 205.727 100.864H205.72Z" fill="#FF9A6C"/>
<path d="M213.191 103.146C213.191 103.199 212.825 103.306 212.214 103.413C211.604 103.512 210.741 103.642 209.765 103.543C208.818 103.42 207.902 103.138 207.49 102.535C207.284 102.245 207.292 101.925 207.338 101.757C207.384 101.581 207.445 101.497 207.467 101.505C207.551 101.505 207.361 101.94 207.712 102.375C208.07 102.795 208.91 103.046 209.81 103.153C210.719 103.245 211.566 103.169 212.184 103.146C212.802 103.108 213.184 103.1 213.191 103.153V103.146Z" fill="#FF9A6C"/>
<path d="M199.729 75.9309C199.637 74.0764 198.943 72.2982 198.119 70.6269C194.639 63.5904 188.663 57.8819 185.954 50.5174C183.168 42.9467 181.558 30.8886 182.581 22.8906L170.812 71.3137C172.209 75.618 185.313 83.3489 188.35 86.6992C190.319 88.8666 193.105 90.8966 195.936 90.1564C197.76 89.6832 199.179 88.0347 199.523 86.1879C199.866 84.341 199.187 82.3568 197.882 81.006C199.256 79.7544 199.828 77.793 199.737 75.9385L199.729 75.9309Z" fill="#263238"/>
<path d="M136.104 23.3181C141.255 10.4358 147.742 -3.59886 166.585 2.04859C166.585 2.04859 180.795 6.25365 182.718 17.6172C183.763 23.776 177.65 44.5495 174.323 62.1253L171.377 85.0203L134.814 66.9103C134.814 66.9103 123.519 54.8065 136.104 23.3181Z" fill="#263238"/>
<path d="M167.279 6.89471L166.333 5.49048L152.229 7.8563C150.329 7.5434 148.513 8.74158 148.04 10.6037L139.446 54.3867L156.297 67.6582C157.434 64.3461 159.838 58.1415 159.838 58.1415C160.891 54.463 161.303 52.952 161.296 52.9825C161.296 52.9825 169.431 53.822 173.819 44.1068C176.002 39.276 177.338 32.2625 178.551 25.3405C180.23 15.7551 174.911 8.57368 167.279 6.89471Z" fill="#FFBF9D"/>
<path d="M161.67 29.2784C161.509 29.9729 160.784 30.4079 160.052 30.2477C159.327 30.0874 158.869 29.4006 159.029 28.7061C159.189 28.0116 159.914 27.5766 160.639 27.7368C161.364 27.8971 161.822 28.584 161.662 29.2784H161.67Z" fill="#263238"/>
<path d="M174.308 32.3617C174.148 33.0562 173.423 33.4912 172.69 33.3309C171.965 33.1707 171.507 32.4838 171.667 31.7893C171.827 31.0948 172.553 30.6598 173.278 30.8201C174.003 30.9804 174.46 31.6672 174.3 32.3617H174.308Z" fill="#263238"/>
<path d="M176.597 27.7523C176.391 27.8744 175.605 26.8746 174.201 26.5007C172.804 26.1038 171.583 26.5389 171.476 26.3252C171.423 26.226 171.667 25.9665 172.209 25.7604C172.736 25.5544 173.575 25.4475 174.453 25.6917C175.323 25.9359 175.971 26.4549 176.3 26.9052C176.643 27.3554 176.704 27.6989 176.605 27.7523H176.597Z" fill="#263238"/>
<path d="M162.189 24.7301C161.967 24.837 161.288 23.7609 159.93 23.2343C158.587 22.6925 157.32 23.0054 157.236 22.7841C157.19 22.6849 157.465 22.4483 158.022 22.3033C158.571 22.1506 159.418 22.1277 160.258 22.4635C161.097 22.7993 161.685 23.3793 161.975 23.8601C162.265 24.3409 162.296 24.692 162.189 24.7378V24.7301Z" fill="#263238"/>
<path d="M164.867 36.1319C164.883 36.0479 165.791 36.1319 167.256 36.3455C167.622 36.4066 167.981 36.4295 168.111 36.2005C168.263 35.964 168.225 35.5366 168.164 35.071C168.065 34.1095 167.958 33.1097 167.851 32.0565C167.447 27.7752 167.248 24.2951 167.424 24.2798C167.6 24.2646 168.065 27.7217 168.477 32.0031C168.569 33.0563 168.66 34.0637 168.744 35.0176C168.767 35.4603 168.874 35.9869 168.546 36.4753C168.378 36.7195 168.057 36.8416 167.813 36.834C167.561 36.834 167.363 36.7882 167.18 36.75C165.737 36.4371 164.852 36.2005 164.875 36.1242L164.867 36.1319Z" fill="#263238"/>
<path d="M161.296 52.9826C161.296 52.9826 154.343 51.5555 148.688 45.6333C148.688 45.6333 150.184 53.6008 160.609 55.4248L161.296 52.975V52.9826Z" fill="#FF9A6C"/>
<path d="M163.349 39.3523C163.028 38.551 162.242 37.9405 161.342 37.7955C160.716 37.6963 160.021 37.8184 159.518 38.2152C159.014 38.6121 158.747 39.2913 158.953 39.856C159.189 40.4895 159.945 40.8329 160.662 40.8253C161.38 40.8253 162.082 40.5352 162.746 40.2452C162.929 40.1613 163.12 40.0773 163.257 39.94C163.394 39.8026 163.478 39.5889 163.394 39.421" fill="#FF9A6C"/>
<path d="M160.479 35.9792C160.708 36.025 160.296 37.5514 161.303 38.9861C162.303 40.4285 163.974 40.6956 163.929 40.917C163.929 41.0162 163.486 41.1154 162.799 40.9475C162.12 40.7872 161.204 40.3064 160.586 39.4211C159.975 38.5435 159.876 37.5666 159.991 36.9256C160.105 36.2769 160.38 35.9411 160.479 35.9792Z" fill="#263238"/>
<path d="M164.761 19.5024C164.486 19.8229 163.196 19.1208 161.532 18.7011C159.876 18.2432 158.411 18.2126 158.335 17.8005C158.304 17.6021 158.655 17.3426 159.319 17.19C159.968 17.0297 160.922 17.0144 161.914 17.2739C162.906 17.541 163.723 18.0295 164.211 18.4874C164.707 18.9453 164.883 19.3497 164.761 19.5024Z" fill="#263238"/>
<path d="M177.742 21.6164C177.406 21.8682 176.536 21.2729 175.376 20.9372C174.231 20.5632 173.171 20.5632 173.041 20.1663C172.987 19.9756 173.232 19.7008 173.743 19.5177C174.247 19.3345 175.025 19.2811 175.811 19.5177C176.605 19.7619 177.215 20.235 177.528 20.6777C177.849 21.1203 177.895 21.479 177.742 21.6087V21.6164Z" fill="#263238"/>
<path d="M144.323 28.6756C144.323 28.6756 151.085 32.5373 159.136 15.5262C161.891 9.71089 168.66 6.00189 168.66 6.00189L166.508 4.80371C166.508 4.80371 151.306 5.68136 151.023 5.81109C150.741 5.94083 145.781 12.4201 145.781 12.4201L144.315 28.6833L144.323 28.6756Z" fill="#263238"/>
<path d="M146.261 28.4008C146.467 27.6453 146.078 25.6229 145.368 25.3023C143.46 24.4476 139.82 23.6234 138.401 28.6755C136.462 35.5899 143.796 36.1088 143.865 35.9104C143.918 35.7577 145.552 31.0108 146.261 28.3932V28.4008Z" fill="#FFBF9D"/>
<path d="M142.491 32.7052C142.491 32.7052 142.346 32.7587 142.117 32.7892C141.896 32.8273 141.537 32.7892 141.209 32.5526C140.553 32.0794 140.263 30.7515 140.583 29.4923C140.744 28.8589 141.041 28.2941 141.408 27.8591C141.759 27.4165 142.186 27.1494 142.575 27.1875C142.964 27.2028 143.163 27.5004 143.193 27.7141C143.232 27.9354 143.148 28.0575 143.186 28.0804C143.201 28.1033 143.369 28.0041 143.392 27.7065C143.399 27.5615 143.369 27.3783 143.239 27.1951C143.109 27.012 142.888 26.8746 142.621 26.8288C142.079 26.7144 141.461 27.073 141.064 27.5462C140.637 28.0194 140.286 28.6452 140.103 29.3549C139.759 30.7591 140.103 32.2626 141.018 32.835C141.469 33.0944 141.919 33.0639 142.171 32.9647C142.43 32.8579 142.514 32.7129 142.491 32.69V32.7052Z" fill="#FF9A6C"/>
<path d="M182.359 102.718L191.754 96.9716C191.754 96.9716 186.244 77.9076 183.924 70.5736C183.779 70.1233 183.603 69.6883 183.397 69.2686L182.665 67.7804C181.092 65.1551 178.024 60.3853 172.698 58.7597L162.402 55.501C162.402 55.501 158.419 63.9035 139.782 52.6467C139.782 52.6467 128.556 56.9968 122.42 64.598C116.116 72.4128 124.198 87.6686 124.198 87.6686L139.439 119.928L134.577 134.367L183.367 112.609C183.367 112.609 182.55 108.022 182.153 102.154L182.352 102.718H182.359Z" fill="#E0E0E0"/>
<path d="M155.961 65.9487C155.32 63.3462 153.954 60.8431 151.802 59.2404C150.161 58.0193 148.169 57.3783 146.368 56.409C144.567 55.4474 142.835 53.9745 142.438 51.9674C141.949 49.4871 145.246 44.7554 142.194 39.2454L130.99 49.8229C131.601 57.3019 134.509 64.1934 138.813 70.3369C143.117 76.4804 150.718 85.1653 154.252 91.7819C155.534 87.4548 156.06 78.4494 156.389 73.9543C156.587 71.2756 156.602 68.5587 155.961 65.9487Z" fill="#263238"/>
<g opacity="0.3">
<path d="M153.382 47.0298C152.527 46.6101 151.588 46.1751 151.146 45.3356C150.726 44.5343 150.848 43.5727 150.917 42.6798C150.985 41.7869 150.94 40.7642 150.291 40.1384L149.108 40.3903C147.124 42.0769 146.353 44.9311 146.834 47.4877C147.314 50.0444 148.925 52.2957 150.955 53.9289C152.199 54.9286 153.664 55.7376 155.251 55.8521C157.663 56.0352 159.876 54.631 161.883 53.2878C159.456 50.716 156.556 48.5867 153.382 47.0298Z" fill="#FF9A6C"/>
</g>
<path d="M163.646 57.6149C163.646 57.6149 163.646 53.9899 160.746 52.6543C157.846 51.3188 150.138 47.1748 150.138 47.1748L149.306 46.03C149.306 46.03 149.512 44.58 149.306 43.4352C149.1 42.2905 150.672 40.9931 150.466 39.1615C150.26 37.3299 149.291 37.368 149.291 37.368L148.604 38.1694C148.604 38.1694 147.612 35.9714 146.567 37.4596C146.567 37.4596 144.422 46.1445 144.216 47.4037C144.01 48.6629 144.216 49.6932 144.216 49.6932C144.216 49.6932 143.514 51.5248 143.888 52.2498C143.888 52.2498 143.087 53.967 143.781 55.0736C144.468 56.1802 145.178 56.5694 146.994 57.2486C148.62 57.8515 153.29 60.431 153.946 61.0797L153.786 68.658L165.012 67.4369C165.012 67.4369 163.807 58.8512 163.646 57.6149Z" fill="#FFBF9D"/>
<path d="M163.646 57.6148C163.646 57.6148 163.669 57.6683 163.684 57.7827C163.707 57.9125 163.738 58.0727 163.768 58.2788C163.837 58.7443 163.944 59.3854 164.066 60.202C164.318 61.9115 164.677 64.3536 165.127 67.4216L165.142 67.5437L165.012 67.5589C161.906 67.91 158.098 68.3374 153.794 68.8258L153.603 68.8487V68.6579C153.649 66.315 153.702 63.7583 153.756 61.0796L153.809 61.217C152.962 60.553 151.894 59.9807 150.871 59.4007C149.825 58.8283 148.749 58.2559 147.627 57.7369C146.544 57.2256 145.208 56.9585 144.224 55.9817C143.987 55.7374 143.781 55.4703 143.606 55.188C143.415 54.8827 143.323 54.524 143.3 54.1729C143.262 53.4708 143.43 52.8069 143.697 52.1734V52.349C143.529 51.9597 143.56 51.5858 143.606 51.2271C143.651 50.8608 143.743 50.5097 143.85 50.1587C143.903 49.9831 143.957 49.8076 144.025 49.6321V49.7389C143.819 48.6247 143.934 47.4799 144.231 46.4649C144.476 45.427 144.72 44.3967 144.964 43.3741C145.445 41.3364 145.918 39.3522 146.376 37.4214V37.3832L146.406 37.3603C146.567 37.1619 146.735 36.9406 147.017 36.8337C147.299 36.7116 147.635 36.7879 147.856 36.9406C148.307 37.2535 148.551 37.6732 148.772 38.1082L148.459 38.0624C148.688 37.7877 148.917 37.5282 149.146 37.2611L149.207 37.1924H149.283C149.864 37.2382 150.184 37.6732 150.375 38.0701C150.558 38.4822 150.634 38.9019 150.657 39.3369C150.711 40.2146 150.36 41.0159 150.009 41.718C149.833 42.0691 149.657 42.4125 149.543 42.7559C149.406 43.107 149.467 43.4046 149.528 43.8167C149.604 44.5875 149.558 45.3354 149.467 46.0681L149.436 45.9536C149.726 46.3505 149.993 46.732 150.26 47.0984L150.207 47.0526C152.619 48.3576 154.824 49.5329 156.778 50.5479C157.755 51.0516 158.663 51.5171 159.51 51.9521C160.334 52.3948 161.181 52.6771 161.792 53.219C163.005 54.2874 163.356 55.5695 163.532 56.3556C163.616 56.7677 163.639 57.0806 163.654 57.2943C163.662 57.508 163.654 57.6148 163.654 57.6148C163.646 57.6148 163.639 57.508 163.616 57.2943C163.585 57.0806 163.547 56.7677 163.448 56.3709C163.249 55.5924 162.868 54.3561 161.685 53.3487C161.105 52.845 160.265 52.5703 159.426 52.1353C158.579 51.7079 157.655 51.25 156.679 50.7616C154.717 49.7618 152.504 48.6094 150.077 47.3197L150.047 47.3044L150.024 47.2739C149.757 46.9076 149.482 46.5336 149.192 46.1291L149.154 46.0757V46.007C149.245 45.3049 149.283 44.5646 149.207 43.8396C149.192 43.6488 149.146 43.4962 149.138 43.2596C149.138 43.0459 149.169 42.8322 149.238 42.6415C149.36 42.2522 149.543 41.9012 149.718 41.5501C150.062 40.8556 150.367 40.1154 150.321 39.3446C150.299 38.963 150.215 38.5585 150.062 38.2151C149.917 37.8793 149.612 37.574 149.314 37.5587L149.444 37.4977C149.215 37.7648 148.993 38.0243 148.757 38.299L148.574 38.5127L148.444 38.2532C148.261 37.8716 148.001 37.4672 147.666 37.2535C147.337 37.0093 146.986 37.2077 146.727 37.5816L146.757 37.5206C146.307 39.4438 145.842 41.428 145.361 43.458C145.124 44.4731 144.88 45.5033 144.636 46.5412C144.331 47.5715 144.247 48.6323 144.422 49.6702V49.7313L144.414 49.7847C144.353 49.945 144.3 50.1129 144.247 50.2808C144.147 50.6166 144.063 50.9524 144.018 51.2882C143.972 51.6163 143.972 51.9521 144.071 52.1811L144.109 52.265L144.071 52.349C143.827 52.9137 143.674 53.5548 143.705 54.1577C143.72 54.4553 143.796 54.7453 143.949 54.9895C144.117 55.2566 144.3 55.5009 144.514 55.7145C145.376 56.5846 146.658 56.8593 147.803 57.3935C148.94 57.9201 150.016 58.4925 151.069 59.0725C152.115 59.6754 153.137 60.202 154.084 60.9575L154.145 61.0033V61.0949C154.076 63.7736 154.015 66.3302 153.962 68.6732L153.779 68.5053C158.09 68.055 161.899 67.6505 165.005 67.33L164.898 67.4673C164.493 64.3918 164.173 61.942 163.952 60.2249C163.852 59.4007 163.776 58.7596 163.715 58.2941C163.692 58.088 163.677 57.9277 163.662 57.798C163.654 57.6835 163.646 57.6301 163.662 57.6301L163.646 57.6148Z" fill="#FF9A6C"/>
<path d="M146.941 51.8301C146.941 51.8301 146.712 51.8835 146.345 51.7156C145.987 51.5554 145.506 51.1356 145.307 50.4335C145.094 49.7314 145.178 48.8919 145.239 48.0066C145.307 47.1061 145.422 46.114 145.613 45.0837C145.987 43.0231 146.666 41.2221 147.337 40.0239C147.673 39.421 147.986 38.9631 148.223 38.6654C148.467 38.3678 148.604 38.2075 148.627 38.2304C148.681 38.2686 148.177 38.9478 147.582 40.1612C146.986 41.3671 146.368 43.1376 146.002 45.1676C145.811 46.1827 145.689 47.1595 145.605 48.0448C145.529 48.9377 145.422 49.739 145.582 50.3725C145.727 51.0059 146.124 51.4027 146.429 51.5935C146.742 51.7843 146.956 51.8072 146.948 51.8454L146.941 51.8301Z" fill="#FF9A6C"/>
<path d="M145.147 54.0357C145.101 54.1273 144.384 53.7686 143.972 52.9062C143.552 52.0438 143.75 51.2501 143.857 51.2806C143.972 51.2883 143.964 51.9904 144.33 52.7383C144.682 53.4862 145.216 53.9441 145.147 54.0433V54.0357Z" fill="#FF9A6C"/>
<path opacity="0.3" d="M168.515 74.252C168.515 74.252 173.339 85.0203 172.186 96.0405C171.476 102.856 169.988 109.61 169.988 109.61L163.509 103.382L168.515 74.2444V74.252Z" fill="black"/>
<path d="M138.011 69.4745C142.728 74.3359 152.794 88.6835 152.794 88.6835V66.9027L167.271 65.2161C167.271 65.2161 170.713 87.1495 169.851 96.1931C168.988 105.237 165.982 115.204 156.663 115.974C147.345 116.738 134.592 102.115 129.151 92.7131C123.71 83.3108 120.253 79.5789 120.535 74.0612" fill="#E0E0E0"/>
<path d="M120.535 74.0613C120.535 74.0613 120.55 74.2139 120.55 74.5192C120.55 74.6719 120.55 74.8626 120.55 75.0763C120.573 75.2977 120.596 75.5571 120.619 75.8471C120.68 76.4271 120.817 77.1369 121.046 77.9611C121.306 78.7701 121.649 79.7011 122.145 80.6933C123.122 82.6851 124.58 84.9899 126.251 87.6763C127.083 89.0194 127.976 90.4618 128.876 92.0111C129.777 93.5603 130.769 95.1629 131.914 96.7885C134.188 100.04 136.928 103.443 140.232 106.748C141.881 108.396 143.682 110.014 145.666 111.495C147.658 112.968 149.848 114.334 152.313 115.173C153.542 115.585 154.847 115.845 156.167 115.814L156.663 115.799L157.159 115.723L158.151 115.578C158.48 115.524 158.8 115.402 159.121 115.311C159.441 115.204 159.777 115.143 160.075 114.982L160.998 114.563C161.311 114.425 161.578 114.212 161.876 114.036C162.479 113.7 162.967 113.204 163.501 112.777C164.471 111.792 165.363 110.701 166.043 109.457C167.462 107 168.294 104.184 168.905 101.314C169.462 98.4217 169.82 95.4453 169.775 92.4232C169.714 87.661 169.286 82.9904 168.798 78.4495C168.302 73.9163 167.714 69.5052 167.073 65.262L167.279 65.4222C162.227 66.0023 157.388 66.567 152.802 67.0936L152.954 66.9181C152.939 75.084 152.924 82.418 152.916 88.6989V89.1263L152.664 88.7752C148.322 82.6088 144.704 77.7398 142.125 74.4582C140.835 72.8173 139.805 71.5734 139.088 70.7415C138.736 70.3218 138.446 70.0242 138.263 69.8105C138.08 69.6044 137.989 69.4899 137.989 69.4899C137.989 69.4899 138.095 69.5891 138.294 69.7876C138.485 69.9936 138.782 70.2836 139.149 70.6957C139.881 71.5123 140.934 72.741 142.247 74.3666C144.865 77.6253 148.52 82.4714 152.893 88.6226L152.641 88.6989C152.634 82.418 152.619 75.0763 152.603 66.9181V66.7654L152.756 66.7502C157.335 66.2083 162.181 65.6436 167.226 65.0483L167.409 65.0254L167.439 65.2086C168.088 69.4594 168.683 73.8705 169.179 78.4114C169.675 82.9522 170.103 87.6305 170.164 92.4232C170.202 95.4758 169.843 98.4827 169.278 101.398C168.66 104.298 167.821 107.145 166.363 109.656C165.669 110.93 164.745 112.052 163.746 113.059C163.188 113.51 162.685 114.013 162.059 114.364C161.754 114.547 161.479 114.769 161.151 114.906L160.189 115.341C159.876 115.509 159.533 115.57 159.197 115.677C158.861 115.769 158.533 115.891 158.19 115.952L157.167 116.104L156.656 116.181L156.137 116.196C154.763 116.234 153.412 115.959 152.153 115.532C149.635 114.662 147.414 113.273 145.414 111.785C143.415 110.281 141.606 108.648 139.95 106.984C136.645 103.657 133.906 100.23 131.639 96.9564C130.502 95.3232 129.502 93.6977 128.609 92.1484C127.716 90.5992 126.831 89.1568 126.014 87.806C124.366 85.112 122.924 82.792 121.962 80.7772C121.474 79.7698 121.145 78.8311 120.894 78.0145C120.68 77.1827 120.55 76.4653 120.504 75.8777C120.489 75.5877 120.466 75.3282 120.459 75.1069C120.459 74.8855 120.466 74.7024 120.474 74.5497C120.481 74.2521 120.497 74.0995 120.497 74.0995L120.535 74.0613Z" fill="#263238"/>
<path d="M155.709 102.779C155.671 102.802 155.229 102.1 154.679 100.887C154.13 99.6732 153.504 97.9179 153.107 95.9184C152.71 93.9113 152.619 92.0568 152.664 90.7212C152.71 89.3857 152.847 88.5691 152.893 88.5767C152.954 88.5767 152.916 89.4009 152.939 90.7212C152.97 92.0415 153.099 93.8655 153.489 95.8345C153.885 97.8111 154.45 99.5435 154.931 100.772C155.404 102.001 155.763 102.749 155.702 102.772L155.709 102.779Z" fill="#263238"/>
<path d="M182.619 106.114C182.619 106.114 182.558 105.901 182.504 105.488C182.443 105.023 182.367 104.435 182.268 103.71C182.084 102.115 181.825 99.9325 181.52 97.3225V97.2844L181.527 97.2462C182.519 94.4683 183.031 90.8661 182.436 87.0884C182.069 84.4707 181.344 82.0439 180.558 79.8917C179.772 77.7396 178.933 75.8393 178.208 74.2595C177.483 72.7256 176.895 71.4663 176.452 70.5276C176.261 70.1155 176.109 69.7797 175.979 69.505C175.872 69.2684 175.826 69.1463 175.842 69.1387C175.857 69.1387 175.926 69.2455 176.055 69.4668C176.2 69.7339 176.376 70.0545 176.59 70.4513C177.048 71.3137 177.696 72.5653 178.459 74.1298C179.215 75.7019 180.085 77.5946 180.902 79.7544C181.71 81.9141 182.458 84.3639 182.832 87.0197C183.435 90.8508 182.886 94.5369 181.84 97.3454V97.2691C182.1 99.8791 182.306 102.069 182.451 103.672C182.512 104.405 182.558 104.992 182.596 105.458C182.626 105.87 182.626 106.091 182.611 106.091L182.619 106.114Z" fill="#263238"/>
<path d="M138.462 36.3682C138.111 37.9633 139.118 39.5354 140.705 39.8864C142.3 40.2375 143.873 39.2301 144.224 37.6427C144.575 36.0477 143.567 34.4756 141.98 34.1245C140.385 33.7735 138.813 34.7808 138.462 36.3682Z" fill="#455A64"/>
<path opacity="0.3" d="M128.556 58.9048C128.556 58.9048 129.899 62.4535 130.151 69.1541C130.403 75.8471 127.014 93.629 127.014 93.629L123.755 86.7757L126.594 60.4311L128.548 58.9124L128.556 58.9048Z" fill="black"/>
<path d="M179.696 104.763L187.305 97.1165L200.744 95.6741L206.674 99.406L205.041 101.581L179.696 104.763Z" fill="#E0E0E0"/>
<path d="M209.375 96.9106L226.585 85.0509L225.432 84.2419L219.564 85.0509L209.375 92.1178V96.9106Z" fill="#E0E0E0"/>
<path d="M152.496 114.753L155.389 108.77L183.328 96.5977C183.328 96.5977 195.379 91.7363 200.652 93.5221C200.652 93.5221 221.739 83.2269 223.532 82.8301L228.271 83.929C228.271 83.929 213.794 90.0649 212.092 91.4386C210.352 92.8429 209.467 94.3997 209.864 98.2919L206.071 100.787C206.071 100.787 201.545 97.5363 195.325 98.4216C189.716 99.2153 152.489 114.761 152.489 114.761L152.496 114.753Z" fill="white"/>
<path d="M152.496 114.754C152.557 114.723 152.626 114.692 152.748 114.631C152.924 114.555 153.168 114.448 153.481 114.311C154.152 114.028 155.122 113.616 156.373 113.082C158.899 112.021 162.601 110.48 167.279 108.579C171.957 106.687 177.612 104.397 184.092 101.955C185.71 101.337 187.388 100.734 189.113 100.116C190.846 99.5206 192.616 98.8872 194.509 98.4293C196.409 97.9867 198.439 98.0096 200.431 98.3759C202.423 98.7651 204.4 99.4749 206.185 100.643H205.972C207.155 99.8564 208.452 99.0017 209.765 98.1393L209.681 98.3148C209.581 97.3609 209.543 96.3764 209.65 95.3843C209.757 94.3998 210.078 93.3924 210.703 92.5682C211.314 91.7516 212.146 91.08 213.054 90.6221C213.947 90.1413 214.863 89.691 215.786 89.256C219.487 87.5084 223.341 85.8294 227.272 84.1352C227.585 84.0054 227.89 83.8681 228.195 83.7383L228.226 84.1123C226.631 83.7383 225.051 83.3796 223.486 83.0133H223.57C222.571 83.3415 221.54 83.8299 220.541 84.2649C219.541 84.7228 218.549 85.1731 217.564 85.631C215.603 86.5544 213.664 87.4702 211.756 88.3708C207.956 90.2024 204.27 91.9805 200.729 93.6824L200.66 93.7129L200.584 93.69C199.317 93.2779 197.951 93.2856 196.646 93.3542C195.325 93.4229 194.036 93.6671 192.769 93.9037C190.243 94.4379 187.839 95.1553 185.549 95.949C184.397 96.3459 183.298 96.758 182.229 97.2464C181.153 97.7119 180.1 98.1698 179.07 98.6125C177.009 99.5054 175.025 100.368 173.14 101.184C165.6 104.435 159.54 107.053 155.412 108.839L155.45 108.801C153.603 112.51 152.718 114.288 152.489 114.754C152.71 114.28 153.557 112.479 155.312 108.732L155.328 108.709L155.351 108.694C159.472 106.885 165.516 104.222 173.033 100.917C174.918 100.093 176.895 99.223 178.955 98.3225C179.986 97.8722 181.039 97.4143 182.107 96.9411C183.168 96.4527 184.298 96.0253 185.442 95.6285C187.74 94.8272 190.159 94.1022 192.7 93.5527C193.975 93.3085 195.28 93.0566 196.623 92.9879C197.958 92.9192 199.355 92.904 200.706 93.339H200.568C204.11 91.6371 207.796 89.8589 211.596 88.0197C213.504 87.1192 215.443 86.2034 217.404 85.2723C218.388 84.822 219.388 84.3641 220.388 83.9062C221.403 83.4636 222.372 82.9904 223.494 82.6317L223.532 82.6165L223.586 82.6317C225.15 82.9904 226.73 83.3567 228.325 83.7307L228.92 83.8681L228.363 84.1046C228.058 84.2344 227.753 84.3641 227.44 84.5015C223.517 86.1881 219.655 87.8671 215.969 89.6071C215.046 90.0421 214.138 90.4924 213.26 90.9579C212.817 91.2021 212.398 91.4311 212.031 91.7516C211.657 92.0721 211.314 92.4079 211.031 92.7971C210.451 93.5603 210.154 94.4837 210.047 95.4301C209.94 96.3764 209.978 97.3304 210.07 98.2691L210.085 98.3835L209.986 98.4446C208.673 99.307 207.376 100.162 206.193 100.933L206.094 101.001L205.979 100.933C202.522 98.7346 198.287 97.9409 194.585 98.7575C192.738 99.2001 190.96 99.8336 189.228 100.414C187.503 101.024 185.832 101.627 184.214 102.238C177.734 104.657 172.072 106.916 167.378 108.778C162.708 110.663 158.991 112.151 156.434 113.181C155.175 113.693 154.198 114.082 153.519 114.357C153.191 114.486 152.939 114.586 152.756 114.654C152.634 114.7 152.565 114.723 152.504 114.746L152.496 114.754Z" fill="#263238"/>
<path d="M150.604 115.387L170.935 113.639L205.453 101.436L210.001 98.597L209.887 97.9941L205.819 100.49C205.819 100.49 205.819 99.5052 204.445 99.4747C203.82 99.4594 178.94 102.443 178.94 102.443L150.382 114.784L150.619 115.387H150.604Z" fill="#455A64"/>
<path d="M229.714 82.189L230.401 83.0284L209.849 97.3684C209.81 96.7579 209.81 96.1168 209.872 95.6055L229.714 82.189Z" fill="#455A64"/>
<path d="M207.521 97.788C207.429 97.8796 205.941 96.1472 203.514 94.8498C201.095 93.5143 198.813 93.3235 198.836 93.209C198.836 93.1632 199.408 93.1327 200.317 93.293C201.225 93.4456 202.454 93.8348 203.697 94.4988C204.941 95.1704 205.941 95.9793 206.582 96.628C207.231 97.2767 207.551 97.7499 207.513 97.7804L207.521 97.788Z" fill="#263238"/>
<path d="M209.375 89.3628C209.414 89.4163 209.009 89.7521 208.49 90.4007C207.971 91.0494 207.368 92.0492 207.071 93.2779C206.765 94.499 206.956 95.6666 207.162 96.4679C207.376 97.2769 207.582 97.7653 207.521 97.7882C207.483 97.8111 207.177 97.3609 206.887 96.5443C206.605 95.7429 206.353 94.499 206.681 93.1787C207.002 91.8737 207.681 90.8358 208.276 90.21C208.872 89.5765 209.353 89.3171 209.375 89.3552V89.3628Z" fill="#263238"/>
<g opacity="0.3">
<path d="M150.367 127.529C145.658 129.452 139.255 131.765 134.333 130.498C128.769 129.071 125.709 123.27 122.718 118.371C120.336 112.945 118.444 106.32 116.795 99.0933C117.085 105.534 118.787 112.098 121.054 118.134C123.328 124.171 126.732 130.307 132.601 132.978C138.767 135.786 144.476 132.2 150.825 129.834C157.175 127.476 161.906 124.217 167.928 121.111C174.315 117.814 181.421 115.059 188.045 113.609C176.59 114.349 163.043 122.339 150.367 127.521V127.529Z" fill="black"/>
</g>
<path d="M274.069 155.293C274.069 155.293 290.722 153.957 292.736 159.658C294.751 165.367 292.393 176.288 289.707 177.967C287.02 179.646 221.716 182.164 220.373 178.47C219.029 174.777 214.58 159.414 221.006 157.529C227.424 155.644 274.077 155.293 274.077 155.293H274.069Z" fill="#F08390"/>
<path d="M126.137 210.814C123.015 210.814 120.268 208.738 119.421 205.731C113.415 184.461 90.321 102.818 84.3683 83.7993C78.4538 64.8956 73.5771 41.5198 71.9363 33.2775C71.5623 31.3925 72.3713 29.477 73.9816 28.4314C82.3001 23.0434 108.141 8.51271 120.245 27.073C134.791 49.3728 120.245 79.9148 125.091 96.3993C129.937 112.884 134.302 125.003 150.787 116.761C167.271 108.518 199.851 97.6127 208.093 100.52C216.336 103.428 216.717 111.434 218.656 133.733C220.144 150.859 224.204 187.132 226.013 203.052C226.486 207.189 223.242 210.814 219.075 210.814H126.137Z" fill="#F08390"/>
<path d="M216 186.995C216 186.995 215.977 186.919 215.946 186.766C215.916 186.59 215.878 186.369 215.832 186.087C215.733 185.492 215.618 184.606 215.466 183.461C215.183 181.149 214.771 177.86 214.267 173.8C213.313 165.611 212.008 154.339 210.566 141.892C210.207 138.778 209.856 135.733 209.52 132.795C209.345 131.329 209.177 129.887 209.009 128.468C208.918 127.765 208.834 127.063 208.75 126.376C208.658 125.69 208.574 125.003 208.383 124.377C208.009 123.102 206.834 122.362 205.842 121.546C204.842 120.721 203.949 119.813 203.201 118.844C201.706 116.913 200.744 114.784 200.378 112.731C199.988 110.686 200.187 108.755 200.691 107.19C201.179 105.611 201.927 104.374 202.66 103.481C203.4 102.588 204.11 102.024 204.621 101.688C204.865 101.512 205.079 101.413 205.216 101.329C205.354 101.253 205.422 101.215 205.43 101.222C205.483 101.283 204.232 101.787 202.789 103.573C202.08 104.466 201.37 105.695 200.912 107.244C200.446 108.785 200.263 110.67 200.668 112.67C201.049 114.669 202.003 116.745 203.476 118.63C204.209 119.577 205.086 120.454 206.079 121.263C206.567 121.668 207.109 122.049 207.605 122.515C208.093 122.973 208.544 123.568 208.75 124.255C208.963 124.934 209.04 125.621 209.139 126.308C209.23 127.002 209.314 127.697 209.406 128.406C209.574 129.818 209.749 131.261 209.925 132.734C210.268 135.672 210.619 138.717 210.986 141.831C212.382 154.286 213.657 165.558 214.573 173.754C215.023 177.822 215.389 181.119 215.641 183.431C215.763 184.553 215.862 185.43 215.931 186.064C215.962 186.346 215.984 186.575 216.007 186.751C216.023 186.903 216.023 186.987 216.023 186.987L216 186.995Z" fill="#263238"/>
<path d="M218.594 210.394C218.594 210.394 218.793 210.31 219.167 210.188C219.365 210.127 219.602 210.05 219.869 209.967C220.144 209.875 220.434 209.707 220.777 209.554C221.128 209.417 221.472 209.173 221.846 208.913C222.242 208.684 222.578 208.31 222.975 207.959C223.692 207.181 224.379 206.158 224.822 204.891C225.272 203.632 225.532 202.159 225.509 200.587C225.501 199.809 225.364 198.992 225.28 198.145C225.181 197.298 225.089 196.428 224.982 195.543C224.585 191.971 224.15 188.056 223.692 183.942C222.815 175.723 222.013 168.282 221.433 162.848C221.166 160.177 220.953 158.002 220.792 156.453C220.731 155.728 220.678 155.148 220.64 154.713C220.609 154.316 220.602 154.103 220.617 154.103C220.632 154.103 220.67 154.309 220.724 154.705C220.777 155.14 220.853 155.713 220.953 156.438C221.136 157.987 221.395 160.154 221.716 162.818C222.326 168.244 223.166 175.685 224.089 183.897C224.54 188.01 224.959 191.933 225.349 195.504C225.44 196.397 225.539 197.267 225.623 198.115C225.7 198.962 225.837 199.778 225.837 200.595C225.845 202.213 225.57 203.716 225.089 204.998C224.608 206.288 223.891 207.341 223.135 208.127C222.716 208.478 222.365 208.86 221.952 209.081C221.556 209.333 221.205 209.577 220.846 209.707C220.495 209.852 220.19 210.012 219.907 210.096C219.632 210.165 219.396 210.234 219.19 210.287C218.801 210.386 218.594 210.432 218.594 210.417V210.394Z" fill="#263238"/>
<path d="M198.355 114.181C198.355 114.181 198.164 114.15 197.798 114.067C197.432 113.998 196.898 113.83 196.173 113.723C194.738 113.448 192.578 113.204 189.808 113.296C187.037 113.41 183.649 113.899 179.871 115.043C177.986 115.608 175.994 116.318 173.934 117.188C171.866 118.043 169.752 119.111 167.5 120.172C163.013 122.316 158.083 124.659 152.641 126.819C149.917 127.888 147.101 128.994 144.109 129.925C142.613 130.375 141.064 130.765 139.454 130.955C137.851 131.139 136.18 131.108 134.554 130.696C132.921 130.292 131.448 129.36 130.128 128.315C128.792 127.262 127.556 126.064 126.434 124.743C125.32 123.415 124.305 121.981 123.473 120.408C123.053 119.63 122.687 118.813 122.366 117.982C122.038 117.157 121.703 116.333 121.39 115.494C120.108 112.151 118.909 108.694 118.001 105.099C117.085 101.512 116.467 97.7805 116.254 93.9799C116.002 90.1793 116.192 86.4093 116.421 82.7232C116.658 79.0294 117.055 75.3967 117.513 71.848C117.978 68.2993 118.482 64.8192 118.993 61.4079C119.505 58.0041 119.978 54.6691 120.108 51.3951C120.245 48.1211 120.024 44.9158 119.283 41.9013C118.543 38.8944 117.352 36.0935 115.773 33.6514C114.979 32.438 114.094 31.3085 113.125 30.2935C112.155 29.2861 111.087 28.4084 109.98 27.6453C107.744 26.1418 105.264 25.226 102.837 24.8139C97.9374 23.9668 93.389 24.791 89.6418 25.8976C85.8717 27.0576 82.7809 28.5 80.3006 29.7592C77.8279 31.0261 75.9124 32.0335 74.5921 32.6669C73.9358 32.9874 73.4321 33.224 73.0887 33.3767C72.7452 33.5293 72.5697 33.6056 72.5697 33.6056C72.5697 33.6056 72.7376 33.5064 73.0734 33.3385C73.4168 33.163 73.9129 32.9188 74.5616 32.5906C75.8666 31.9343 77.7669 30.904 80.2396 29.6219C82.7046 28.3397 85.8031 26.8745 89.5807 25.6839C93.3508 24.5468 97.9298 23.692 102.89 24.5315C105.355 24.9436 107.882 25.8671 110.156 27.3858C111.285 28.1566 112.377 29.0419 113.361 30.0645C114.346 31.0948 115.246 32.2319 116.055 33.4606C117.658 35.9333 118.871 38.7646 119.627 41.8097C120.375 44.8547 120.604 48.1058 120.474 51.4027C120.352 54.7072 119.879 58.0575 119.375 61.4613C118.864 64.865 118.367 68.3451 117.902 71.8938C117.444 75.4425 117.047 79.06 116.818 82.7461C116.589 86.4322 116.399 90.1793 116.65 93.957C117.062 101.528 119.176 108.709 121.756 115.356C122.069 116.196 122.405 117.02 122.733 117.844C123.053 118.668 123.404 119.462 123.824 120.233C124.641 121.775 125.633 123.194 126.739 124.499C127.846 125.804 129.059 126.987 130.372 128.025C131.685 129.063 133.089 129.956 134.661 130.345C136.226 130.749 137.859 130.78 139.431 130.604C141.011 130.421 142.537 130.04 144.025 129.597C146.986 128.681 149.81 127.575 152.535 126.514C157.968 124.369 162.898 122.042 167.393 119.92C169.645 118.867 171.766 117.806 173.85 116.959C175.926 116.097 177.925 115.394 179.825 114.837C183.626 113.708 187.03 113.235 189.815 113.151C192.601 113.082 194.768 113.349 196.203 113.654C197.638 113.952 198.37 114.189 198.37 114.189L198.355 114.181Z" fill="#263238"/>
<path d="M279.625 179.165C279.625 179.165 279.427 179.203 279.06 179.234C278.648 179.264 278.106 179.302 277.427 179.348C275.962 179.432 273.924 179.547 271.413 179.684C266.338 179.943 259.325 180.272 251.563 180.447C243.802 180.645 236.773 180.432 231.698 180.165C229.195 180.035 227.15 179.928 225.684 179.852C225.005 179.806 224.463 179.775 224.051 179.745C223.677 179.714 223.479 179.699 223.486 179.684C223.486 179.669 223.685 179.661 224.059 179.669C224.471 179.669 225.013 179.684 225.692 179.699C227.157 179.745 229.203 179.806 231.706 179.89C236.781 180.081 243.802 180.249 251.548 180.05C259.294 179.875 266.315 179.585 271.391 179.402C273.901 179.318 275.939 179.241 277.404 179.188C278.084 179.173 278.625 179.157 279.038 179.15C279.411 179.15 279.61 179.15 279.61 179.165H279.625Z" fill="#263238"/>
<path d="M48.9038 89.6677H46.767V110.311H48.9038V89.6677Z" fill="#263238"/>
<path d="M61.0078 115.783H34.6555V164.787H61.0078V115.783Z" fill="#3292A4"/>
<path d="M56.0777 108.923H40.0283V115.784H56.0777V108.923Z" fill="#3292A4"/>
<path d="M75.6529 73.6489H17.881V104.656H75.6529V73.6489Z" fill="#E0E0E0"/>
<path d="M75.6529 104.656C75.6529 104.656 75.6453 104.458 75.6377 104.092C75.6377 103.71 75.63 103.168 75.6224 102.466C75.6148 101.031 75.5995 98.9403 75.5843 96.2616C75.569 90.8889 75.5385 83.158 75.5079 73.6413L75.6606 73.7939C60.3438 73.8092 40.0664 73.8245 17.8963 73.8397L18.0947 73.6413C18.0947 84.5928 18.0871 95.0863 18.0795 104.649L17.8963 104.466C34.7623 104.504 49.1786 104.534 59.3974 104.557C64.503 104.58 68.5631 104.595 71.3563 104.611C72.7376 104.618 73.8137 104.626 74.554 104.634C74.9127 104.634 75.1798 104.641 75.3858 104.641C75.5766 104.641 75.6758 104.649 75.6758 104.649C75.6758 104.649 75.5919 104.649 75.4087 104.656C75.2103 104.656 74.9432 104.656 74.5998 104.664C73.8671 104.664 72.8063 104.679 71.4403 104.687C68.6547 104.702 64.6099 104.718 59.5272 104.74C49.2778 104.763 34.8234 104.794 17.9039 104.832H17.7208V104.649C17.7208 95.0787 17.7131 84.5928 17.7055 73.6413V73.4429H17.9039C40.074 73.4581 60.3514 73.481 75.6682 73.4887H75.8208V73.6413C75.7903 83.1962 75.7598 90.9576 75.7369 96.3532C75.7216 99.0167 75.7064 101.092 75.6987 102.52C75.6987 103.214 75.6835 103.741 75.6835 104.115C75.6835 104.473 75.6682 104.649 75.6682 104.649L75.6529 104.656Z" fill="#263238"/>
<path d="M60.8932 115.783C60.8932 115.898 55.0474 115.989 47.8354 115.989C40.6235 115.989 34.7776 115.898 34.7776 115.783C34.7776 115.669 40.6235 115.577 47.8354 115.577C55.0474 115.577 60.8932 115.669 60.8932 115.783Z" fill="#263238"/>
<path d="M86.7418 164.634H6.33429V191.223H86.7418V164.634Z" fill="#A48653"/>
<path d="M9.24957 247.369L15.0573 191.223H22.8492L13.7828 247.4L9.24957 247.369Z" fill="#7B653F"/>
<path d="M89.2832 247.354L80.5601 191.223H72.7682L84.7576 247.384L89.2832 247.354Z" fill="#7B653F"/>
<path d="M82.1551 220.429H14.5002V226.481H82.1551V220.429Z" fill="#7B653F"/>
<path d="M51.9031 166.702C51.9031 169.579 54.2232 171.907 57.0927 171.907C59.9622 171.907 62.2746 169.579 62.2746 166.702H51.9031Z" fill="#263238"/>
<path d="M24.8564 191.162C24.7495 191.162 24.658 185.232 24.658 177.921C24.658 170.61 24.7495 164.68 24.8564 164.68C24.9632 164.68 25.0548 170.61 25.0548 177.921C25.0548 185.232 24.9632 191.162 24.8564 191.162Z" fill="#263238"/>
<path d="M86.5205 191.162C86.5205 191.269 68.5783 191.36 46.4541 191.36C24.3298 191.36 6.3877 191.269 6.3877 191.162C6.3877 191.055 24.3222 190.963 46.4541 190.963C68.586 190.963 86.5205 191.055 86.5205 191.162Z" fill="#263238"/>
<path d="M46.2709 104.099C46.1641 104.099 46.0725 97.4141 46.0725 89.1642C46.0725 80.9144 46.1641 74.229 46.2709 74.229C46.3778 74.229 46.4694 80.9144 46.4694 89.1642C46.4694 97.4141 46.3778 104.099 46.2709 104.099Z" fill="#263238"/>
<path d="M83.8952 188.43C83.8952 188.43 83.8876 188.292 83.8799 188.033C83.8799 187.766 83.8723 187.384 83.8647 186.903C83.857 185.896 83.8418 184.446 83.8341 182.576C83.8189 178.821 83.7883 173.41 83.7578 166.702L83.8952 166.84C69.975 166.855 50.3844 166.878 28.6952 166.901C28.5196 167.076 28.9317 166.656 28.8936 166.702V169.534C28.8936 170.472 28.8936 171.411 28.8936 172.342C28.8936 174.204 28.8936 176.051 28.8936 177.867C28.8936 181.5 28.8936 185.034 28.8936 188.422L28.7028 188.231C44.6607 188.269 58.4359 188.3 68.235 188.323C73.1345 188.346 77.0419 188.361 79.7359 188.376C81.0715 188.384 82.1017 188.392 82.8267 188.399C83.1702 188.399 83.4297 188.407 83.6281 188.414C83.8112 188.414 83.9028 188.422 83.9104 188.43C83.9104 188.43 83.8265 188.437 83.651 188.445C83.4602 188.445 83.2007 188.445 82.8725 188.46C82.1628 188.46 81.1401 188.475 79.8275 188.483C77.1411 188.498 73.249 188.514 68.3723 188.537C58.5351 188.559 44.7217 188.59 28.7104 188.628H28.5196V188.437C28.5196 185.041 28.5196 181.515 28.5196 177.883C28.5196 176.066 28.5196 174.219 28.5196 172.357C28.5196 171.426 28.5196 170.488 28.5196 169.549V168.137V167.427V166.74V166.725C28.4738 166.763 28.9012 166.344 28.7257 166.527C50.415 166.55 70.0131 166.573 83.9257 166.588H84.0631V166.725C84.0326 173.472 84.0097 178.913 83.9868 182.683C83.9715 184.538 83.9639 185.98 83.9562 186.98C83.9562 187.453 83.9486 187.819 83.941 188.086C83.941 188.33 83.9257 188.453 83.9257 188.453L83.8952 188.43Z" fill="#263238"/>
</g>
<defs>
<clipPath id="clip0_528_3136">
<rect width="338" height="247.374" fill="white" transform="translate(0 0.766357)"/>
</clipPath>
</defs>
</svg>
