<svg width="38" height="36" viewBox="0 0 38 36" fill="none" xmlns="http://www.w3.org/2000/svg">
<path fill-rule="evenodd" clip-rule="evenodd" d="M19.7778 13.7778C19.7778 13.3482 19.4296 13 19 13C18.5704 13 18.2222 13.3482 18.2222 13.7778V19.2222H12.7778C12.3482 19.2222 12 19.5704 12 20C12 20.4296 12.3482 20.7778 12.7778 20.7778H18.2222V26.2222C18.2222 26.6518 18.5704 27 19 27C19.4296 27 19.7778 26.6518 19.7778 26.2222V20.7778H25.2222C25.6518 20.7778 26 20.4296 26 20C26 19.5704 25.6518 19.2222 25.2222 19.2222H19.7778V13.7778Z" fill="white"/>
<path d="M32.7817 13.3652C32.7551 13.3586 32.7319 13.3552 32.7352 13.3619C32.7352 13.3619 32.7153 13.3387 32.6789 13.2626C29.6767 7.06347 22.8332 3.64122 16.046 4.93863C15.8769 4.96842 15.6347 4.94194 15.4688 4.87244C13.9263 4.20718 12.7155 3.03885 11.7701 1.29463C11.4483 0.70219 11.0171 0.0832727 10.2674 0.00714921C9.51101 -0.0689743 8.94708 0.477129 8.53905 0.963658C5.90846 4.08803 5.19524 7.56324 6.416 11.2602C6.41268 11.2867 6.40273 11.3297 6.38946 11.3595C6.26672 11.6044 6.11744 11.8493 5.95821 12.1042C5.75254 12.4385 5.54356 12.7827 5.36442 13.1699C5.29476 13.3188 5.28481 13.3453 5.05923 13.4016C2.04383 14.1396 -0.032781 16.8238 0.000391759 19.9217C0.0335645 23.0296 2.16989 25.6674 5.19192 26.3393C5.245 26.3525 5.2649 26.3591 5.26159 26.3525C5.26822 26.3591 5.28813 26.3823 5.34452 26.4915C8.10449 31.8698 12.6724 34.7592 18.9221 35.0769H18.9686H19.0183C25.2913 34.7824 29.8824 31.893 32.6656 26.4882L32.6921 26.4386C32.712 26.4022 32.7253 26.3724 32.7352 26.3492C35.8104 25.6707 37.9732 23.0262 37.9998 19.8986C38.0263 16.7775 35.88 14.0867 32.7817 13.3586V13.3652ZM8.32011 10.6876C7.30171 7.61619 7.86565 4.86251 10.0351 2.26769C11.1995 4.40246 12.7188 5.85211 14.6793 6.69609C15.2101 6.92446 15.8603 6.99727 16.4176 6.89136C22.4185 5.7462 28.2337 8.65213 30.8842 14.1297C31.196 14.7718 31.6538 15.1458 32.3239 15.3047C34.51 15.8177 36.026 17.7042 36.0061 19.8952C35.9862 22.1028 34.4503 23.9662 32.2642 24.4296C31.3918 24.6149 31.0799 25.2206 30.9141 25.5482L30.8908 25.5913C28.4294 30.3705 24.5316 32.8263 18.9686 33.101C13.4287 32.8065 9.55082 30.3506 7.10931 25.5979C6.86383 25.1213 6.49561 24.605 5.61985 24.4097C3.50343 23.9397 2.01066 22.0896 1.98744 19.9085C1.96422 17.734 3.4205 15.8541 5.53029 15.3345C6.31648 15.1392 6.83397 14.7188 7.16238 14.0106C7.29176 13.7292 7.46757 13.4446 7.65002 13.1434C7.82252 12.8621 7.99834 12.5708 8.15757 12.2564C8.35329 11.8692 8.49593 11.2536 8.31348 10.6975L8.32011 10.6876Z" fill="white"/>
</svg>
