<svg width="33" height="33" viewBox="0 0 33 33" fill="none" xmlns="http://www.w3.org/2000/svg">
<path d="M29.6797 16.0739C28.8903 9.55879 25.3339 5.53263 18.7944 3.87458C19.3313 3.52442 19.7058 3.15719 20.1499 3.02664C20.6025 2.89366 20.9612 2.78507 20.8466 2.26167C20.7233 1.70167 20.2548 1.66141 19.8339 1.84563C19.2373 2.1055 18.6797 2.45444 18.0709 2.78507C17.9624 2.60939 17.8196 2.34463 17.6451 2.10184C17.0522 1.27831 16.3214 0.678046 15.2404 0.652425C14.8207 0.642665 14.5121 0.852514 14.5657 1.23805C14.5987 1.47108 14.9159 1.79317 15.1575 1.84685C16.1445 2.06768 16.9021 2.79361 17.0449 3.78063C10.2614 3.53052 4.20751 8.98903 3.8049 16.0287C3.65483 16.0568 3.49989 16.0946 3.34128 16.1153C1.9431 16.302 1.0183 17.1316 0.682789 18.5054C0.0264024 21.1932 1.78694 23.8358 4.66747 24.3897C5.19087 24.4898 5.39096 24.7387 5.61301 25.1547C7.95551 29.5505 11.6401 31.9723 16.6081 31.9626C21.6518 31.9528 25.3644 29.4859 27.6776 24.9827C27.8484 24.6508 28.0229 24.4751 28.4157 24.3934C30.4105 23.9761 31.744 22.7976 32.3382 20.8235C32.8726 19.0435 32.3126 16.4887 29.6785 16.0714L29.6797 16.0739ZM9.60989 7.47495C13.4567 4.59441 17.6756 4.14543 21.9873 6.31224C25.9476 8.30214 27.9863 11.6756 28.4145 16.158C26.0025 16.1141 23.8296 15.5834 21.886 14.3572C20.9173 13.746 20.0596 12.9505 19.1909 12.1917C18.6785 11.7451 18.3894 11.7207 17.9392 12.2697C15.3563 15.4163 11.978 16.8706 7.96039 16.8657C7.02217 16.8645 6.08395 16.5985 5.05423 16.4411C5.2226 12.687 6.69031 9.6625 9.61111 7.47617L9.60989 7.47495ZM31.2975 19.7706C31.1401 21.6312 29.7419 23.0708 27.8789 23.2307C27.3092 23.2795 26.9932 23.4698 26.7577 24.0359C25.0496 28.117 20.9539 30.8011 16.541 30.7877C12.1879 30.7742 8.11045 28.0462 6.43167 23.97C6.184 23.3685 5.77528 23.2966 5.24822 23.2441C3.21805 23.0391 1.77839 21.4726 1.78815 19.5132C1.7967 17.8527 2.90328 16.9767 4.48935 17.4757C8.62165 18.775 12.4331 18.0125 15.9871 15.7127C16.9473 15.0905 17.7708 14.2584 18.6261 13.5496C19.513 14.1828 20.3915 14.9124 21.3626 15.4834C23.7857 16.9084 26.4222 17.5343 29.2381 17.333C30.4825 17.2439 31.4195 18.3432 31.2987 19.7731L31.2975 19.7706Z" fill="white"/>
<path d="M19.1169 26.154C17.8041 27.0897 15.6275 27.0995 14.3562 26.1747C13.9695 25.8929 13.5986 25.7038 13.2655 26.1771C12.9361 26.6444 13.3021 26.9311 13.6352 27.1727C14.5563 27.8413 15.6226 28.0414 16.7268 28.0938C17.8407 28.0365 18.9009 27.8291 19.8269 27.1642C20.1869 26.9055 20.476 26.5932 20.1661 26.1576C19.8574 25.7245 19.4914 25.888 19.1169 26.154Z" fill="white"/>
<path d="M11.8048 20.0536C11.7841 19.4936 11.4327 19.1166 10.9203 19.0983C10.4274 19.0812 10.0175 19.4668 9.98575 20.0158C9.96257 20.4184 9.96135 20.8259 9.98575 21.2285C10.0187 21.7995 10.3823 22.1387 10.9142 22.135C11.4462 22.1326 11.7817 21.7848 11.8048 21.2053C11.8122 21.0235 11.8048 20.8417 11.8061 20.66C11.8061 20.4574 11.8122 20.2549 11.8061 20.0536H11.8048Z" fill="white"/>
<path d="M22.293 19.0986C21.805 19.1047 21.4402 19.5024 21.4195 20.0575C21.4121 20.2393 21.4195 20.4211 21.4182 20.6029C21.4182 20.8042 21.4109 21.0067 21.4182 21.208C21.4414 21.7754 21.7416 22.1121 22.2381 22.1377C22.8006 22.167 23.1849 21.829 23.2251 21.23C23.252 20.8286 23.2508 20.4211 23.2251 20.0197C23.1922 19.4792 22.781 19.0913 22.2906 19.0974L22.293 19.0986Z" fill="white"/>
<path d="M29.6797 16.0739C28.8903 9.55879 25.3339 5.53263 18.7944 3.87458C19.3313 3.52442 19.7058 3.15719 20.1499 3.02664C20.6025 2.89366 20.9612 2.78507 20.8466 2.26167C20.7233 1.70167 20.2548 1.66141 19.8339 1.84563C19.2373 2.1055 18.6797 2.45444 18.0709 2.78507C17.9624 2.60939 17.8196 2.34463 17.6451 2.10184C17.0522 1.27831 16.3214 0.678046 15.2404 0.652425C14.8207 0.642665 14.5121 0.852514 14.5657 1.23805C14.5987 1.47108 14.9159 1.79317 15.1575 1.84685C16.1445 2.06768 16.9021 2.79361 17.0449 3.78063C10.2614 3.53052 4.20751 8.98903 3.8049 16.0287C3.65483 16.0568 3.49989 16.0946 3.34128 16.1153C1.9431 16.302 1.0183 17.1316 0.682789 18.5054C0.0264024 21.1932 1.78694 23.8358 4.66747 24.3897C5.19087 24.4898 5.39096 24.7387 5.61301 25.1547C7.95551 29.5505 11.6401 31.9723 16.6081 31.9626C21.6518 31.9528 25.3644 29.4859 27.6776 24.9827C27.8484 24.6508 28.0229 24.4751 28.4157 24.3934C30.4105 23.9761 31.744 22.7976 32.3382 20.8235C32.8726 19.0435 32.3126 16.4887 29.6785 16.0714L29.6797 16.0739ZM9.60989 7.47495C13.4567 4.59441 17.6756 4.14543 21.9873 6.31224C25.9476 8.30214 27.9863 11.6756 28.4145 16.158C26.0025 16.1141 23.8296 15.5834 21.886 14.3572C20.9173 13.746 20.0596 12.9505 19.1909 12.1917C18.6785 11.7451 18.3894 11.7207 17.9392 12.2697C15.3563 15.4163 11.978 16.8706 7.96039 16.8657C7.02217 16.8645 6.08395 16.5985 5.05423 16.4411C5.2226 12.687 6.69031 9.6625 9.61111 7.47617L9.60989 7.47495ZM31.2975 19.7706C31.1401 21.6312 29.7419 23.0708 27.8789 23.2307C27.3092 23.2795 26.9932 23.4698 26.7577 24.0359C25.0496 28.117 20.9539 30.8011 16.541 30.7877C12.1879 30.7742 8.11045 28.0462 6.43167 23.97C6.184 23.3685 5.77528 23.2966 5.24822 23.2441C3.21805 23.0391 1.77839 21.4726 1.78815 19.5132C1.7967 17.8527 2.90328 16.9767 4.48935 17.4757C8.62165 18.775 12.4331 18.0125 15.9871 15.7127C16.9473 15.0905 17.7708 14.2584 18.6261 13.5496C19.513 14.1828 20.3915 14.9124 21.3626 15.4834C23.7857 16.9084 26.4222 17.5343 29.2381 17.333C30.4825 17.2439 31.4195 18.3432 31.2987 19.7731L31.2975 19.7706Z" stroke="white" stroke-width="0.5"/>
<path d="M19.1169 26.154C17.8041 27.0897 15.6275 27.0995 14.3562 26.1747C13.9695 25.8929 13.5986 25.7038 13.2655 26.1771C12.9361 26.6444 13.3021 26.9311 13.6352 27.1727C14.5563 27.8413 15.6226 28.0414 16.7268 28.0938C17.8407 28.0365 18.9009 27.8291 19.8269 27.1642C20.1869 26.9055 20.476 26.5932 20.1661 26.1576C19.8574 25.7245 19.4914 25.888 19.1169 26.154Z" stroke="white" stroke-width="0.5"/>
<path d="M11.8048 20.0536C11.7841 19.4936 11.4327 19.1166 10.9203 19.0983C10.4274 19.0812 10.0175 19.4668 9.98575 20.0158C9.96257 20.4184 9.96135 20.8259 9.98575 21.2285C10.0187 21.7995 10.3823 22.1387 10.9142 22.135C11.4462 22.1326 11.7817 21.7848 11.8048 21.2053C11.8122 21.0235 11.8048 20.8417 11.8061 20.66C11.8061 20.4574 11.8122 20.2549 11.8061 20.0536H11.8048Z" stroke="white" stroke-width="0.5"/>
<path d="M22.293 19.0986C21.805 19.1047 21.4402 19.5024 21.4195 20.0575C21.4121 20.2393 21.4195 20.4211 21.4182 20.6029C21.4182 20.8042 21.4109 21.0067 21.4182 21.208C21.4414 21.7754 21.7416 22.1121 22.2381 22.1377C22.8006 22.167 23.1849 21.829 23.2251 21.23C23.252 20.8286 23.2508 20.4211 23.2251 20.0197C23.1922 19.4792 22.781 19.0913 22.2906 19.0974L22.293 19.0986Z" stroke="white" stroke-width="0.5"/>
</svg>
