<svg width="44" height="28" viewBox="0 0 44 28" fill="none" xmlns="http://www.w3.org/2000/svg">
<path d="M41.7591 6.27957C41.6608 6.27483 41.5624 6.26653 41.4628 6.26653C40.6272 6.25705 40.0405 5.87659 39.6956 5.11092C39.4846 4.64393 39.2535 4.18642 39.0271 3.72773C37.9486 1.5374 36.2276 0.428009 33.7481 0.603425C32.2618 0.708912 31.1761 1.39517 30.5811 2.79258C30.5052 2.97155 30.4294 3.1517 30.3594 3.32001C24.8587 -0.702718 19.3793 -0.702718 13.8513 3.33186C13.5183 2.20825 12.8901 1.31813 11.7854 0.892626C10.0846 0.238369 7.42017 0.48964 6.03106 2.45359C5.46688 3.25245 5.02834 4.14613 4.5898 5.02558C4.188 5.83036 3.61197 6.29024 2.69222 6.27127C2.53458 6.26772 2.37576 6.27483 2.21931 6.29024C1.39319 6.37083 0.831384 7.0725 1.04591 7.86898C1.17511 8.35138 1.39438 8.85155 1.70728 9.23439C3.13313 10.9803 5.01886 11.7341 7.2495 11.5575C8.05665 11.4935 8.85076 11.2647 9.67451 11.1071C9.65199 11.4532 9.62828 11.8218 9.60221 12.2117C9.39953 12.2473 9.22767 12.2817 9.05463 12.3077C7.75915 12.4986 6.88444 13.2879 6.54783 14.5716C5.86631 17.1767 7.60981 19.8127 10.42 20.3425C10.8989 20.4326 11.1004 20.6365 11.3078 21.0335C13.4815 25.1937 16.9436 27.5453 21.6088 27.6887C26.5844 27.8416 30.3002 25.5102 32.6588 21.1094C32.916 20.6293 33.1922 20.3935 33.7208 20.275C35.4524 19.8862 36.6211 18.8136 37.2078 17.1424C38.0066 14.8655 37.1592 13.1362 34.8823 12.3101C34.7887 12.2769 34.669 12.1785 34.6536 12.0932C34.5931 11.7495 34.5694 11.3998 34.5327 11.0526C34.605 11.0454 34.6275 11.0371 34.6441 11.0419C34.8124 11.094 34.9795 11.1497 35.1478 11.2031C37.0561 11.8147 38.9217 11.7625 40.6995 10.7788C41.7366 10.2051 42.6255 9.45603 43.0724 8.31227C43.5192 7.1685 42.9728 6.34002 41.7615 6.28194L41.7591 6.27957ZM13.6581 5.33019C16.6793 2.05772 20.4496 0.808471 24.7686 1.86097C29.2026 2.94191 31.9915 5.86829 33.1602 10.2916C33.3285 10.9305 33.3783 11.6001 33.5146 12.463C32.2831 12.2485 31.1713 12.1276 30.0999 11.8514C27.9107 11.2861 26.0392 10.1482 24.4984 8.48176C24.0705 8.01833 23.7363 8.02899 23.3345 8.52087C20.8502 11.567 17.592 12.9916 13.7138 13.026C12.8806 13.0331 12.0462 12.77 11.2118 12.6396C10.8645 12.5851 10.7827 12.3931 10.8064 12.0624C10.9889 9.4904 11.9182 7.21354 13.6581 5.329V5.33019ZM8.97995 9.96569C7.01956 10.8475 4.51513 10.4161 2.99564 8.89896C2.63889 8.54339 2.40065 8.06929 2.02611 7.53474C2.39947 7.49445 2.56896 7.46008 2.73845 7.46008C4.1643 7.46008 5.09472 6.74063 5.69564 5.48782C6.0441 4.76245 6.39138 4.02405 6.84177 3.36149C7.75322 2.01742 9.44457 1.45799 11.0209 1.89297C12.0474 2.17625 12.8356 3.21097 12.8095 4.27058C12.8059 4.40688 12.7147 4.56333 12.621 4.67356C11.5934 5.89199 10.8029 7.24436 10.2742 8.74725C10.0514 9.38136 9.54769 9.71204 8.98114 9.96687L8.97995 9.96569ZM36.2762 15.8718C36.0735 17.7385 34.7377 19.0648 32.8686 19.2165C32.3815 19.2568 32.097 19.4334 31.9038 19.9135C29.7431 25.2874 23.4542 27.9376 18.0518 25.7615C15.3234 24.6627 13.3571 22.7509 12.1801 20.0652C11.9277 19.488 11.6112 19.2687 11.0067 19.2154C8.93017 19.0305 7.49721 17.3889 7.61455 15.3929C7.69752 13.9671 8.69787 13.2524 10.0929 13.5558C11.3007 13.8189 12.5227 14.1887 13.7423 14.2006C17.5445 14.2349 20.8301 12.8826 23.5087 10.1435C23.6462 10.0024 23.7801 9.85783 23.9603 9.66938C25.737 11.3738 27.7554 12.5175 30.0856 13.0924C31.4724 13.4349 32.8722 13.6127 34.3039 13.4788C35.4916 13.3673 36.4243 14.5064 36.2762 15.873V15.8718ZM41.5683 8.52917C39.8758 10.6116 36.8605 10.8878 34.8598 9.74049C34.4699 9.51648 34.1214 9.06846 33.9472 8.64414C33.3747 7.24436 32.6671 5.9394 31.6976 4.77431C31.5518 4.59889 31.4463 4.31562 31.4593 4.0916C31.5376 2.77954 32.551 1.85149 33.8595 1.778C35.6705 1.67489 36.9826 2.42041 37.8253 4.01101C38.0742 4.48037 38.316 4.95446 38.5282 5.4416C39.1089 6.77737 40.1057 7.46719 41.5719 7.46245C41.707 7.46245 41.8409 7.49208 42.123 7.52526C41.9168 7.90573 41.79 8.25656 41.5683 8.52917Z" fill="white"/>
<path d="M24.5054 22.2234C23.23 23.1325 21.1155 23.142 19.8805 22.2436C19.5048 21.9698 19.1445 21.7861 18.8209 22.2459C18.5009 22.6999 18.8565 22.9784 19.18 23.2131C20.0749 23.8626 21.1108 24.057 22.1835 24.1079C23.2656 24.0522 24.2956 23.8507 25.1952 23.2048C25.5448 22.9535 25.8257 22.6501 25.5247 22.227C25.2248 21.8062 24.8692 21.965 24.5054 22.2234Z" fill="white"/>
<path d="M17.4033 16.2984C17.3832 15.7544 17.0418 15.3881 16.544 15.3704C16.0652 15.3538 15.667 15.7283 15.6361 16.2617C15.6136 16.6528 15.6124 17.0487 15.6361 17.4398C15.6681 17.9945 16.0213 18.324 16.5381 18.3204C17.0549 18.3181 17.3808 17.9803 17.4033 17.4173C17.4105 17.2407 17.4033 17.0641 17.4045 16.8875C17.4045 16.6907 17.4105 16.494 17.4045 16.2984H17.4033Z" fill="white"/>
<path d="M27.5921 15.3691C27.1181 15.375 26.7637 15.7614 26.7435 16.3007C26.7364 16.4773 26.7435 16.6539 26.7423 16.8305C26.7423 17.0261 26.7352 17.2228 26.7423 17.4184C26.7648 17.9695 27.0564 18.2967 27.5388 18.3216C28.0852 18.35 28.4586 18.0217 28.4977 17.4397C28.5238 17.0498 28.5226 16.6539 28.4977 16.264C28.4657 15.7389 28.0662 15.362 27.5898 15.3679L27.5921 15.3691Z" fill="white"/>
<path d="M41.7591 6.27957C41.6608 6.27483 41.5624 6.26653 41.4628 6.26653C40.6272 6.25705 40.0405 5.87659 39.6956 5.11092C39.4846 4.64393 39.2535 4.18642 39.0271 3.72773C37.9486 1.5374 36.2276 0.428009 33.7481 0.603425C32.2618 0.708912 31.1761 1.39517 30.5811 2.79258C30.5052 2.97155 30.4294 3.1517 30.3594 3.32001C24.8587 -0.702718 19.3793 -0.702718 13.8513 3.33186C13.5183 2.20825 12.8901 1.31813 11.7854 0.892626C10.0846 0.238369 7.42017 0.48964 6.03106 2.45359C5.46688 3.25245 5.02834 4.14613 4.5898 5.02558C4.188 5.83036 3.61197 6.29024 2.69222 6.27127C2.53458 6.26772 2.37576 6.27483 2.21931 6.29024C1.39319 6.37083 0.831384 7.0725 1.04591 7.86898C1.17511 8.35138 1.39438 8.85155 1.70728 9.23439C3.13313 10.9803 5.01886 11.7341 7.2495 11.5575C8.05665 11.4935 8.85076 11.2647 9.67451 11.1071C9.65199 11.4532 9.62828 11.8218 9.60221 12.2117C9.39953 12.2473 9.22767 12.2817 9.05463 12.3077C7.75915 12.4986 6.88444 13.2879 6.54783 14.5716C5.86631 17.1767 7.60981 19.8127 10.42 20.3425C10.8989 20.4326 11.1004 20.6365 11.3078 21.0335C13.4815 25.1937 16.9436 27.5453 21.6088 27.6887C26.5844 27.8416 30.3002 25.5102 32.6588 21.1094C32.916 20.6293 33.1922 20.3935 33.7208 20.275C35.4524 19.8862 36.6211 18.8136 37.2078 17.1424C38.0066 14.8655 37.1592 13.1362 34.8823 12.3101C34.7887 12.2769 34.669 12.1785 34.6536 12.0932C34.5931 11.7495 34.5694 11.3998 34.5327 11.0526C34.605 11.0454 34.6275 11.0371 34.6441 11.0419C34.8124 11.094 34.9795 11.1497 35.1478 11.2031C37.0561 11.8147 38.9217 11.7625 40.6995 10.7788C41.7366 10.2051 42.6255 9.45603 43.0724 8.31227C43.5192 7.1685 42.9728 6.34002 41.7615 6.28194L41.7591 6.27957ZM13.6581 5.33019C16.6793 2.05772 20.4496 0.808471 24.7686 1.86097C29.2026 2.94191 31.9915 5.86829 33.1602 10.2916C33.3285 10.9305 33.3783 11.6001 33.5146 12.463C32.2831 12.2485 31.1713 12.1276 30.0999 11.8514C27.9107 11.2861 26.0392 10.1482 24.4984 8.48176C24.0705 8.01833 23.7363 8.02899 23.3345 8.52087C20.8502 11.567 17.592 12.9916 13.7138 13.026C12.8806 13.0331 12.0462 12.77 11.2118 12.6396C10.8645 12.5851 10.7827 12.3931 10.8064 12.0624C10.9889 9.4904 11.9182 7.21354 13.6581 5.329V5.33019ZM8.97995 9.96569C7.01956 10.8475 4.51513 10.4161 2.99564 8.89896C2.63889 8.54339 2.40065 8.06929 2.02611 7.53474C2.39947 7.49445 2.56896 7.46008 2.73845 7.46008C4.1643 7.46008 5.09472 6.74063 5.69564 5.48782C6.0441 4.76245 6.39138 4.02405 6.84177 3.36149C7.75322 2.01742 9.44457 1.45799 11.0209 1.89297C12.0474 2.17625 12.8356 3.21097 12.8095 4.27058C12.8059 4.40688 12.7147 4.56333 12.621 4.67356C11.5934 5.89199 10.8029 7.24436 10.2742 8.74725C10.0514 9.38136 9.54769 9.71204 8.98114 9.96687L8.97995 9.96569ZM36.2762 15.8718C36.0735 17.7385 34.7377 19.0648 32.8686 19.2165C32.3815 19.2568 32.097 19.4334 31.9038 19.9135C29.7431 25.2874 23.4542 27.9376 18.0518 25.7615C15.3234 24.6627 13.3571 22.7509 12.1801 20.0652C11.9277 19.488 11.6112 19.2687 11.0067 19.2154C8.93017 19.0305 7.49721 17.3889 7.61455 15.3929C7.69752 13.9671 8.69787 13.2524 10.0929 13.5558C11.3007 13.8189 12.5227 14.1887 13.7423 14.2006C17.5445 14.2349 20.8301 12.8826 23.5087 10.1435C23.6462 10.0024 23.7801 9.85783 23.9603 9.66938C25.737 11.3738 27.7554 12.5175 30.0856 13.0924C31.4724 13.4349 32.8722 13.6127 34.3039 13.4788C35.4916 13.3673 36.4243 14.5064 36.2762 15.873V15.8718ZM41.5683 8.52917C39.8758 10.6116 36.8605 10.8878 34.8598 9.74049C34.4699 9.51648 34.1214 9.06846 33.9472 8.64414C33.3747 7.24436 32.6671 5.9394 31.6976 4.77431C31.5518 4.59889 31.4463 4.31562 31.4593 4.0916C31.5376 2.77954 32.551 1.85149 33.8595 1.778C35.6705 1.67489 36.9826 2.42041 37.8253 4.01101C38.0742 4.48037 38.316 4.95446 38.5282 5.4416C39.1089 6.77737 40.1057 7.46719 41.5719 7.46245C41.707 7.46245 41.8409 7.49208 42.123 7.52526C41.9168 7.90573 41.79 8.25656 41.5683 8.52917Z" stroke="white" stroke-width="0.5"/>
<path d="M24.5054 22.2234C23.23 23.1325 21.1155 23.142 19.8805 22.2436C19.5048 21.9698 19.1445 21.7861 18.8209 22.2459C18.5009 22.6999 18.8565 22.9784 19.18 23.2131C20.0749 23.8626 21.1108 24.057 22.1835 24.1079C23.2656 24.0522 24.2956 23.8507 25.1952 23.2048C25.5448 22.9535 25.8257 22.6501 25.5247 22.227C25.2248 21.8062 24.8692 21.965 24.5054 22.2234Z" stroke="white" stroke-width="0.5"/>
<path d="M17.4033 16.2984C17.3832 15.7544 17.0418 15.3881 16.544 15.3704C16.0652 15.3538 15.667 15.7283 15.6361 16.2617C15.6136 16.6528 15.6124 17.0487 15.6361 17.4398C15.6681 17.9945 16.0213 18.324 16.5381 18.3204C17.0549 18.3181 17.3808 17.9803 17.4033 17.4173C17.4105 17.2407 17.4033 17.0641 17.4045 16.8875C17.4045 16.6907 17.4105 16.494 17.4045 16.2984H17.4033Z" stroke="white" stroke-width="0.5"/>
<path d="M27.5921 15.3691C27.1181 15.375 26.7637 15.7614 26.7435 16.3007C26.7364 16.4773 26.7435 16.6539 26.7423 16.8305C26.7423 17.0261 26.7352 17.2228 26.7423 17.4184C26.7648 17.9695 27.0564 18.2967 27.5388 18.3216C28.0852 18.35 28.4586 18.0217 28.4977 17.4397C28.5238 17.0498 28.5226 16.6539 28.4977 16.264C28.4657 15.7389 28.0662 15.362 27.5898 15.3679L27.5921 15.3691Z" stroke="white" stroke-width="0.5"/>
</svg>
