<svg width="44" height="43" viewBox="0 0 44 43" fill="none" xmlns="http://www.w3.org/2000/svg">
<rect width="44" height="43" fill="#E5E5E5"/>
<rect x="-25" y="-16" width="310" height="116" rx="20" fill="white"/>
<path d="M39.1046 20.9775C38.0709 12.4459 33.4137 7.17351 24.8501 5.00226C25.5531 4.54372 26.0436 4.06282 26.6251 3.89187C27.2179 3.71772 27.6876 3.57553 27.5374 2.89012C27.376 2.15678 26.7625 2.10406 26.2113 2.34531C25.43 2.68562 24.6999 3.14256 23.9027 3.57553C23.7605 3.34546 23.5735 2.99876 23.3451 2.68082C22.5686 1.60239 21.6116 0.816327 20.196 0.782775C19.6464 0.769994 19.2422 1.0448 19.3125 1.54966C19.3556 1.85482 19.771 2.27661 20.0874 2.34691C21.3799 2.63609 22.3721 3.58671 22.559 4.87924C13.6759 4.55171 5.74817 11.6998 5.22094 20.9184C5.02442 20.9551 4.82152 21.0047 4.61382 21.0318C2.78287 21.2763 1.57183 22.3627 1.13246 24.1617C0.272908 27.6814 2.57837 31.142 6.3505 31.8673C7.03591 31.9983 7.29793 32.3243 7.58871 32.8691C10.6563 38.6255 15.4813 41.7969 21.987 41.7842C28.5919 41.7714 33.4536 38.5409 36.4828 32.6438C36.7065 32.2092 36.935 31.9792 37.4494 31.8721C40.0616 31.3257 41.8079 29.7823 42.586 27.1973C43.2858 24.8663 42.5524 21.5207 39.103 20.9743L39.1046 20.9775ZM12.8227 9.71703C17.8602 5.94489 23.385 5.35695 29.0312 8.19443C34.2173 10.8003 36.887 15.2179 37.4478 21.0877C34.2892 21.0302 31.4437 20.3352 28.8986 18.7296C27.6301 17.9291 26.5069 16.8874 25.3693 15.8937C24.6983 15.3089 24.3197 15.277 23.7301 15.9959C20.3478 20.1164 15.9238 22.0208 10.6627 22.0144C9.43403 22.0128 8.20541 21.6645 6.85697 21.4584C7.07745 16.5423 8.99946 12.5817 12.8243 9.71862L12.8227 9.71703ZM41.2232 25.8185C41.0171 28.255 39.1861 30.1402 36.7464 30.3495C36.0003 30.4134 35.5865 30.6627 35.2782 31.404C33.0414 36.7483 27.678 40.2632 21.8992 40.2456C16.1986 40.228 10.8592 36.6556 8.66075 31.3177C8.33642 30.5301 7.8012 30.4358 7.111 30.3671C4.45245 30.0987 2.56718 28.0473 2.57996 25.4814C2.59115 23.3069 4.04025 22.1598 6.11724 22.8132C11.5286 24.5148 16.5198 23.5162 21.1738 20.5046C22.4312 19.6898 23.5096 18.6002 24.6296 17.6719C25.7911 18.5011 26.9415 19.4565 28.2132 20.2042C31.3862 22.0703 34.8388 22.8899 38.5263 22.6263C40.1559 22.5097 41.3829 23.9492 41.2248 25.8217L41.2232 25.8185Z" fill="#6CBBD9" stroke="#6CBBD9" stroke-width="0.5"/>
<path d="M25.2723 34.1774C23.5532 35.4029 20.7029 35.4156 19.0381 34.2046C18.5317 33.8355 18.046 33.5879 17.6098 34.2078C17.1784 34.8197 17.6577 35.1952 18.0939 35.5115C19.3001 36.387 20.6965 36.6491 22.1424 36.7178C23.6011 36.6427 24.9895 36.3711 26.2021 35.5003C26.6735 35.1616 27.0521 34.7526 26.6463 34.1822C26.2421 33.6151 25.7628 33.8291 25.2723 34.1774Z" fill="#6CBBD9" stroke="#6CBBD9" stroke-width="0.5"/>
<path d="M15.6973 26.1886C15.6701 25.4553 15.21 24.9616 14.5389 24.9376C13.8935 24.9152 13.3567 25.4201 13.3151 26.1391C13.2848 26.6663 13.2832 27.1999 13.3151 27.7272C13.3583 28.4749 13.8344 28.919 14.531 28.9142C15.2275 28.911 15.6669 28.4557 15.6973 27.6968C15.7069 27.4588 15.6973 27.2207 15.6989 26.9826C15.6989 26.7174 15.7069 26.4522 15.6989 26.1886H15.6973Z" fill="#6CBBD9" stroke="#6CBBD9" stroke-width="0.5"/>
<path d="M29.4311 24.9383C28.792 24.9463 28.3143 25.4672 28.2871 26.1941C28.2775 26.4322 28.2871 26.6702 28.2855 26.9083C28.2855 27.1719 28.2759 27.4371 28.2855 27.7007C28.3159 28.4437 28.7089 28.8846 29.3592 28.9182C30.0957 28.9565 30.599 28.514 30.6517 27.7295C30.6868 27.2039 30.6852 26.6702 30.6517 26.1446C30.6085 25.4368 30.0701 24.9287 29.4279 24.9367L29.4311 24.9383Z" fill="#6CBBD9" stroke="#6CBBD9" stroke-width="0.5"/>
<rect x="-44.5" y="-38.5" width="353" height="310" rx="4.5" stroke="#9747FF" stroke-dasharray="10 5"/>
</svg>
