<svg xmlns="http://www.w3.org/2000/svg" width="33.808" height="22.242" viewBox="0 0 33.808 22.242">
    <path id="ic_people_24px" d="M22.687,13.675A4.337,4.337,0,1,0,18.35,9.337,4.319,4.319,0,0,0,22.687,13.675Zm-11.567,0A4.337,4.337,0,1,0,6.783,9.337,4.319,4.319,0,0,0,11.121,13.675Zm0,2.892C7.752,16.567,1,18.258,1,21.627v3.615H21.242V21.627C21.242,18.258,14.49,16.567,11.121,16.567Zm11.567,0c-.419,0-.9.029-1.4.072a6.1,6.1,0,0,1,2.848,4.988v3.615h8.675V21.627C32.808,18.258,26.056,16.567,22.687,16.567Z" transform="translate(0 -4)" fill="none" stroke="#acb1b4" stroke-linecap="round" stroke-linejoin="round" stroke-width="2"/>
</svg>
