<svg width="16" height="16" viewBox="0 0 16 16" fill="none" xmlns="http://www.w3.org/2000/svg">
<path d="M11.0682 8.68182C11.4447 8.68182 11.75 8.37656 11.75 8C11.75 7.62344 11.4447 7.31818 11.0682 7.31818H8.68182V3.56818C8.68182 3.19162 8.37656 2.88636 8 2.88636C7.62344 2.88636 7.31818 3.19162 7.31818 3.56818V8C7.31818 8.37656 7.62344 8.68182 8 8.68182H11.0682Z" fill="#B4B8CD"/>
<path fill-rule="evenodd" clip-rule="evenodd" d="M8 0.5C3.85786 0.5 0.5 3.85786 0.5 8C0.5 12.1421 3.85786 15.5 8 15.5C12.1421 15.5 15.5 12.1421 15.5 8C15.5 3.85786 12.1421 0.5 8 0.5ZM1.86364 8C1.86364 4.61098 4.61098 1.86364 8 1.86364C11.389 1.86364 14.1364 4.61098 14.1364 8C14.1364 11.389 11.389 14.1364 8 14.1364C4.61098 14.1364 1.86364 11.389 1.86364 8Z" fill="#B4B8CD"/>
</svg>
