<svg width="16" height="16" viewBox="0 0 16 16" fill="none" xmlns="http://www.w3.org/2000/svg">
<path fill-rule="evenodd" clip-rule="evenodd" d="M8.00001 1.86363C4.64686 1.86363 1.92859 4.45833 1.92859 7.65906C1.92859 8.89358 2.33216 10.0361 3.02027 10.9755C3.11215 11.101 3.15714 11.2523 3.148 11.4051C3.12813 11.7372 3.07896 12.1225 2.98614 12.5655C2.89053 13.0218 2.7703 13.4147 2.64188 13.7491L5.38723 13.0503C5.53261 13.0133 5.68652 13.021 5.827 13.0725C6.50074 13.319 7.23297 13.4545 8.00001 13.4545C11.3532 13.4545 14.0714 10.8598 14.0714 7.65906C14.0714 4.45833 11.3532 1.86363 8.00001 1.86363ZM0.70241 14.3426C0.703548 14.3414 0.705819 14.339 0.709145 14.3354C0.718947 14.3248 0.737929 14.3034 0.764092 14.2708C0.816372 14.2055 0.89759 14.0947 0.99169 13.933C1.17937 13.6106 1.42137 13.0805 1.58531 12.2981C1.64449 12.0156 1.6818 11.7671 1.70371 11.5503C0.942294 10.4298 0.500017 9.09285 0.500017 7.65906C0.500017 3.70522 3.85788 0.5 8.00001 0.5C12.1421 0.5 15.5 3.70522 15.5 7.65906C15.5 11.6129 12.1421 14.8181 8.00001 14.8181C7.13867 14.8181 6.30992 14.6793 5.53786 14.4232L1.39835 15.4769C1.08613 15.5564 0.756897 15.4259 0.595499 15.1587C0.435719 14.8941 0.479825 14.5609 0.70241 14.3426Z" fill="#B4B8CD"/>
</svg>
