<svg width="18" height="20" viewBox="0 0 18 20" fill="none" xmlns="http://www.w3.org/2000/svg">
<path d="M4.70711 8.29289L8 11.5858L8 1C8 0.447715 8.44772 0 9 0C9.55229 0 10 0.447715 10 1L10 11.5858L13.2929 8.29289C13.6834 7.90237 14.3166 7.90237 14.7071 8.29289C15.0976 8.68342 15.0976 9.31658 14.7071 9.70711L9.70711 14.7071C9.31658 15.0976 8.68342 15.0976 8.29289 14.7071L3.29289 9.70711C2.90237 9.31658 2.90237 8.68342 3.29289 8.29289C3.68342 7.90237 4.31658 7.90237 4.70711 8.29289Z" fill="#79BCB7"/>
<path d="M1 20C0.447715 20 0 19.5523 0 19C0 18.4477 0.447715 18 1 18H17C17.5523 18 18 18.4477 18 19C18 19.5523 17.5523 20 17 20H1Z" fill="#79BCB7"/>
</svg>
