<svg id="Komponent_165_1" data-name="Komponent 165 – 1" xmlns="http://www.w3.org/2000/svg" width="26.252" height="18.595" viewBox="0 0 26.252 18.595">
    <g id="Kontur_9580" data-name="Kontur 9580" fill="none">
        <path d="M4.375,0h17.5a4.375,4.375,0,0,1,4.375,4.375V14.22A4.375,4.375,0,0,1,21.877,18.6H4.375A4.375,4.375,0,0,1,0,14.22V4.375A4.375,4.375,0,0,1,4.375,0Z" stroke="none"/>
        <path d="M 4.375326156616211 1.999998092651367 C 3.065567016601562 1.999998092651367 1.999996185302734 3.065567016601562 1.999996185302734 4.375327110290527 L 1.999996185302734 14.21980667114258 C 1.999996185302734 15.52956771850586 3.065567016601562 16.59513664245605 4.375326156616211 16.59513664245605 L 21.87662696838379 16.59513664245605 C 23.18638610839844 16.59513664245605 24.25195693969727 15.52956771850586 24.25195693969727 14.21980667114258 L 24.25195693969727 4.375327110290527 C 24.25195693969727 3.065567016601562 23.18638610839844 1.999998092651367 21.87662696838379 1.999998092651367 L 4.375326156616211 1.999998092651367 M 4.375326156616211 -1.9073486328125e-06 L 21.87662696838379 -1.9073486328125e-06 C 24.29305648803711 -1.9073486328125e-06 26.25195693969727 1.958896636962891 26.25195693969727 4.375327110290527 L 26.25195693969727 14.21980667114258 C 26.25195693969727 16.63623809814453 24.29305648803711 18.59513664245605 21.87662696838379 18.59513664245605 L 4.375326156616211 18.59513664245605 C 1.958896636962891 18.59513664245605 -3.814697265625e-06 16.63623809814453 -3.814697265625e-06 14.21980667114258 L -3.814697265625e-06 4.375327110290527 C -3.814697265625e-06 1.958896636962891 1.958896636962891 -1.9073486328125e-06 4.375326156616211 -1.9073486328125e-06 Z" stroke="none" fill="#acb1b4"/>
    </g>
    <path id="Kontur_9581" data-name="Kontur 9581" d="M6986.835-24.741l11.143,7.957,11.343-7.957" transform="translate(-6985 27.195)" fill="none" stroke="#acb1b4" stroke-width="2"/>
</svg>
