<svg width="24" height="28" viewBox="0 0 24 28" fill="none" xmlns="http://www.w3.org/2000/svg">
<path d="M16.3905 11.7237C15.8698 12.2444 15.8698 13.0886 16.3905 13.6093C16.9112 14.13 17.7555 14.13 18.2762 13.6093L23.6095 8.27598C23.7742 8.11132 23.8867 7.91431 23.9473 7.70542C23.9705 7.6253 23.986 7.54343 23.9939 7.46097C23.9968 7.43076 23.9987 7.40047 23.9995 7.37015C24.0003 7.34262 24.0002 7.31507 23.9992 7.28754C23.9873 6.92931 23.834 6.60688 23.5934 6.37422L18.2762 1.05703C17.7555 0.536329 16.9112 0.536329 16.3905 1.05703C15.8698 1.57773 15.8698 2.42195 16.3905 2.94265L19.4475 5.99959L1.33332 5.99982C0.596937 5.99983 -9.4693e-06 6.59679 1.12777e-10 7.33317C9.25781e-06 8.06955 0.59697 8.66649 1.33335 8.66648L19.448 8.66625L16.3905 11.7237Z" fill="white"/>
<path d="M22.6667 19.3332L4.5523 19.3332L7.60949 16.276C8.13019 15.7553 8.13019 14.9111 7.60949 14.3904C7.08879 13.8697 6.24457 13.8697 5.72387 14.3904L0.390541 19.7237C-0.130158 20.2444 -0.130158 21.0886 0.390541 21.6093L5.72387 26.9426C6.24457 27.4633 7.08879 27.4633 7.60949 26.9426C8.13019 26.4219 8.13019 25.5777 7.60949 25.057L4.5523 21.9998L22.6667 21.9998C23.4031 21.9998 24 21.4029 24 20.6665C24 19.9301 23.4031 19.3332 22.6667 19.3332Z" fill="white"/>
</svg>
