<svg width="18" height="13" viewBox="0 0 18 13" fill="none" xmlns="http://www.w3.org/2000/svg">
<path fill-rule="evenodd" clip-rule="evenodd" d="M9.00003 3.35526C7.1475 3.35526 5.64573 4.70725 5.64573 6.375C5.64573 8.04275 7.1475 9.39474 9.00003 9.39474C10.8526 9.39474 12.3543 8.04275 12.3543 6.375C12.3543 4.70725 10.8526 3.35526 9.00003 3.35526Z" fill="#B4B8CD"/>
<path fill-rule="evenodd" clip-rule="evenodd" d="M9 0C5.87627 0 3.63792 1.57246 2.21906 3.06571C1.50627 3.81586 0.982783 4.56303 0.637371 5.12181C0.464207 5.40194 0.334581 5.6367 0.247295 5.80351C0.203623 5.88696 0.170468 5.95356 0.147684 6.00051C0.13629 6.02398 0.127483 6.04256 0.121244 6.05588L0.113808 6.07189L0.111529 6.07687L0.110748 6.07858L0.110448 6.07924L0 6.32352L0.103454 6.57028L0.103743 6.57097L0.104489 6.57273L0.106659 6.57784L0.11372 6.59419C0.119642 6.60779 0.128 6.62672 0.138825 6.65063C0.160472 6.69843 0.192015 6.7662 0.233711 6.85108C0.31705 7.02073 0.441275 7.25943 0.608502 7.54422C0.94205 8.11226 1.4515 8.87194 2.15564 9.63475C3.5597 11.1558 5.79997 12.75 9 12.75C12.2 12.75 14.4403 11.1558 15.8444 9.63475C16.5485 8.87194 17.0579 8.11226 17.3915 7.54422C17.5587 7.25943 17.6829 7.02073 17.7663 6.85108C17.808 6.7662 17.8395 6.69843 17.8612 6.65063C17.872 6.62672 17.8804 6.60779 17.8863 6.59419L17.8933 6.57784L17.8955 6.57273L17.8963 6.57097L17.8965 6.57028L18 6.32352L17.8896 6.07924L17.8885 6.07687L17.8862 6.07189L17.8788 6.05588C17.8725 6.04256 17.8637 6.02398 17.8523 6.00051C17.8295 5.95356 17.7964 5.88696 17.7527 5.80351C17.6654 5.6367 17.5358 5.40194 17.3626 5.12181C17.0172 4.56303 16.4937 3.81586 15.7809 3.06571C14.3621 1.57246 12.1237 0 9 0ZM17.1994 6.33277C17.8968 6.56973 17.8965 6.57028 17.8965 6.57028L17.1994 6.33277ZM17.8896 6.07924C17.8896 6.07924 17.8898 6.07978 17.1994 6.33277L17.8896 6.07924ZM0.800603 6.33277C0.110207 6.07978 0.110448 6.07924 0.110448 6.07924L0.800603 6.33277ZM0.103454 6.57028C0.103454 6.57028 0.103222 6.56973 0.800603 6.33277L0.103454 6.57028ZM1.92648 6.917C1.78852 6.68204 1.6847 6.4845 1.61369 6.34175C1.68833 6.20081 1.79689 6.00602 1.94004 5.77444C2.25085 5.27165 2.7198 4.60339 3.35193 3.93812C4.6229 2.60051 6.48424 1.34211 9 1.34211C11.5158 1.34211 13.3771 2.60051 14.6481 3.93812C15.2802 4.60339 15.7492 5.27165 16.06 5.77444C16.2031 6.00602 16.3117 6.20081 16.3863 6.34175C16.3153 6.4845 16.2115 6.68204 16.0735 6.917C15.7744 7.42637 15.3197 8.10323 14.6978 8.77697C13.4497 10.129 11.5903 11.4079 9 11.4079C6.40968 11.4079 4.55026 10.129 3.30221 8.77697C2.68029 8.10323 2.22558 7.42637 1.92648 6.917Z" fill="#B4B8CD"/>
</svg>
