<svg id="Icon_view_outline" xmlns="http://www.w3.org/2000/svg" width="13.31" height="9.059" viewBox="0 0 13.31 9.059">
    <path id="Shape" d="M6.657,9.059A6.575,6.575,0,0,1,.045,4.7L0,4.536l.042-.164C.43,2.86,2.312,0,6.657,0a7.266,7.266,0,0,1,4.789,1.615,5.608,5.608,0,0,1,1.825,2.758l.039.151-.036.152a5.522,5.522,0,0,1-1.832,2.813A7.341,7.341,0,0,1,6.657,9.059Zm0-7.765A5.95,5.95,0,0,0,2.865,2.487,4.457,4.457,0,0,0,1.378,4.522a4.754,4.754,0,0,0,1.5,2.02A5.877,5.877,0,0,0,6.657,7.764,6.024,6.024,0,0,0,10.47,6.593,4.246,4.246,0,0,0,11.94,4.536,4.5,4.5,0,0,0,10.459,2.5,5.945,5.945,0,0,0,6.657,1.294Z" fill="#aeb3bc"/>
    <path id="Shape-2" data-name="Shape" d="M0,1.941A1.966,1.966,0,0,1,1.99,0a1.966,1.966,0,0,1,1.99,1.941A1.966,1.966,0,0,1,1.99,3.882,1.966,1.966,0,0,1,0,1.941Z" transform="translate(4.666 2.588)" fill="#aeb3bc"/>
</svg>
