<svg xmlns="http://www.w3.org/2000/svg" width="17px" height="22px" viewBox="0 0 17 22">
    <g id="Icon_save_outline" transform="translate(0.042 -0.375)">
        <path id="Shape"
                d="M15.786,22a1.212,1.212,0,0,1-.778-.284L8.5,16.258,1.991,21.716A1.212,1.212,0,0,1,1.213,22,1.194,1.194,0,0,1,.7,21.885,1.227,1.227,0,0,1,0,20.778V2.444A2.439,2.439,0,0,1,2.428,0H14.571A2.44,2.44,0,0,1,17,2.444V20.778a1.228,1.228,0,0,1-.7,1.107A1.2,1.2,0,0,1,15.786,22ZM14.571,2.444H2.428V18.169l5.294-4.441a1.207,1.207,0,0,1,1.555,0l5.294,4.441Z"
                transform="translate(-0.042 0.375)" fill="#fff" />
    </g>
</svg>
