<svg width="26" height="26" viewBox="0 0 26 26" fill="none" xmlns="http://www.w3.org/2000/svg">
<path fill-rule="evenodd" clip-rule="evenodd" d="M9.575 2C6.30818 2 3.64583 4.54436 3.64583 7.7C3.64583 10.8556 6.30818 13.4 9.575 13.4C12.8418 13.4 15.5042 10.8556 15.5042 7.7C15.5042 4.54436 12.8418 2 9.575 2ZM16.3458 2C15.6679 2 15.1042 2.52964 15.1042 3.2C15.1042 3.87036 15.6679 4.4 16.3458 4.4C18.2567 4.4 19.7917 5.88508 19.7917 7.7C19.7917 9.51492 18.2567 11 16.3458 11C15.6679 11 15.1042 11.5296 15.1042 12.2C15.1042 12.8704 15.6679 13.4 16.3458 13.4C19.6126 13.4 22.275 10.8556 22.275 7.7C22.275 4.54436 19.6126 2 16.3458 2ZM6.12917 7.7C6.12917 5.88508 7.66414 4.4 9.575 4.4C11.4859 4.4 13.0208 5.88508 13.0208 7.7C13.0208 9.51492 11.4859 11 9.575 11C7.66414 11 6.12917 9.51492 6.12917 7.7ZM6.45 15C2.89554 15 0 17.7682 0 21.2V23.2C0 23.8704 0.563686 24.4 1.24167 24.4C1.91965 24.4 2.48333 23.8704 2.48333 23.2V21.2C2.48333 19.1089 4.2515 17.4 6.45 17.4H12.7C14.8985 17.4 16.6667 19.1089 16.6667 21.2V23.2C16.6667 23.8704 17.2304 24.4 17.9083 24.4C18.5863 24.4 19.15 23.8704 19.15 23.2V21.2C19.15 17.7682 16.2545 15 12.7 15H6.45ZM21.5278 15.5152C20.9055 15.2542 20.174 15.5238 19.8968 16.1328C19.6175 16.7465 19.9128 17.4542 20.5389 17.7168C21.9445 18.3063 22.9167 19.6482 22.9167 21.2V23.2C22.9167 23.8703 23.4804 24.4 24.1583 24.4C24.8363 24.4 25.4 23.8703 25.4 23.2V21.2C25.4 18.6509 23.801 16.4687 21.5278 15.5152Z" fill="#ADB1B3"/>
</svg>
