<svg width="57" height="37" viewBox="0 0 57 37" fill="none" xmlns="http://www.w3.org/2000/svg">
<rect width="57" height="37" fill="#E5E5E5"/>
<rect x="-21" y="-20" width="310" height="116" rx="20" fill="white"/>
<path d="M54.3751 8.38988C54.2462 8.38367 54.1174 8.37281 53.987 8.37281C52.8928 8.36039 52.1245 7.86216 51.6728 6.8595C51.3966 6.24797 51.0939 5.64885 50.7974 5.04819C49.385 2.17989 47.1314 0.727119 43.8844 0.956831C41.938 1.09497 40.5163 1.99364 39.7371 3.82358C39.6378 4.05794 39.5385 4.29386 39.4469 4.51426C32.2435 -0.753595 25.0681 -0.753594 17.8291 4.52978C17.393 3.05838 16.5703 1.89275 15.1238 1.33555C12.8965 0.478782 9.40737 0.807827 7.58829 3.37967C6.84949 4.42579 6.27521 5.59608 5.70093 6.74775C5.17477 7.80163 4.42044 8.40384 3.216 8.37901C3.00957 8.37435 2.80159 8.38367 2.59671 8.40384C1.51489 8.50939 0.779194 9.42824 1.06013 10.4713C1.22931 11.103 1.51645 11.758 1.9262 12.2593C3.79339 14.5455 6.26279 15.5327 9.18386 15.3014C10.2408 15.2176 11.2808 14.918 12.3595 14.7116C12.33 15.1648 12.2989 15.6475 12.2648 16.1582C11.9994 16.2047 11.7743 16.2498 11.5477 16.2839C9.85127 16.5338 8.70581 17.5675 8.26501 19.2484C7.37255 22.66 9.6557 26.1119 13.3358 26.8056C13.9628 26.9236 14.2267 27.1906 14.4983 27.7105C17.3449 33.1584 21.8786 36.2378 27.9877 36.4256C34.5034 36.6258 39.3693 33.5728 42.458 27.8099C42.7948 27.1813 43.1564 26.8724 43.8487 26.7172C46.1163 26.2081 47.6467 24.8034 48.415 22.615C49.4611 19.6333 48.3513 17.3688 45.3697 16.287C45.2471 16.2435 45.0903 16.1147 45.0702 16.003C44.991 15.5529 44.96 15.095 44.9118 14.6402C45.0065 14.6309 45.036 14.62 45.0577 14.6262C45.2781 14.6945 45.497 14.7675 45.7174 14.8373C48.2163 15.6382 50.6593 15.5699 52.9875 14.2817C54.3456 13.5305 55.5097 12.5495 56.0948 11.0517C56.6799 9.55396 55.9644 8.46904 54.3782 8.39298L54.3751 8.38988ZM17.5761 7.14664C21.5324 2.86127 26.4697 1.22534 32.1256 2.60362C37.932 4.01914 41.5841 7.8513 43.1145 13.6438C43.3349 14.4804 43.4001 15.3573 43.5786 16.4872C41.9659 16.2063 40.5101 16.048 39.107 15.6863C36.2402 14.946 33.7894 13.456 31.7717 11.2737C31.2114 10.6668 30.7737 10.6808 30.2475 11.3249C26.9943 15.3138 22.7276 17.1795 17.6491 17.2245C16.5579 17.2338 15.4652 16.8892 14.3726 16.7185C13.9178 16.6471 13.8107 16.3957 13.8417 15.9626C14.0808 12.5945 15.2976 9.61294 17.5761 7.14509V7.14664ZM11.4499 13.2169C8.88275 14.3717 5.60315 13.8067 3.61334 11.82C3.14616 11.3544 2.83419 10.7336 2.34372 10.0336C2.83263 9.98079 3.05459 9.93578 3.27654 9.93578C5.14372 9.93578 6.36213 8.99365 7.14905 7.35307C7.60537 6.40318 8.06014 5.43621 8.64994 4.56859C9.84351 2.8085 12.0584 2.0759 14.1227 2.64553C15.4668 3.01648 16.499 4.37147 16.4648 5.75906C16.4601 5.93755 16.3406 6.14243 16.218 6.28677C14.8723 7.88234 13.8371 9.65329 13.1448 11.6214C12.853 12.4517 12.1934 12.8848 11.4515 13.2185L11.4499 13.2169ZM47.195 20.9511C46.9296 23.3957 45.1804 25.1325 42.7327 25.3311C42.0948 25.3839 41.7223 25.6152 41.4693 26.2438C38.6398 33.281 30.4043 36.7516 23.3298 33.9019C19.7568 32.4631 17.1819 29.9595 15.6406 26.4424C15.31 25.6866 14.8956 25.3994 14.104 25.3296C11.3848 25.0875 9.50825 22.9378 9.66191 20.324C9.77056 18.4569 11.0805 17.5209 12.9074 17.9183C14.489 18.2628 16.0892 18.7471 17.6863 18.7626C22.6655 18.8076 26.9679 17.0367 30.4757 13.4498C30.6557 13.2651 30.8311 13.0757 31.067 12.8289C33.3937 15.0608 36.0369 16.5586 39.0883 17.3114C40.9043 17.76 42.7373 17.9928 44.6123 17.8174C46.1675 17.6715 47.389 19.1631 47.195 20.9526V20.9511ZM54.1252 11.3358C51.9088 14.0628 47.9602 14.4245 45.3402 12.922C44.8296 12.6287 44.3733 12.042 44.1451 11.4863C43.3954 9.65329 42.4688 7.94442 41.1992 6.4187C41.0083 6.18899 40.8702 5.81803 40.8872 5.52469C40.9897 3.8065 42.3167 2.5912 44.0303 2.49497C46.4019 2.35994 48.1201 3.33621 49.2236 5.41914C49.5495 6.03378 49.8662 6.65462 50.144 7.29253C50.9045 9.04176 52.2099 9.94509 54.1298 9.93888C54.3068 9.93888 54.4822 9.97768 54.8516 10.0211C54.5815 10.5194 54.4154 10.9788 54.1252 11.3358Z" fill="#F08390" stroke="#F08390" stroke-width="0.5"/>
<path d="M31.7806 29.2687C30.1105 30.4592 27.3415 30.4716 25.7242 29.2951C25.2322 28.9366 24.7604 28.696 24.3367 29.2982C23.9176 29.8927 24.3832 30.2574 24.8069 30.5647C25.9788 31.4153 27.3353 31.6698 28.74 31.7366C30.1571 31.6636 31.5058 31.3998 32.6839 30.5539C33.1418 30.2248 33.5096 29.8275 33.1154 29.2734C32.7227 28.7224 32.2571 28.9304 31.7806 29.2687Z" fill="#F08390" stroke="#F08390" stroke-width="0.5"/>
<path d="M22.4805 21.5097C22.4541 20.7973 22.0071 20.3177 21.3552 20.2944C20.7281 20.2727 20.2066 20.7631 20.1663 21.4616C20.1368 21.9738 20.1352 22.4922 20.1663 23.0044C20.2082 23.7308 20.6707 24.1622 21.3474 24.1576C22.0241 24.1545 22.451 23.7121 22.4805 22.9749C22.4898 22.7436 22.4805 22.5124 22.482 22.2811C22.482 22.0234 22.4898 21.7658 22.482 21.5097H22.4805Z" fill="#F08390" stroke="#F08390" stroke-width="0.5"/>
<path d="M35.8231 20.2929C35.2022 20.3007 34.7381 20.8067 34.7117 21.5129C34.7024 21.7441 34.7117 21.9754 34.7102 22.2067C34.7102 22.4628 34.7009 22.7204 34.7102 22.9765C34.7397 23.6982 35.1215 24.1266 35.7532 24.1592C36.4687 24.1965 36.9576 23.7665 37.0089 23.0044C37.043 22.4938 37.0415 21.9754 37.0089 21.4647C36.967 20.7772 36.4439 20.2836 35.82 20.2914L35.8231 20.2929Z" fill="#F08390" stroke="#F08390" stroke-width="0.5"/>
<rect x="-40.5" y="-187.5" width="353" height="310" rx="4.5" stroke="#9747FF" stroke-dasharray="10 5"/>
</svg>
