<svg width="139" height="200" viewBox="0 0 139 200" fill="none" xmlns="http://www.w3.org/2000/svg">
<g clip-path="url(#clip0_444_6981)">
<path d="M40.5321 46.8963C39.0808 44.8042 37.6055 42.6942 35.6786 41.0134C33.7516 39.3325 31.3129 38.1047 28.7476 38.1226C25.0383 38.1464 21.8528 40.6915 19.3478 43.3975C10.2369 53.2262 5.79895 66.7562 5.61228 80.0956C5.54002 85.5076 6.17832 91.1103 8.88808 95.8131C9.50229 96.88 10.2851 97.9469 11.4353 98.4178C12.7781 98.9661 14.3257 98.5847 15.6444 97.9707C18.9563 96.427 21.4493 93.5005 23.1294 90.2819C24.8094 87.0632 25.7609 83.5287 26.7002 80.024C29.3679 70.0702 32.0355 60.1104 34.7091 50.1566" fill="#EBEBEB"/>
<path d="M30.6023 50.6871L25.6584 48.4936C22.8162 50.3771 20.1064 53.4169 18.5408 56.4329C16.9812 59.4429 15.9575 62.7032 15.0001 65.9516C13.3682 71.4888 11.8808 77.0915 11.2124 82.8254C11.0739 84.0235 10.9715 85.2394 11.2004 86.4195C11.4292 87.5997 12.0314 88.756 13.049 89.4176C14.5725 90.413 16.6982 90.0613 18.1916 89.0242C19.691 87.9871 20.6906 86.4016 21.5938 84.8281C27.5432 74.469 31.0358 62.5899 30.5962 50.6871H30.6023Z" fill="#A5A5A5"/>
<path d="M38.1172 88.2613C36.4131 86.8785 34.1429 86.3838 31.945 86.2288C24.8454 85.74 17.9506 88.3626 10.9293 89.4772C8.22557 89.9063 5.3472 90.1626 3.14928 91.7779C1.19826 93.2084 0.0541339 95.682 0.337153 98.0661C0.620173 100.45 2.37248 102.632 4.69084 103.335C7.09349 104.068 9.67078 103.27 12.0493 102.471C20.0642 99.7946 28.0791 97.1184 36.094 94.4422L39.8876 94.0905C40.7788 92.0938 39.8214 89.6381 38.1172 88.2553V88.2613Z" fill="#EBEBEB"/>
<path d="M37.8824 88.2792C36.1782 86.8964 33.9081 86.4016 31.7102 86.2467C29.2352 86.0738 26.7784 86.2884 24.3396 86.6818C25.3573 89.2686 28.0008 91.8852 32.9386 95.4376C34.161 95.0263 34.6307 94.8713 35.8591 94.4601L39.6528 94.1084C40.544 92.1117 39.5865 89.656 37.8824 88.2732V88.2792Z" fill="#D3D3D3"/>
<path d="M127.052 63.8655C127.425 63.8178 141.931 62.3277 137.764 75.3451C133.597 88.3686 121.62 80.477 121.716 80.0956C121.813 79.7141 127.052 63.8595 127.052 63.8595V63.8655Z" fill="#F9C9A5"/>
<path d="M130.261 150.13C128.593 144.348 125.781 131.301 125.408 128.333C124.149 118.308 123.812 104.897 119.488 98.5787C114.683 91.5633 105.663 90.7944 103.164 90.4785C100.665 90.1626 75.8493 91.1461 75.8493 91.1461C75.8493 91.1461 63.3603 105.153 60.1989 113.337C57.0375 121.52 56.1162 158.814 56.1162 158.814L57.5313 170.145L116.502 186.464C116.502 186.464 127.449 182.006 130.285 171.307C133.116 160.608 131.707 155.113 130.267 150.124L130.261 150.13Z" fill="#FFD469"/>
<path d="M74.7654 90.4845L73.7417 93.5899C76.7646 97.8873 105.753 92.2547 105.753 92.2547C107.144 90.5203 74.7654 90.4785 74.7654 90.4785V90.4845Z" fill="#F9C9A5"/>
<path d="M128.864 20.9924C119.314 9.82866 102.742 5.49546 95.534 6.36568C95.1125 6.41932 68.7435 4.512 62.3244 40.6259C62.3244 40.6259 58.4344 55.7415 58.2357 57.4938C58.2176 57.6488 58.1634 57.8932 58.0912 58.215C55.3634 69.9868 60.7769 85.5434 74.7652 90.4905L86.2366 93.2501C94.4441 94.8892 108.119 93.262 114.9 88.1957C123.131 82.0506 133.26 60.927 134.82 53.6851C136.235 47.1347 138.409 32.1622 128.858 20.9984L128.864 20.9924Z" fill="#F9C9A5"/>
<path d="M75.0785 90.3593C75.0785 90.3593 86.2186 93.7031 97.1299 93.5124C97.1299 93.5124 90.0544 95.5449 80.9075 93.6495C77.5715 92.9581 74.5847 91.3845 74.5847 91.3845L75.0785 90.3534" fill="#BF8F76"/>
<path d="M69.6167 61.523C69.978 62.2383 70.1044 63.2158 69.5866 63.8953C69.1951 64.4078 68.4244 64.7059 67.8282 64.3542C67.1478 63.9489 66.8346 63.0012 66.6721 62.274C66.4914 61.4753 66.5396 60.629 66.7624 59.8422C67.0635 58.7813 67.9185 57.2375 69.2253 57.2494C70.3754 57.2554 71.7965 57.6011 72.3505 58.674C72.6877 59.3237 72.7419 60.1343 72.7118 60.8674C72.6697 61.7257 72.483 62.6257 72.0555 63.3827C71.6761 64.0443 72.7058 64.6403 73.0852 63.9787C74.0245 62.3336 74.2594 59.9376 73.4465 58.2031C72.7178 56.6474 70.809 56.0454 69.1831 56.0574C67.2682 56.0752 65.9796 58.0541 65.5641 59.6992C65.2871 60.7899 65.2991 61.9581 65.6424 63.031C65.9555 64.0204 66.4974 65.0754 67.5091 65.5046C68.599 65.9635 69.8636 65.4807 70.55 64.5747C71.3569 63.5078 71.2124 62.0595 70.6464 60.921C70.3031 60.2415 69.2734 60.8376 69.6167 61.5171V61.523Z" fill="#CC6F69"/>
<path d="M55.9175 148.604C46.1503 142.989 26.8327 148.556 21.3048 153.659C19.1671 151.179 16.9631 148.646 14.0667 147.108C11.1703 145.564 7.38263 145.219 4.70298 147.108C2.27623 148.819 1.30072 151.894 0.764789 154.797C-0.162551 159.78 -0.246855 164.912 0.5179 169.918C1.22846 174.597 3.25777 179.789 7.78608 181.309C10.3573 182.173 13.2056 181.619 15.7528 180.677C18.2939 179.729 20.6966 178.4 23.304 177.643C30.9937 175.42 53.0812 184.778 62.9628 180.623L55.9295 148.61L55.9175 148.604Z" fill="#FFD469"/>
<path d="M117.887 14.3586C116.815 11.5512 116.231 8.57102 116.152 5.57295C116.122 4.40472 116.556 2.84906 117.736 2.88482C118.507 2.90866 119.025 3.66563 119.35 4.35704C120.343 6.45509 120.843 8.7856 120.795 11.1042C122.216 8.79156 124.559 7.05709 127.202 6.35376C128.045 6.12727 129.087 6.06766 129.653 6.72927C130.388 7.59948 129.713 8.89884 129.039 9.81674C127.021 12.5466 125.004 15.2764 122.987 18.0063" fill="#80604F"/>
<g opacity="0.2">
<path d="M129.653 6.72927C129.093 6.06766 128.045 6.13323 127.202 6.35376C124.565 7.05709 122.216 8.79156 120.795 11.1042C120.843 8.7856 120.343 6.46105 119.35 4.35703C119.025 3.66563 118.507 2.90866 117.736 2.88482C116.556 2.8431 116.122 4.40472 116.152 5.57295C116.225 8.57102 116.815 11.5572 117.887 14.3586L122.987 18.0003C125.004 15.2705 127.021 12.5406 129.039 9.81078C129.719 8.89288 130.394 7.59352 129.653 6.7233V6.72927Z" fill="#80604F"/>
</g>
<path d="M127.63 76.0306C127.684 76.0127 127.762 76.2034 128.015 76.4299C128.256 76.6505 128.72 76.8889 129.298 76.8591C130.466 76.8054 131.875 75.4345 132.489 73.6822C132.802 72.7941 132.887 71.8881 132.79 71.0835C132.718 70.2729 132.411 69.6232 131.911 69.3609C131.423 69.0748 130.954 69.2715 130.743 69.5099C130.52 69.7424 130.52 69.957 130.466 69.957C130.43 69.9748 130.303 69.7245 130.514 69.343C130.616 69.1583 130.809 68.9675 131.104 68.8483C131.405 68.7291 131.785 68.741 132.14 68.896C132.887 69.1881 133.356 70.1 133.459 70.9821C133.603 71.8822 133.531 72.9133 133.182 73.9087C132.483 75.8697 130.869 77.3955 129.304 77.3597C128.551 77.318 128.033 76.9306 127.804 76.6028C127.576 76.263 127.594 76.0306 127.636 76.0187L127.63 76.0306Z" fill="#80604F"/>
<path d="M129.358 77.6697C129.358 77.6697 129.316 77.6697 129.292 77.6697C128.431 77.628 127.828 77.1809 127.551 76.7875C127.329 76.4657 127.25 76.1379 127.335 75.9352L127.401 75.7862L127.533 75.7504C127.762 75.6789 127.907 75.8577 127.979 75.9531C128.027 76.0187 128.099 76.1081 128.214 76.2094C128.425 76.3942 128.822 76.5849 129.28 76.5611C130.333 76.5134 131.646 75.1782 132.206 73.5868C132.489 72.7822 132.586 71.9298 132.489 71.1192C132.423 70.3801 132.152 69.8258 131.767 69.6291C131.411 69.4205 131.092 69.5636 130.966 69.7126C130.863 69.8199 130.827 69.9093 130.803 69.9808C130.779 70.0464 130.713 70.2073 130.556 70.249L130.388 70.3205L130.219 70.1536C130.068 69.9927 130.014 69.6291 130.243 69.2059C130.4 68.9258 130.665 68.7053 130.984 68.5801C131.363 68.4311 131.827 68.449 132.254 68.6338C133.194 69.0033 133.651 70.1179 133.748 70.9583C133.904 71.9358 133.802 73.0265 133.453 74.016C132.694 76.1438 130.978 77.6637 129.346 77.6637L129.358 77.6697ZM132.796 69.9152C132.953 70.2371 133.055 70.6245 133.091 71.0596C133.194 71.9537 133.091 72.8954 132.778 73.7835C132.309 75.1306 131.399 76.263 130.43 76.8114C131.441 76.3226 132.405 75.2021 132.893 73.8193C133.206 72.9252 133.302 71.9358 133.158 71.0417C133.115 70.6603 132.989 70.255 132.796 69.9093V69.9152Z" fill="#80604F"/>
<path d="M86.1404 63.776C86.1343 63.931 85.5021 64.0979 84.5326 63.7522C84.0568 63.5734 83.5028 63.2396 83.0572 62.6793C82.6116 62.1191 82.3106 61.3442 82.3467 60.4978C82.3647 59.6455 82.8224 58.8349 83.4065 58.3879C83.9846 57.923 84.6831 57.7441 85.2431 57.8037C85.8212 57.8753 86.1042 58.066 86.327 58.1375C86.5378 58.221 86.6823 58.2567 86.7064 58.3402C86.7365 58.4177 86.604 58.5548 86.3029 58.6203C86.0139 58.6918 85.5864 58.6263 85.2491 58.6859C84.5566 58.7753 83.6173 59.4905 83.5992 60.5515C83.5751 61.082 83.7437 61.6124 83.9966 62.0177C84.2556 62.429 84.6048 62.7449 84.936 62.9774C85.6044 63.4363 86.1584 63.6032 86.1404 63.782V63.776Z" fill="#80604F"/>
<path d="M85.5742 64.2529C85.2611 64.2529 84.8697 64.1873 84.4241 64.0264C83.9785 63.8595 83.3462 63.5257 82.8163 62.8581C82.2804 62.1787 82.0034 61.3323 82.0395 60.474C82.0636 59.5859 82.5273 58.668 83.2198 58.1435C83.8099 57.6726 84.5807 57.4282 85.2671 57.4998C85.7368 57.5594 86.0259 57.6845 86.2427 57.7739C86.3089 57.8037 86.3631 57.8276 86.4173 57.8455L86.5558 57.8991C86.7364 57.9706 86.9291 58.0422 86.9893 58.2448C87.0195 58.3342 87.0134 58.4475 86.9532 58.5488C86.8569 58.7157 86.6461 58.8409 86.3571 58.9005C86.0379 58.9779 85.5983 58.9124 85.2912 58.966C84.7192 59.0375 83.9062 59.6395 83.8942 60.5455C83.8701 60.9866 84.0026 61.4575 84.2495 61.8449C84.5024 62.2502 84.8577 62.5422 85.1106 62.7151C85.3755 62.8939 85.6224 63.031 85.8211 63.1383C86.1945 63.3409 86.4715 63.4899 86.4414 63.7939C86.4353 63.8654 86.3992 63.9906 86.2487 64.0919C86.1102 64.1813 85.8813 64.241 85.5803 64.241L85.5742 64.2529ZM85.0202 58.0839C84.5385 58.0839 84.0146 58.2746 83.5931 58.6144C83.0331 59.0375 82.6597 59.7766 82.6417 60.4978C82.6116 61.219 82.8404 61.9224 83.292 62.4886C83.7376 63.0489 84.2675 63.329 84.6409 63.4661C84.9962 63.5913 85.2852 63.639 85.502 63.6509C85.2972 63.5376 85.0443 63.4005 84.7673 63.2098C84.3398 62.9118 83.9845 62.5542 83.7437 62.1667C83.4365 61.678 83.274 61.076 83.298 60.5276C83.3161 59.2819 84.4181 58.4773 85.2069 58.3759C85.4719 58.3342 85.8031 58.3581 86.056 58.3402C86.0379 58.3342 86.0259 58.3283 86.0078 58.3163C85.8211 58.2329 85.5803 58.1316 85.2069 58.0839C85.1467 58.0779 85.0865 58.072 85.0323 58.072L85.0202 58.0839Z" fill="#80604F"/>
<path d="M46.2465 46.6399C40.0201 34.5225 39.171 19.8182 43.9522 7.07496C44.8615 4.65505 46.3368 1.99672 48.9021 1.53181C51.7684 1.01326 54.2554 3.52854 55.7427 6.01401C59.0546 11.5631 60.3915 18.1255 60.265 24.5687C60.1325 31.0118 58.597 37.3596 56.4774 43.4571C55.7186 45.6446 54.7431 47.9691 52.7319 49.1493" fill="#F5F5F5"/>
<path d="M53.0994 10.3949C52.7441 9.39952 52.2021 8.28493 51.1604 8.06439C49.7754 7.77233 48.7216 9.25051 48.1556 10.5379C43.2238 21.7196 43.5971 35.0709 49.1431 45.9664L50.9978 46.4969C56.4836 35.3748 57.2604 22.0653 53.0933 10.3949H53.0994Z" fill="#A5A5A5"/>
<path d="M41.0801 46.8307C40.2009 47.0095 28.013 50.3414 22.4851 60.0449C18.1314 67.692 19.673 76.7458 22.4128 80.6737C25.1527 84.6076 34.8958 94.925 42.5554 94.4899C42.5554 94.4899 58.3744 94.019 63.5952 88.4222C68.816 82.8254 75.9698 68.8364 70.1829 56.9395C64.3961 45.0426 52.431 44.5419 41.0801 46.8307Z" fill="#EBEBEB"/>
<path d="M30.9213 161.491C29.7892 154.892 29.2834 148.193 29.3978 141.499L19.2091 134.407C17.2581 135.199 15.8008 136.922 14.9518 138.835C14.1027 140.748 13.7836 142.846 13.5608 144.927C12.6635 153.384 13.2296 161.943 14.5423 170.348C14.9036 172.642 15.4275 175.122 17.2159 176.624C19.2994 178.37 22.4488 178.186 24.9899 177.196C27.2722 176.308 29.3798 174.788 30.5359 172.648C32.3484 169.305 31.5596 165.234 30.9213 161.491Z" fill="#EBEBEB"/>
<path d="M58.5127 142C58.055 141.017 57.1638 140.176 56.0799 140.003L42.8141 150.976C39.9297 153.45 37.8583 156.746 36.389 160.233C34.9197 163.72 34.0285 167.415 33.2035 171.099C32.4809 174.329 31.8245 177.792 33.071 180.862C34.2814 183.836 37.3163 185.976 40.55 186.202C43.7836 186.429 47.0654 184.748 48.7997 182.042C50.4797 179.425 50.6965 176.183 51.118 173.107C51.7322 168.613 52.8703 164.185 54.5022 159.947C56.3629 155.113 58.9101 150.362 59.0426 145.189C59.0727 144.104 58.9824 142.984 58.5247 142H58.5127Z" fill="#EBEBEB"/>
<path d="M65.3896 115.679C65.0223 107.698 61.6562 97.4641 59.4101 89.9123L41.1764 90.0494C34.3779 97.3687 36.2025 92.4097 31.3851 101.338C31.3851 101.338 30.7288 101.648 29.0487 103.442C23.6713 109.206 18.4505 121.848 18.7456 129.209C19.0045 135.658 21.4012 141.875 25.809 146.095C30.3072 150.398 36.4554 152.818 42.5433 152.121C49.956 151.268 56.6582 145.856 60.5542 138.913C64.4502 131.963 65.763 123.666 65.3896 115.685V115.679Z" fill="#EBEBEB"/>
<path d="M20.8048 117.694C18.902 117.652 16.6981 116.835 15.0541 115.888C14.6687 115.661 14.181 115.411 13.8016 115.649C13.5848 115.78 13.4825 116.025 13.3861 116.257C12.8442 117.622 12.3323 119.005 11.8626 120.394C11.6639 120.972 11.4833 121.627 11.7542 122.176C12.0072 122.682 12.5732 122.939 13.1031 123.141C15.4937 124.059 16.4632 124.59 19.0284 124.715L20.8048 117.688V117.694Z" fill="#CC6F69"/>
<path d="M16.2284 120.108C15.7346 119.941 15.1867 119.941 14.6929 120.102C14.3737 120.203 14.0305 120.471 14.1028 120.793C14.1449 120.972 14.3135 121.109 14.4942 121.157C14.6748 121.21 14.8675 121.192 15.0542 121.175C16.1321 121.061 17.1919 120.817 18.2035 120.441C18.2577 120.423 18.3119 120.4 18.336 120.352C18.3782 120.274 18.3119 120.179 18.2517 120.114C17.6495 119.452 16.9932 118.761 16.12 118.552C15.825 118.48 15.4516 118.498 15.283 118.755C15.1084 119.029 15.283 119.392 15.5299 119.607C15.7768 119.821 16.0899 119.953 16.2946 120.203" fill="#F5F5F5"/>
<path d="M37.9066 60.4382C38.1836 61.2071 37.7741 62.0595 36.9973 62.3277C36.2205 62.6019 35.3594 62.1966 35.0884 61.4277C34.8175 60.6588 35.2209 59.8064 35.9977 59.5382C36.7745 59.264 37.6356 59.6694 37.9066 60.4382Z" fill="#263238"/>
<path d="M45.4578 57.7978C45.7348 58.5667 45.3253 59.419 44.5485 59.6872C43.7717 59.9614 42.9106 59.5561 42.6396 58.7872C42.3626 58.0183 42.7721 57.166 43.5489 56.8978C44.3257 56.6236 45.1868 57.0289 45.4578 57.7978Z" fill="#263238"/>
<path d="M48.9505 80.6082C48.9505 80.6082 48.8301 80.4413 48.6735 80.1134C48.5109 79.7856 48.2942 79.3088 48.0292 78.7128C47.5053 77.5207 46.8188 75.8637 46.1324 74.0041C45.4459 72.1444 44.8859 70.4338 44.5125 69.194C44.3259 68.5741 44.1813 68.0675 44.097 67.7159C44.0067 67.3642 43.9706 67.1675 43.9886 67.1615C44.0308 67.1496 44.3018 67.9066 44.7293 69.1285C45.1569 70.3563 45.747 72.0431 46.4335 73.9027C47.1199 75.7564 47.7703 77.4253 48.24 78.6353C48.7097 79.8452 48.9987 80.5962 48.9565 80.6141L48.9505 80.6082Z" fill="#939393"/>
<path d="M48.9384 80.8406C48.7818 80.8406 48.6855 80.6439 48.4747 80.2148C48.3121 79.8869 48.0893 79.4042 47.8244 78.8081C47.4691 77.9975 46.7465 76.3107 45.9215 74.0875C45.0965 71.8583 44.5546 70.106 44.2956 69.2596C44.109 68.6337 43.9645 68.1271 43.8741 67.7695C43.7296 67.2092 43.6814 67.0185 43.9163 66.947C44.0889 66.8953 44.4281 67.5986 44.9339 69.0569C45.2772 70.0344 45.9095 71.8583 46.6381 73.8252C47.2884 75.5895 47.9147 77.2048 48.4446 78.5518C49.0066 79.9903 49.2053 80.7452 49.0407 80.8168C49.0046 80.8346 48.9685 80.8406 48.9384 80.8406Z" fill="#939393"/>
<path d="M56.9713 46.3896C56.9713 46.3896 56.9111 46.3896 56.7967 46.3777C56.6642 46.3598 56.5016 46.3419 56.2909 46.3181C55.8513 46.2525 55.1949 46.181 54.3519 46.0916C52.6718 45.9307 50.215 45.7936 47.1981 46.0201C44.1873 46.2585 40.6164 46.9082 36.8829 48.3148C33.1495 49.6857 29.3016 51.9924 26.1523 55.3183C24.5927 56.9872 23.2739 58.8111 22.2864 60.7184C21.3048 62.6317 20.6485 64.6105 20.2872 66.5536C19.5646 70.4398 19.956 74.0696 20.805 76.9246C21.2567 78.3492 21.7986 79.5889 22.3827 80.626C22.6838 81.1386 22.9849 81.6035 23.2739 82.0208C23.5931 82.4201 23.8641 82.8016 24.135 83.1175C24.418 83.4215 24.671 83.6956 24.8938 83.9341C25.1226 84.1665 25.3394 84.3334 25.4959 84.4884C25.6465 84.6255 25.7729 84.7387 25.8693 84.8281C25.9536 84.9056 25.9957 84.9473 25.9897 84.9533C25.9897 84.9533 25.9415 84.9235 25.8512 84.8519C25.7488 84.7685 25.6164 84.6672 25.4538 84.536C25.2852 84.393 25.0624 84.2261 24.8275 83.9996C24.5987 83.7672 24.3337 83.4989 24.0387 83.195C23.7557 82.885 23.4726 82.5036 23.1475 82.1042C22.8524 81.681 22.5393 81.2221 22.2262 80.7095C21.624 79.6724 21.0579 78.4207 20.5883 76.9842C19.7091 74.1054 19.2876 70.4398 19.9981 66.4999C20.3534 64.533 21.0158 62.5184 22.0034 60.5813C23.003 58.6442 24.3337 56.7964 25.9114 55.1097C29.0969 51.742 32.9929 49.4175 36.7685 48.0526C40.5381 46.6519 44.1451 46.0141 47.168 45.8055C50.2029 45.6029 52.6658 45.7697 54.3519 45.9724C55.1949 46.0797 55.8453 46.1691 56.2848 46.2585C56.4896 46.2943 56.6522 46.3241 56.7846 46.3539C56.8991 46.3777 56.9533 46.3896 56.9533 46.3956L56.9713 46.3896Z" fill="#939393"/>
<path d="M26.0197 85.1738C25.9173 85.1738 25.809 85.0904 25.7247 85.0248L25.3272 84.7029C25.267 84.6493 25.2068 84.6016 25.1406 84.5539C25.0021 84.4407 24.8455 84.3155 24.6829 84.1605L23.888 83.3499C23.6953 83.1354 23.5087 82.9029 23.31 82.6526C23.2076 82.5214 23.0992 82.3843 22.9848 82.2473C22.6957 81.836 22.3706 81.3592 22.0454 80.8227C21.3951 79.7022 20.835 78.4386 20.3894 77.0498C19.6668 74.6955 18.9804 70.9523 19.7933 66.4582C20.1666 64.3959 20.8471 62.3873 21.8226 60.48C22.8222 58.5428 24.147 56.6832 25.7668 54.9547C29.5183 50.9851 33.7877 48.893 36.7082 47.838C40.0683 46.5863 43.591 45.8293 47.1739 45.579C49.6488 45.4121 52.0816 45.4717 54.3999 45.7459C55.3092 45.8591 55.9295 45.9486 56.351 46.032L56.8508 46.1214C57.0435 46.1572 57.1097 46.175 57.1699 46.2585L57.2121 46.3241V46.4015C57.176 46.634 56.9471 46.6102 56.7845 46.5863L56.2787 46.5208C55.8753 46.4611 55.2791 46.3896 54.3458 46.2943C52.0093 46.0678 49.6187 46.0439 47.2341 46.2287C43.7175 46.5088 40.267 47.2718 36.9792 48.5115C34.137 49.5546 29.988 51.599 26.3328 55.4613C24.7612 57.1362 23.4725 58.9362 22.503 60.8078C21.5576 62.6495 20.8953 64.5867 20.5279 66.5774C19.721 70.9225 20.3593 74.5584 21.0398 76.8412C21.4613 78.1823 21.9852 79.4161 22.5994 80.4949C22.9005 81.0135 23.2136 81.4843 23.4786 81.8777C23.587 82.0148 23.7014 82.1579 23.8037 82.3009C23.9844 82.5334 24.153 82.7539 24.3216 82.9506L25.0803 83.7612C25.2188 83.8983 25.3513 84.0175 25.4717 84.1248C25.544 84.1903 25.6102 84.2499 25.6705 84.3036L26.0438 84.6433C26.1763 84.7685 26.3208 84.9056 26.1883 85.0725C26.1402 85.138 26.0799 85.1619 26.0257 85.1619L26.0197 85.1738Z" fill="#939393"/>
<path d="M39.406 64.6224C39.135 64.8191 38.8399 65.1052 38.9062 65.4271C38.9604 65.6893 39.2313 65.8443 39.4722 65.9635C40.5681 66.494 41.7123 66.9351 42.8805 67.2808C43.2719 67.394 43.6934 67.4953 44.0788 67.3582C44.3678 67.2569 44.5906 67.0304 44.7954 66.798C45.7468 65.7311 46.4754 64.4794 46.9331 63.1323C47.0957 62.6555 46.6802 62.1668 46.1804 62.2502C43.9102 62.6257 41.0619 63.4125 39.406 64.6165V64.6224Z" fill="#CC6F69"/>
<path d="M48.7455 150.058C48.7455 150.058 48.613 150.136 48.336 150.261C48.065 150.386 47.6676 150.571 47.1317 150.768C46.0718 151.173 44.4942 151.68 42.4769 151.99C40.4656 152.3 37.9968 152.371 35.3472 151.835C34.0285 151.555 32.6676 151.108 31.3488 150.458C30.024 149.82 28.7474 148.986 27.5311 148.026C25.0923 146.101 23.1774 143.764 21.973 141.368C20.7687 138.99 19.8654 136.749 19.3656 134.788C18.8538 132.833 18.7033 131.194 18.6792 130.073C18.6671 129.507 18.6792 129.072 18.6972 128.78C18.7153 128.482 18.7273 128.327 18.7394 128.333C18.7755 128.333 18.7394 128.953 18.7996 130.073C18.8598 131.188 19.0465 132.809 19.5824 134.74C20.1063 136.671 21.0216 138.889 22.232 141.249C23.4303 143.597 25.3271 145.892 27.7298 147.794C30.1264 149.701 32.8061 151.024 35.4134 151.561C38.0208 152.109 40.4596 152.055 42.4528 151.781C44.452 151.507 46.0297 151.03 47.0955 150.666C48.1674 150.303 48.7334 150.035 48.7515 150.07L48.7455 150.058Z" fill="#939393"/>
<path d="M39.3276 152.455C37.9728 152.455 36.6239 152.317 35.2991 152.049C33.86 151.745 32.4991 151.274 31.2465 150.655C29.982 150.041 28.6813 149.218 27.3866 148.199C24.9599 146.286 23.0149 143.955 21.7624 141.464C20.5099 138.996 19.6307 136.767 19.1369 134.842C18.601 132.785 18.4625 131.116 18.4444 130.073C18.4324 129.507 18.4444 129.066 18.4685 128.756C18.4986 128.244 18.5107 128.094 18.7455 128.1C18.9743 128.106 18.9743 128.273 18.9804 128.679C18.9804 128.971 18.9804 129.436 19.0225 130.049C19.1008 131.552 19.3657 133.101 19.7933 134.669C20.2991 136.54 21.1843 138.716 22.4308 141.136C23.6472 143.52 25.5259 145.761 27.8684 147.603C30.259 149.51 32.8844 150.798 35.4617 151.328C37.7199 151.799 40.0623 151.876 42.4228 151.543C43.9824 151.328 45.4878 150.964 47.0234 150.434C47.5954 150.237 48.023 150.076 48.2939 149.969C48.7155 149.802 48.86 149.749 48.9563 149.957C49.0467 150.178 48.9142 150.237 48.4385 150.458C48.1675 150.583 47.764 150.774 47.2161 150.97C45.7287 151.543 44.145 151.954 42.5191 152.204C41.4533 152.365 40.3935 152.449 39.3337 152.449L39.3276 152.455Z" fill="#939393"/>
<path d="M59.0667 161.896C54.5324 144.837 61.4875 136.224 64.7873 126.467L59.0667 161.896Z" fill="#FFD469"/>
<path d="M64.7873 126.467C64.7873 126.467 64.7632 126.592 64.691 126.831C64.6006 127.093 64.4922 127.433 64.3537 127.85C64.0527 128.732 63.5649 129.99 62.9206 131.528C61.662 134.609 59.693 138.799 58.5669 143.74C58.0009 146.208 57.7961 148.616 57.7299 150.804C57.7239 152.991 57.8684 154.964 58.1032 156.609C58.2297 157.426 58.3381 158.165 58.4404 158.82C58.5789 159.458 58.6933 160.006 58.7957 160.477C58.88 160.906 58.9523 161.252 59.0065 161.526C59.0546 161.765 59.0727 161.896 59.0607 161.896C59.0486 161.896 59.0125 161.777 58.9463 161.538C58.874 161.27 58.7837 160.924 58.6753 160.501C58.5609 160.036 58.4224 159.488 58.2658 158.85C58.1514 158.188 58.0249 157.449 57.8804 156.633C57.6155 154.988 57.4469 153.003 57.4348 150.792C57.483 148.586 57.6817 146.154 58.2538 143.663C59.3919 138.68 61.4031 134.484 62.7098 131.432C63.3722 129.906 63.8901 128.661 64.2273 127.796C64.3899 127.391 64.5163 127.057 64.6187 126.801C64.709 126.575 64.7632 126.455 64.7753 126.461L64.7873 126.467Z" fill="#B28F38"/>
<path d="M58.9884 162.534L58.7717 162.408C58.5368 162.277 58.4826 162.092 58.3742 161.693L57.6878 158.993L57.2964 156.734C57.0073 154.934 56.8507 152.884 56.8447 150.798C56.9049 148.086 57.1819 145.719 57.6757 143.538C58.6633 139.223 60.265 135.557 61.5597 132.607C61.7765 132.118 61.9752 131.653 62.1679 131.212C62.8122 129.734 63.3361 128.482 63.6793 127.594L64.0708 126.592C64.2273 126.211 64.414 125.746 64.9499 125.895L64.9921 125.907C65.5521 126.104 65.3835 126.646 65.2691 127.01L64.9258 128.035C64.6187 128.941 64.1189 130.222 63.4806 131.754C63.2638 132.291 63.017 132.863 62.7641 133.471C61.5657 136.308 60.0784 139.842 59.1571 143.872C58.6813 145.94 58.4164 148.217 58.3381 150.821C58.3321 152.812 58.4585 154.791 58.7054 156.525L59.0426 158.737L59.6087 161.413C59.6809 161.8 59.7833 162.325 59.2353 162.48L58.9945 162.545L58.9884 162.534Z" fill="#B28F38"/>
<path d="M55.1948 98.3045C54.707 97.9648 54.2132 97.4999 51.9972 96.3674C52.0635 95.6343 52.0815 94.8892 52.0996 94.1501C52.1177 93.2501 52.1116 92.2607 51.5155 91.5872C51.0458 91.0567 50.269 90.8302 49.5705 90.9911C48.878 91.1461 48.2879 91.6587 47.9928 92.3024C47.7218 92.8985 47.8423 93.5243 47.6315 94.1442C47.5051 94.5078 47.21 94.6687 47.1317 94.7641C45.2349 94.1799 43.5307 93.3038 43.5307 93.3038C41.9109 92.517 39.1951 91.6229 37.4187 91.3011C36.395 91.1163 34.992 90.9911 34.3717 92.1713C33.9984 92.8746 34.1068 93.7269 34.5223 94.4124C35.1546 95.4555 35.835 95.6462 36.8647 96.1826C36.4191 96.1767 35.4316 96.3137 34.9739 96.5283C34.3055 96.8383 33.896 97.1303 33.6371 97.9111C33.4203 98.5787 33.7395 99.592 34.2694 100.051C34.7993 100.51 35.4075 100.826 36.0699 101.082C34.6066 101.273 33.5227 102.602 33.7636 104.038C34.0104 105.481 36.0879 106.405 37.5331 106.113C37.1417 106.309 36.7744 106.679 36.3047 107.251C35.9013 107.746 35.7206 108.658 35.9193 109.26C36.1722 110.029 36.4733 110.583 37.2019 110.941C37.9306 111.304 38.8097 111.298 39.5986 111.078C40.1405 110.929 41.5255 111.233 42.0855 111.233C42.6094 111.233 45.1566 113.134 45.4878 113.533C47.6436 116.18 48.9322 117.527 53.3581 118.51L59.6809 101.857C55.3092 99.1747 56.8567 99.4608 55.1887 98.3045H55.1948Z" fill="#F9C9A5"/>
<path d="M41.2125 101.44C41.1884 101.529 39.9299 101.219 38.3401 101.154C36.7564 101.076 35.4738 101.267 35.4558 101.171C35.4377 101.094 36.7263 100.76 38.3522 100.844C39.978 100.915 41.2366 101.368 41.2065 101.44H41.2125Z" fill="#BF8F76"/>
<path d="M41.1883 105.266C41.1883 105.368 40.2248 105.415 39.0928 105.725C37.9547 106.017 37.1779 106.578 37.1176 106.512C37.0936 106.488 37.2501 106.285 37.5813 106.065C37.9125 105.838 38.4123 105.588 39.0024 105.427C40.1887 105.105 41.1823 105.195 41.1823 105.266H41.1883Z" fill="#BF8F76"/>
<path d="M36.4854 96.2065C36.4734 96.1409 37.8704 95.9621 39.4963 96.4806C41.1101 97.0111 42.194 97.8634 42.1518 97.9111C42.0976 98.0065 40.9535 97.2793 39.3999 96.7787C37.8403 96.2839 36.4794 96.3137 36.4854 96.2124V96.2065Z" fill="#BF8F76"/>
<path d="M41.5196 107.609C41.4533 107.65 41.0318 106.941 41.0017 105.958C40.9656 104.974 41.3449 104.241 41.4172 104.283C41.5075 104.313 41.2847 105.04 41.3148 105.952C41.3389 106.864 41.6039 107.573 41.5196 107.609Z" fill="#BF8F76"/>
<path d="M41.7363 99.1032C41.652 99.1032 41.6039 98.5251 41.8146 97.8456C42.0194 97.1661 42.3867 96.7131 42.4529 96.7548C42.5312 96.8025 42.3024 97.2972 42.1157 97.935C41.917 98.5668 41.8267 99.1092 41.7424 99.1032H41.7363Z" fill="#BF8F76"/>
<path d="M41.2123 102.775C41.128 102.793 40.9654 102.352 40.9774 101.773C40.9895 101.201 41.1762 100.76 41.2544 100.784C41.3387 100.808 41.2966 101.243 41.2906 101.779C41.2785 102.316 41.2966 102.757 41.2123 102.775Z" fill="#BF8F76"/>
<path d="M112.913 120.924C105.946 127.475 86.8811 131.76 76.313 130.193C65.7449 128.625 47.8003 117.038 47.8003 117.038L54.6168 97.8038C54.6168 97.8038 76.024 105.517 76.5719 105.427C76.5719 105.427 104.404 92.4335 111.654 96.5939" fill="#FFD469"/>
<path d="M112.564 120.441C112.564 120.441 112.455 120.519 112.244 120.686L111.407 121.365C111.197 121.556 110.89 121.759 110.534 121.991C110.39 122.086 110.239 122.182 110.071 122.295C109.607 122.629 109.029 122.945 108.36 123.314L105.566 124.703C105.259 124.834 104.94 124.965 104.609 125.102L103.242 125.663L102.369 125.973C100.002 126.843 97.2805 127.618 94.2757 128.273C90.747 129.036 87.4291 129.507 84.1292 129.704C82.4792 129.823 80.6667 129.823 78.4567 129.704C76.4395 129.531 74.4644 129.149 72.5856 128.571C69.1532 127.516 65.4378 125.943 60.5362 123.463C56.4475 121.359 52.4792 119.094 48.7216 116.728L55.0866 98.7694L61.5599 101.076L69.7494 103.967L73.7779 105.35L76.0902 106.083C76.2287 106.113 76.3672 106.136 76.4937 106.154L76.7104 106.178L76.8429 106.119L77.5354 105.803C86.9293 101.577 95.5343 98.5131 101.827 97.1601C103.332 96.8442 104.735 96.6237 106.006 96.5104C107.307 96.3853 108.379 96.4389 109.041 96.4926C109.992 96.6118 110.558 96.7965 110.787 96.88C111.209 97.0648 111.438 97.1542 111.438 97.1542L111.943 96.0753C111.943 96.0753 111.733 95.9621 111.287 95.7475C110.92 95.5925 110.257 95.378 109.191 95.223C108.017 95.1097 106.969 95.1038 105.892 95.1992C104.573 95.3064 103.11 95.521 101.55 95.8369C95.0345 97.1899 86.1163 100.337 76.4094 104.706C69.7975 102.453 62.5233 99.8542 55.5803 97.3628L54.924 97.1244C54.924 97.1244 54.8939 97.1124 54.8758 97.1065L54.1592 96.8442L53.8882 97.6071L53.6594 98.2568L47.4029 115.894L47.15 116.615L46.885 117.354L47.3908 117.67C47.445 117.706 47.4932 117.735 47.5474 117.771L48.1977 118.182C51.9071 120.501 55.8152 122.718 59.8377 124.786C63.1918 126.479 67.6237 128.595 72.14 129.972C74.1211 130.58 76.2046 130.979 78.3483 131.152C79.4443 131.206 80.4379 131.236 81.3652 131.236C82.3889 131.236 83.3283 131.2 84.2255 131.134C87.5977 130.92 90.9879 130.431 94.5828 129.638C97.6479 128.953 100.43 128.148 102.839 127.242L103.736 126.92L105.121 126.342C105.464 126.199 105.795 126.062 106.132 125.913L108.192 124.912L108.969 124.471C109.685 124.065 110.305 123.72 110.817 123.338C110.962 123.237 111.1 123.141 111.233 123.052C111.636 122.778 111.979 122.545 112.244 122.295L113.045 121.61C113.244 121.437 113.334 121.347 113.334 121.347L112.558 120.441H112.564Z" fill="#B28F38"/>
<path d="M84.0748 114.129C83.4967 112.472 82.4911 110.994 81.4734 109.564C77.5292 104.009 73.1755 98.7218 68.31 93.9356C66.6841 92.3382 64.9379 90.7587 62.764 90.0375C60.5962 89.3163 57.8985 89.6918 56.5015 91.4859L57.4649 98.1257C61.3911 103.645 69.3518 115.321 73.2779 120.841C73.9764 121.824 74.7472 122.861 75.8793 123.302C77.204 123.815 78.7034 123.392 79.9921 122.796C81.648 122.027 83.2317 120.9 84.0085 119.261C84.7613 117.676 84.6469 115.786 84.0688 114.129H84.0748Z" fill="#EBEBEB"/>
<path d="M132.14 163.296C132.05 169.322 127.311 182.751 113.051 187.978C107.343 190.071 82.9368 192.788 76.9332 193.79C71.6702 194.672 66.1965 193.963 61.0058 195.208C57.2844 196.102 53.8039 197.98 49.9981 198.349C43.8861 198.951 37.8584 195.393 34.4381 190.345C31.0178 185.296 29.9218 178.996 30.1386 172.922C30.2711 169.227 31.1262 165.097 34.2454 163.058C36.8528 161.353 40.3935 161.657 43.1997 163.022C45.9997 164.393 48.2278 166.664 50.3896 168.899C54.2735 163.189 63.9323 158.844 71.4354 155.912C77.9027 153.384 93.8722 149.504 98.8461 154.314" fill="#FFD469"/>
<path d="M98.1535 154.278C98.1535 154.278 98.0873 154.231 97.9608 154.123C97.8343 154.022 97.6537 153.855 97.3767 153.688C96.8468 153.331 95.9797 152.89 94.7693 152.58C92.3486 151.918 88.6091 151.853 83.9905 152.544C81.6781 152.89 79.137 153.414 76.4212 154.153C75.0603 154.523 73.6573 154.946 72.2241 155.447C70.7909 155.947 69.3337 156.555 67.8283 157.175C64.8295 158.433 61.6681 159.863 58.5067 161.687C56.929 162.593 55.3513 163.606 53.8579 164.787C52.3646 165.967 50.9314 167.32 49.8053 168.947L49.709 169.084L49.5946 168.965C48.2096 167.54 46.7885 166.074 45.1445 164.822C43.5127 163.565 41.6098 162.528 39.4842 162.164C37.3946 161.777 35.0462 162.057 33.2878 163.404C32.3966 164.053 31.6981 164.936 31.1682 165.919C30.6323 166.897 30.283 167.981 30.0421 169.09C29.5544 171.313 29.5243 173.656 29.6086 175.998C29.7049 178.34 30.0361 180.713 30.6503 183.031C31.2826 185.344 32.2039 187.621 33.5287 189.689C34.8234 191.769 36.5697 193.593 38.5929 195.059C40.1044 196.132 41.7724 196.979 43.5187 197.533C45.265 198.093 47.1076 198.308 48.9081 198.189C52.5512 197.938 55.827 196.263 59.2413 195.304C62.6797 194.308 66.2144 194.249 69.6047 194.141C71.3028 194.088 72.9888 194.022 74.6328 193.832C76.2707 193.629 77.9025 193.337 79.5164 193.128C85.9656 192.252 92.0957 191.477 97.8163 190.637C100.677 190.22 103.435 189.778 106.072 189.302C107.391 189.063 108.679 188.807 109.932 188.509C111.19 188.229 112.377 187.853 113.497 187.347C115.785 186.459 117.778 185.225 119.579 183.973C120.44 183.294 121.313 182.668 122.048 181.935C122.421 181.577 122.818 181.249 123.156 180.886C123.493 180.516 123.83 180.152 124.161 179.801C124.498 179.455 124.793 179.08 125.083 178.71C125.372 178.34 125.655 177.983 125.938 177.631C126.431 176.88 126.955 176.189 127.365 175.468C127.78 174.752 128.202 174.079 128.515 173.387C128.683 173.048 128.846 172.72 129.009 172.398C129.159 172.07 129.286 171.748 129.418 171.432C130.472 168.923 130.954 166.849 131.189 165.436C131.243 165.085 131.285 164.769 131.327 164.5C131.345 164.232 131.363 164.006 131.375 163.821C131.405 163.457 131.423 163.267 131.423 163.267C131.423 163.267 131.423 163.457 131.405 163.821C131.393 164.006 131.381 164.238 131.369 164.506C131.333 164.781 131.291 165.091 131.249 165.448C131.038 166.867 130.574 168.953 129.533 171.48C129.4 171.796 129.274 172.124 129.123 172.452C128.966 172.773 128.804 173.107 128.635 173.447C128.322 174.138 127.901 174.818 127.491 175.539C127.082 176.266 126.558 176.964 126.064 177.721C125.787 178.078 125.498 178.442 125.209 178.811C124.92 179.181 124.631 179.562 124.288 179.914C123.956 180.272 123.625 180.641 123.282 181.011C122.939 181.38 122.547 181.708 122.168 182.072C121.427 182.811 120.554 183.443 119.687 184.128C117.875 185.398 115.869 186.649 113.569 187.549C112.449 188.056 111.233 188.449 109.974 188.729C108.722 189.033 107.427 189.29 106.108 189.534C103.465 190.023 100.707 190.47 97.8404 190.887C92.1198 191.745 85.9837 192.526 79.5404 193.408C77.9266 193.617 76.3128 193.909 74.6508 194.118C72.9888 194.314 71.2968 194.374 69.5986 194.433C66.2024 194.547 62.6978 194.606 59.3076 195.59C57.6155 196.073 55.9535 196.722 54.2433 197.294C52.5392 197.867 50.7628 198.373 48.9141 198.493C47.0715 198.612 45.1867 198.397 43.4043 197.825C41.6219 197.259 39.9237 196.4 38.3882 195.31C36.3288 193.82 34.5524 191.966 33.2397 189.85C31.8968 187.752 30.9635 185.445 30.3252 183.109C29.7049 180.76 29.3737 178.37 29.2774 176.01C29.1991 173.65 29.2232 171.295 29.723 169.024C29.9699 167.892 30.3312 166.783 30.8792 165.776C31.4211 164.763 32.1558 163.845 33.0831 163.165C33.9924 162.468 35.0823 162.045 36.1903 161.842C37.2983 161.657 38.4304 161.681 39.5143 161.878C41.6941 162.253 43.6391 163.32 45.2951 164.596C46.9631 165.871 48.3842 167.35 49.7692 168.774L49.5584 168.792C50.7086 167.135 52.1658 165.77 53.6713 164.584C55.1827 163.392 56.7724 162.379 58.3561 161.473C61.5356 159.649 64.709 158.224 67.7138 156.973C69.2253 156.359 70.6825 155.757 72.1277 155.256C73.573 154.761 74.982 154.338 76.3429 153.974C79.0708 153.247 81.6179 152.735 83.9423 152.395C88.579 151.727 92.3365 151.817 94.7633 152.502C95.9797 152.824 96.8468 153.283 97.3707 153.659C97.6477 153.831 97.8223 154.004 97.9427 154.112C98.0632 154.219 98.1234 154.278 98.1234 154.278H98.1535Z" fill="#B28F38"/>
<path d="M47.9628 199.118C46.355 199.118 44.7412 198.868 43.2478 198.391C41.4172 197.807 39.6709 196.937 38.0692 195.792C35.9134 194.231 34.0768 192.282 32.758 190.166C31.4935 188.187 30.4879 185.862 29.7773 183.27C29.1691 180.981 28.8138 178.549 28.7115 176.04C28.6392 173.882 28.6332 171.349 29.1691 168.905C29.4581 167.576 29.8616 166.461 30.3855 165.496C31.0178 164.322 31.8186 163.38 32.758 162.689C33.6793 161.985 34.8415 161.49 36.1121 161.258C37.2683 161.061 38.4545 161.073 39.6529 161.294C41.6762 161.645 43.7115 162.599 45.6926 164.131C47.1499 165.246 48.4144 166.497 49.6248 167.737C50.5883 166.503 51.7806 165.341 53.3281 164.119C54.695 163.04 56.2547 162.009 58.0913 160.96C61.5116 158.999 64.9259 157.509 67.5213 156.424L68.0512 156.21C69.4 155.661 70.6766 155.143 71.9653 154.696C73.3262 154.225 74.7593 153.79 76.2226 153.402C78.836 152.705 81.4133 152.168 83.8882 151.811C88.4286 151.155 92.3668 151.203 94.9621 151.936C96.4193 152.323 97.3407 152.884 97.7562 153.182C97.997 153.331 98.1837 153.504 98.3102 153.617L98.3764 153.676C98.5269 153.808 98.5932 153.879 98.5932 153.879L97.8043 154.773C97.8043 154.773 97.7261 154.72 97.5815 154.6L97.4852 154.523C97.3708 154.427 97.2443 154.32 97.0697 154.213C96.6843 153.951 95.8955 153.498 94.6249 153.17C92.1801 152.502 88.4406 152.496 84.0869 153.146C81.6662 153.51 79.1431 154.046 76.5839 154.737C75.1507 155.125 73.7537 155.554 72.4229 156.019C71.1824 156.454 69.9299 156.967 68.6052 157.509L68.0572 157.735C65.51 158.808 62.1499 160.286 58.8079 162.212C57.0375 163.231 55.5381 164.226 54.2314 165.263C52.7079 166.467 51.5577 167.612 50.6485 168.816L50.2631 169.352L49.7874 170.038L49.2093 169.442L48.7456 168.965C47.5112 167.701 46.2225 166.414 44.7773 165.305C42.9768 163.922 41.1643 163.07 39.3819 162.76C37.196 162.361 35.1125 162.766 33.6553 163.887C32.8785 164.453 32.2281 165.228 31.6982 166.211C31.2345 167.057 30.8853 168.041 30.6263 169.233C30.1265 171.516 30.1326 173.936 30.2048 175.998C30.3072 178.394 30.6504 180.719 31.2285 182.9C31.8969 185.344 32.8423 187.531 34.0346 189.391C35.257 191.352 36.9491 193.152 38.9483 194.6C40.4236 195.649 42.0254 196.454 43.7055 196.985C45.3373 197.509 47.1258 197.73 48.8721 197.61C51.2326 197.449 53.5028 196.645 55.7007 195.864C56.8026 195.477 57.9407 195.071 59.0788 194.749C62.3908 193.79 65.7509 193.683 69.0086 193.587L69.5927 193.569C71.3691 193.51 72.9769 193.45 74.5727 193.265C75.4338 193.158 76.2949 193.027 77.156 192.896C77.9267 192.777 78.6915 192.663 79.4502 192.562C81.5096 192.282 83.539 192.014 85.5321 191.745C89.8136 191.179 93.8541 190.643 97.7441 190.065C100.833 189.618 103.531 189.176 105.982 188.729C107.493 188.455 108.704 188.205 109.806 187.943C111.076 187.663 112.208 187.293 113.262 186.816C115.707 185.868 117.748 184.545 119.248 183.496C119.422 183.359 119.621 183.204 119.826 183.049C120.482 182.543 121.102 182.066 121.638 181.529C121.783 181.386 121.927 181.261 122.066 181.136C122.307 180.915 122.529 180.713 122.734 180.498L123.734 179.413C124.047 179.091 124.318 178.746 124.583 178.412L125.474 177.28C125.625 177.047 125.805 176.785 125.986 176.523C126.305 176.064 126.6 175.629 126.853 175.193L127.154 174.681C127.461 174.156 127.756 173.656 127.985 173.161L128.485 172.154C128.569 171.969 128.653 171.76 128.738 171.564L128.882 171.224C129.713 169.251 130.297 167.278 130.611 165.365L130.761 164.256L130.797 163.797C130.827 163.416 130.851 163.219 130.851 163.219L132.05 163.285C132.05 163.285 132.05 163.481 132.032 163.869L131.947 164.93L131.869 165.544C131.568 167.552 130.978 169.632 130.111 171.724L129.978 172.046C129.888 172.267 129.798 172.493 129.695 172.714L129.195 173.727C128.955 174.264 128.647 174.788 128.322 175.348L128.033 175.855C127.756 176.344 127.443 176.803 127.112 177.285C126.937 177.542 126.763 177.798 126.588 178.066L125.661 179.252C125.378 179.616 125.089 179.991 124.739 180.349L123.746 181.434C123.505 181.696 123.246 181.929 122.999 182.155C122.867 182.274 122.734 182.394 122.608 182.519C122.024 183.103 121.343 183.633 120.681 184.146C120.482 184.301 120.283 184.456 120.085 184.611C118.495 185.731 116.369 187.12 113.81 188.121C112.714 188.616 111.468 189.027 110.125 189.331C109.011 189.6 107.77 189.856 106.235 190.142C103.742 190.601 101.032 191.048 97.9489 191.501C93.9866 192.091 89.8677 192.645 85.5141 193.23C83.5871 193.486 81.6301 193.754 79.6429 194.022C78.8902 194.124 78.1375 194.237 77.3848 194.35C76.5297 194.481 75.6385 194.618 74.7473 194.732C73.0793 194.928 71.3751 194.994 69.6409 195.053L69.0749 195.071C65.9074 195.173 62.6256 195.274 59.5004 196.186C58.3984 196.502 57.3265 196.877 56.1945 197.277C55.6164 197.479 55.0383 197.688 54.4602 197.879C52.8524 198.415 50.9496 198.981 48.9744 199.106C48.6372 199.13 48.3 199.142 47.9568 199.142L47.9628 199.118Z" fill="#B28F38"/>
<path d="M31.1381 100.367C30.4517 99.8483 29.4159 99.8721 28.7174 100.373C28.0189 100.879 27.6877 101.815 27.8563 102.65C28.0309 103.49 28.6753 104.205 29.4822 104.509C30.0904 104.742 30.825 104.742 31.3609 104.378C32.0173 103.937 32.2461 103.055 32.1257 102.28C32.0053 101.505 31.5235 101.034 31.1321 100.355" fill="#F9C9A5"/>
<path d="M33.2097 98.3164C32.5232 97.7979 31.4875 97.8217 30.7889 98.3224C30.0904 98.8231 29.7592 99.7648 29.9278 100.599C30.1025 101.44 30.7468 102.155 31.5537 102.459C32.1619 102.691 32.8965 102.691 33.4325 102.328C34.0888 101.887 34.3177 101.005 34.1972 100.23C34.0768 99.4549 33.595 98.984 33.2036 98.3045" fill="#F9C9A5"/>
<path d="M28.9824 103.83C28.3923 103.389 27.5071 103.407 26.911 103.836C26.3148 104.271 26.0258 105.07 26.1763 105.785C26.3269 106.506 26.8809 107.114 27.5734 107.382C28.0972 107.585 28.7235 107.585 29.1811 107.269C29.7412 106.887 29.9399 106.136 29.8375 105.475C29.7351 104.813 29.3257 104.408 28.9824 103.83Z" fill="#F9C9A5"/>
<path d="M104.801 65.2363C105.163 65.9516 105.289 66.9291 104.771 67.6086C104.38 68.1212 103.609 68.4192 103.013 68.0675C102.333 67.6622 102.019 66.7145 101.857 65.9874C101.676 65.1887 101.724 64.3423 101.947 63.5555C102.248 62.4946 103.103 60.9508 104.41 60.9628C105.56 60.9687 106.981 61.3144 107.535 62.3873C107.873 63.037 107.927 63.8476 107.897 64.5807C107.854 65.439 107.668 66.339 107.24 67.096C106.861 67.7576 107.891 68.3536 108.27 67.692C109.209 66.047 109.444 63.6509 108.631 61.9164C107.903 60.3608 105.994 59.7588 104.368 59.7707C102.453 59.7886 101.164 61.7674 100.749 63.4125C100.472 64.5032 100.484 65.6715 100.827 66.7443C101.14 67.7337 101.682 68.7887 102.694 69.2179C103.784 69.6768 105.048 69.194 105.735 68.2881C106.542 67.2212 106.397 65.7728 105.831 64.6344C105.488 63.9549 104.458 64.5509 104.801 65.2304V65.2363Z" fill="#CC6F69"/>
<path d="M101.724 52.5109C100.779 52.195 100.243 51.2533 100.532 50.401L101.339 48.0109C101.628 47.1585 102.628 46.7234 103.573 47.0393C104.519 47.3552 105.054 48.2969 104.765 49.1493L103.959 51.5394C103.67 52.3917 102.67 52.8268 101.724 52.5109Z" fill="#80604F"/>
<path d="M75.2892 47.838C74.3438 47.5221 73.8079 46.5804 74.0969 45.728L74.9038 43.3379C75.1928 42.4856 76.1925 42.0505 77.1379 42.3664C78.0833 42.6823 78.6192 43.624 78.3302 44.4763L77.5232 46.8665C77.2342 47.7188 76.2346 48.1539 75.2892 47.838Z" fill="#80604F"/>
<path d="M79.6067 74.6895C83.4666 76.5372 87.8685 76.0067 91.2767 73.4855C92.1981 72.8001 90.9997 71.4828 90.0784 72.1623C87.1459 74.3319 83.4425 74.5703 80.1788 73.0087C79.143 72.514 78.577 74.1948 79.6007 74.6895H79.6067Z" fill="#80604F"/>
<path d="M63.6852 87.4209C63.6852 87.4209 63.5889 87.5699 63.3781 87.8023C63.1674 88.0348 62.8422 88.3507 62.4146 88.7143C61.5656 89.4474 60.2709 90.3415 58.6993 91.0567C57.1216 91.766 55.5921 92.1355 54.472 92.2905C53.912 92.368 53.4544 92.4097 53.1412 92.4097C52.8281 92.4157 52.6535 92.4097 52.6475 92.3859C52.6475 92.3322 53.34 92.2786 54.4299 92.07C55.5258 91.8614 57.0192 91.462 58.5668 90.7706C60.1144 90.0732 61.397 89.2209 62.2761 88.5414C63.1553 87.8619 63.6491 87.3791 63.6912 87.4149L63.6852 87.4209Z" fill="#939393"/>
<path d="M52.9004 92.6362C52.5873 92.6362 52.4368 92.6004 52.4247 92.3978C52.4127 92.1653 52.5632 92.1475 53.1293 92.058C53.4364 92.0104 53.8639 91.9508 54.3878 91.8494C55.1766 91.7004 56.7483 91.3368 58.4705 90.562C60.1927 89.7812 61.5054 88.8514 62.1317 88.3626C62.5532 88.0348 62.8844 87.7547 63.1253 87.558C63.5588 87.1944 63.6793 87.0931 63.8419 87.254C64.0225 87.4268 63.872 87.5878 63.5468 87.9454C63.324 88.1957 62.9808 88.5176 62.5592 88.8752C61.945 89.3997 60.6443 90.413 58.7897 91.2474C56.935 92.0819 55.3031 92.3918 54.5022 92.4991C53.9482 92.5766 53.4785 92.6183 53.1413 92.6183C53.051 92.6183 52.9727 92.6183 52.9004 92.6183V92.6362Z" fill="#939393"/>
</g>
<defs>
<clipPath id="clip0_444_6981">
<rect width="138.517" height="199.118" fill="white"/>
</clipPath>
</defs>
</svg>
