<svg xmlns="http://www.w3.org/2000/svg" width="15" height="14" viewBox="0 0 15 14">
    <g id="Component_2_6" data-name="Component 2 – 6" transform="translate(0)">
        <path id="Path_9236" data-name="Path 9236"
                d="M5.432,3.369a3.074,3.074,0,0,0-3.068,3.08,3.957,3.957,0,0,0,.686,2.029,12.747,12.747,0,0,0,1.785,2.179c.711.721,1.485,1.411,2.219,2.064l.058.052c.493.438.972.865,1.389,1.265.417-.4.9-.827,1.389-1.265l.058-.052c.734-.653,1.508-1.343,2.219-2.064a12.747,12.747,0,0,0,1.785-2.179,3.957,3.957,0,0,0,.686-2.029A3.066,3.066,0,0,0,9.058,4.678L8.5,5.473l-.557-.795A3.06,3.06,0,0,0,5.432,3.369ZM1,6.449a4.428,4.428,0,0,1,7.5-3.21A4.428,4.428,0,0,1,16,6.449,5.3,5.3,0,0,1,15.111,9.2a14.08,14.08,0,0,1-1.976,2.422c-.747.757-1.554,1.476-2.284,2.125l-.024.022c-.73.65-1.368,1.217-1.832,1.709L8.5,16l-.495-.525c-.464-.492-1.1-1.059-1.832-1.709l-.024-.022c-.73-.649-1.537-1.368-2.283-2.125A14.08,14.08,0,0,1,1.889,9.2,5.3,5.3,0,0,1,1,6.449Z"
                transform="translate(-1 -2)" fill="#aeb3bc" fill-rule="evenodd" />
    </g>
</svg>
