<svg width="16" height="14" viewBox="0 0 16 14" fill="none" xmlns="http://www.w3.org/2000/svg">
<path fill-rule="evenodd" clip-rule="evenodd" d="M0.5 4.6375C0.5 2.41996 2.07727 0.25 4.59091 0.25C5.75602 0.25 6.5878 0.574841 7.22608 1.06533C7.52891 1.29804 7.78197 1.56577 7.99821 1.82706C8.21206 1.56632 8.46259 1.29866 8.76268 1.06659C9.39987 0.57386 10.233 0.25 11.4091 0.25C13.9515 0.25 15.5 2.42359 15.5 4.6375C15.5 6.89278 14.3585 8.82206 12.9285 10.3275C11.4963 11.8353 9.72024 12.9782 8.30492 13.6787C8.11297 13.7738 7.88703 13.7738 7.69508 13.6787C6.27976 12.9782 4.50371 11.8353 3.07149 10.3275C1.64146 8.82206 0.5 6.89278 0.5 4.6375ZM4.59091 1.6C3.01364 1.6 1.86364 2.97016 1.86364 4.6375C1.86364 6.42254 2.76763 8.03701 4.06488 9.40271C5.26134 10.6623 6.74629 11.6593 8 12.3159C9.25371 11.6593 10.7387 10.6623 11.9351 9.40271C13.2324 8.03701 14.1364 6.42254 14.1364 4.6375C14.1364 2.96653 13.0088 1.6 11.4091 1.6C10.5142 1.6 9.98203 1.8367 9.6021 2.1305C9.24996 2.40281 9.00474 2.73469 8.71247 3.13025C8.65925 3.20227 8.60447 3.27641 8.5472 3.35268C8.41856 3.52401 8.21564 3.625 8 3.625C7.78436 3.625 7.58144 3.52401 7.4528 3.35268C7.40384 3.28748 7.35652 3.22371 7.31027 3.1614C7.00899 2.75546 6.7534 2.41108 6.38993 2.13176C6.00469 1.83572 5.47125 1.6 4.59091 1.6Z" fill="#B4B8CD"/>
</svg>
