<svg xmlns="http://www.w3.org/2000/svg" width="21.276px" height="22px" viewBox="0 0 21.276 22">
    <g id="Komponent_4_3" data-name="Komponent 4 – 3" transform="translate(0)">
        <path id="Kontur_9231" data-name="Kontur 9231"
                d="M11.652,1.044a1.118,1.118,0,0,1,1.306,0l9.574,7a.98.98,0,0,1,.411.789v11a2.912,2.912,0,0,1-.935,2.121,3.3,3.3,0,0,1-2.257.879H4.858A3.3,3.3,0,0,1,2.6,21.955a2.912,2.912,0,0,1-.935-2.121v-11a.98.98,0,0,1,.411-.789ZM3.794,9.322V19.833a.971.971,0,0,0,.312.707,1.1,1.1,0,0,0,.752.293H19.751a1.1,1.1,0,0,0,.752-.293.971.971,0,0,0,.311-.707V9.322L12.3,3.1Z"
                transform="translate(-1.667 -0.833)" fill="#acb1b4" fill-rule="evenodd" />
        <path id="Kontur_9232" data-name="Kontur 9232"
                d="M12.48,10.964a12.813,12.813,0,0,1,8.062-.895l-.554,2.343a10.127,10.127,0,0,0-6.3.665c-1.917.969-3.636,2.973-3.636,7.163H7.5C7.5,15.311,9.61,12.415,12.48,10.964Z"
                transform="translate(-0.054 0.959)" fill="#acb1b4" fill-rule="evenodd" />
    </g>
</svg>
