<svg xmlns="http://www.w3.org/2000/svg" width="72" height="72" viewBox="0 0 72 72">
  <g id="Сгруппировать_3296" data-name="Сгруппировать 3296" transform="translate(-1897 -1609)">
    <g id="Сгруппировать_3291" data-name="Сгруппировать 3291" transform="translate(1897 1609)">
      <rect id="Icon_language_outline_background" data-name="Icon_language_outline background" width="72" height="72" fill="none"/>
    </g>
    <g id="Icon_location_outline" transform="translate(1912.6 1615)">
      <g id="Icon_location_outline-2" data-name="Icon_location_outline" transform="translate(0 0)">
        <path id="Shape" d="M21,60a3.013,3.013,0,0,1-1.9-.677l-.024-.022-.051-.04-.065-.055c-.034-.029-.069-.06-.111-.094-.126-.108-.337-.29-.624-.548-.456-.407-1.2-1.094-2.16-2.049a65.814,65.814,0,0,1-6.485-7.557C5.209,43,0,33.592,0,22.637A24.557,24.557,0,0,1,5.019,7.26C8.829,2.511,14.355,0,21,0S33.171,2.511,36.981,7.26A24.557,24.557,0,0,1,42,22.637C42,33.6,36.789,43,32.418,48.957a65.478,65.478,0,0,1-6.485,7.557c-.95.95-1.7,1.639-2.157,2.049-.25.224-.466.414-.626.548l-.049.042-.126.106-.049.041-.016.013h0c-.013,0-.092-.092-1.808-2.191l1.8,2.2A3,3,0,0,1,21,60ZM21,6c-4.829,0-8.632,1.687-11.3,5.014A18.566,18.566,0,0,0,6,22.637c0,9.325,4.578,17.53,8.418,22.772a60.461,60.461,0,0,0,5.891,6.864c.243.243.475.47.691.678.219-.211.459-.448.691-.678a60.738,60.738,0,0,0,5.889-6.864C31.42,40.171,36,31.968,36,22.637a18.566,18.566,0,0,0-3.7-11.624C29.629,7.686,25.828,6,21,6Z" transform="translate(-0.6)" fill="#62beb8"/>
        <path id="Shape-2" data-name="Shape" d="M9,18a9,9,0,1,1,9-9A9.01,9.01,0,0,1,9,18ZM9,6a3,3,0,1,0,3,3A3,3,0,0,0,9,6Z" transform="translate(11.4 12)" fill="#62beb8"/>
      </g>
    </g>
  </g>
</svg>
