<svg xmlns="http://www.w3.org/2000/svg" width="24" height="23" viewBox="0 0 24 23">
  <g id="Сгруппировать_3394" data-name="Сгруппировать 3394" transform="translate(-641 -431)">
    <g id="Сгруппировать_3390" data-name="Сгруппировать 3390" transform="translate(599 168.377)">
      <g id="Сгруппировать_3014" data-name="Сгруппировать 3014" transform="translate(0 -0.714)">
        <rect id="Прямоугольник_1250" data-name="Прямоугольник 1250" width="17" height="17" transform="translate(44 269.337)" fill="none"/>
        <g id="Icon_closed_outline" transform="translate(44 263.337)">
          <path id="Path" d="M2.943,3.726A6.692,6.692,0,0,0,2.3,6.9,1.15,1.15,0,0,1,0,6.9,8.922,8.922,0,0,1,.938,2.6,4.894,4.894,0,0,1,2.757.73,5.875,5.875,0,0,1,5.75,0,5.875,5.875,0,0,1,8.744.73,4.895,4.895,0,0,1,10.562,2.6,8.922,8.922,0,0,1,11.5,6.9a1.15,1.15,0,1,1-2.3,0,6.692,6.692,0,0,0-.643-3.174A2.6,2.6,0,0,0,7.59,2.72,3.6,3.6,0,0,0,5.75,2.3a3.6,3.6,0,0,0-1.84.42A2.6,2.6,0,0,0,2.943,3.726Z" transform="translate(4.05)" fill="#fff"/>
          <path id="Path-2" data-name="Path" d="M4.6,2.3A2.3,2.3,0,1,1,2.3,0,2.3,2.3,0,0,1,4.6,2.3Z" transform="translate(7.5 11.5)" fill="#fff"/>
          <path id="Path-3" data-name="Path" d="M1.15,0A1.15,1.15,0,0,1,2.3,1.15V4.6A1.15,1.15,0,0,1,0,4.6V1.15A1.15,1.15,0,0,1,1.15,0Z" transform="translate(8.65 12.651)" fill="#fff"/>
          <path id="Shape" d="M16.334,15.681H3.266A3.318,3.318,0,0,1,0,12.32V3.36A3.318,3.318,0,0,1,3.266,0H16.334A3.318,3.318,0,0,1,19.6,3.36v8.96A3.318,3.318,0,0,1,16.334,15.681ZM3.266,2.24A1.106,1.106,0,0,0,2.178,3.36v8.96a1.106,1.106,0,0,0,1.089,1.12H16.334a1.106,1.106,0,0,0,1.089-1.12V3.36a1.106,1.106,0,0,0-1.089-1.12Z" transform="translate(0 7.319)" fill="#fff"/>
        </g>
      </g>
    </g>
    <rect id="Прямоугольник_2406" data-name="Прямоугольник 2406" width="24" height="23" transform="translate(641 431)" fill="none"/>
  </g>
</svg>
