<svg width="18" height="23" viewBox="0 0 18 23" fill="none" xmlns="http://www.w3.org/2000/svg">
<path fill-rule="evenodd" clip-rule="evenodd" d="M3 7V5.77273C3 4.2263 3.644 2.75317 4.77399 1.67454C5.9024 0.597427 7.42332 0 9 0C10.5767 0 12.0976 0.597427 13.226 1.67454C14.356 2.75317 15 4.2263 15 5.77273V7H16C17.1046 7 18 7.89543 18 9V18C18 20.7614 15.7614 23 13 23H5C2.23858 23 0 20.7614 0 18V9C0 7.89543 0.89543 7 2 7H3ZM6.15494 3.12126C6.9019 2.40825 7.92451 2 9 2C10.0755 2 11.0981 2.40825 11.8451 3.12126C12.5904 3.83275 13 4.78754 13 5.77273V7H5V5.77273C5 4.78755 5.40957 3.83275 6.15494 3.12126ZM2 18V9H16V18C16 19.6569 14.6569 21 13 21H5C3.34315 21 2 19.6569 2 18Z" fill="#79BCB7"/>
</svg>
