<svg xmlns="http://www.w3.org/2000/svg" width="24" height="23" viewBox="0 0 24 23">
  <g id="Сгруппировать_3393" data-name="Сгруппировать 3393" transform="translate(-673 -431)">
    <g id="Сгруппировать_3391" data-name="Сгруппировать 3391" transform="translate(631 164.663)">
      <g id="Сгруппировать_3014" data-name="Сгруппировать 3014" transform="translate(0 -2)">
        <g id="Icon_mail_outline" transform="translate(44 272.337)">
          <path id="Shape" d="M17.175,14.818H3.031A3.109,3.109,0,0,1,0,11.642V3.175A3.109,3.109,0,0,1,3.031,0H17.175a3.109,3.109,0,0,1,3.031,3.175v8.467A3.109,3.109,0,0,1,17.175,14.818ZM2.02,3.364v8.278A1.036,1.036,0,0,0,3.031,12.7H17.175a1.036,1.036,0,0,0,1.01-1.058V3.365L10.1,8.657ZM3.927,2.117,10.1,6.161,16.28,2.117Z" fill="#fff"/>
        </g>
      </g>
    </g>
    <rect id="Прямоугольник_2407" data-name="Прямоугольник 2407" width="24" height="23" transform="translate(673 431)" fill="none"/>
  </g>
</svg>
