<svg width="24" height="25" viewBox="0 0 24 25" fill="none" xmlns="http://www.w3.org/2000/svg">
<path fill-rule="evenodd" clip-rule="evenodd" d="M12.4092 3.16325C17.5304 3.16325 21.6819 7.31478 21.6819 12.4359C21.6819 14.4112 21.0656 16.2392 20.0146 17.7423C19.8743 17.943 19.8056 18.1851 19.8195 18.4296C19.8499 18.961 19.925 19.5775 20.0668 20.2862C20.2128 21.0164 20.3964 21.645 20.5925 22.18L16.3996 21.0619C16.1776 21.0027 15.9425 21.0151 15.728 21.0974C14.699 21.4919 13.5807 21.7086 12.4092 21.7086C7.28803 21.7086 3.13649 17.5571 3.13649 12.4359C3.13649 7.31478 7.28803 3.16325 12.4092 3.16325ZM23.5546 23.1296C23.5529 23.1277 23.5494 23.1239 23.5443 23.1181C23.5294 23.1011 23.5004 23.067 23.4604 23.0147C23.3806 22.9103 23.2565 22.733 23.1128 22.4743C22.8262 21.9583 22.4566 21.1102 22.2062 19.8583C22.1158 19.4064 22.0588 19.0087 22.0254 18.662C23.1883 16.8692 23.8637 14.73 23.8637 12.4359C23.8637 6.1098 18.7354 0.981445 12.4092 0.981445C6.08305 0.981445 0.954678 6.1098 0.954678 12.4359C0.954678 18.7621 6.08305 23.8904 12.4092 23.8904C13.7247 23.8904 14.9904 23.6683 16.1696 23.2586L22.4917 24.9445C22.9686 25.0717 23.4714 24.8629 23.7179 24.4353C23.9619 24.0121 23.8946 23.4788 23.5546 23.1296Z" fill="#ADB1B3"/>
</svg>
