<svg width="27" height="27" viewBox="0 0 27 27" fill="none" xmlns="http://www.w3.org/2000/svg">
<path fill-rule="evenodd" clip-rule="evenodd" d="M12.4092 4.16325C17.5304 4.16325 21.6819 8.31478 21.6819 13.4359C21.6819 15.4112 21.0656 17.2392 20.0146 18.7423C19.8743 18.943 19.8056 19.1851 19.8195 19.4296C19.8499 19.961 19.925 20.5775 20.0668 21.2862C20.2128 22.0164 20.3964 22.645 20.5925 23.18L16.3996 22.0619C16.1776 22.0027 15.9425 22.0151 15.728 22.0974C14.699 22.4919 13.5807 22.7086 12.4092 22.7086C7.28803 22.7086 3.13649 18.5571 3.13649 13.4359C3.13649 8.31478 7.28803 4.16325 12.4092 4.16325ZM23.5546 24.1296C23.5529 24.1277 23.5494 24.1239 23.5443 24.1181C23.5294 24.1011 23.5004 24.067 23.4604 24.0147C23.3806 23.9103 23.2565 23.733 23.1128 23.4743C22.8262 22.9583 22.4566 22.1102 22.2062 20.8583C22.1158 20.4064 22.0588 20.0087 22.0254 19.662C23.1883 17.8692 23.8637 15.73 23.8637 13.4359C23.8637 7.1098 18.7354 1.98145 12.4092 1.98145C6.08305 1.98145 0.954678 7.1098 0.954678 13.4359C0.954678 19.7621 6.08305 24.8904 12.4092 24.8904C13.7247 24.8904 14.9904 24.6683 16.1696 24.2586L22.4917 25.9445C22.9686 26.0717 23.4714 25.8629 23.7179 25.4353C23.9619 25.0121 23.8946 24.4788 23.5546 24.1296Z" fill="#ADB1B3"/>
<circle cx="20.5" cy="6.48145" r="5.4" fill="#79BCB7" stroke="white" stroke-width="1.8"/>
</svg>
