<svg xmlns="http://www.w3.org/2000/svg" width="72" height="72" viewBox="0 0 72 72">
  <g id="Сгруппировать_3297" data-name="Сгруппировать 3297" transform="translate(-1995 -1603)">
    <g id="Сгруппировать_3293" data-name="Сгруппировать 3293" transform="translate(1995 1603)">
      <rect id="Icon_language_outline_background" data-name="Icon_language_outline background" width="72" height="72" fill="none"/>
    </g>
    <g id="Сгруппировать_3287" data-name="Сгруппировать 3287" transform="translate(2004 1609)">
      <g id="Icon_user_outline">
        <path id="Shape" d="M12.772,25.547A12.774,12.774,0,1,1,25.547,12.772,12.788,12.788,0,0,1,12.772,25.547Zm0-19.161a6.387,6.387,0,1,0,6.389,6.386A6.393,6.393,0,0,0,12.772,6.386Z" transform="translate(14.598)" fill="#62beb8"/>
        <path id="Shape-2" data-name="Shape" d="M27.372,29.2a43.761,43.761,0,0,1-15.616-2.78c-4.14-1.654-9.514-4.888-11.6-10.895a2.828,2.828,0,0,1,0-1.847c2.039-5.87,8.1-9.181,12.819-10.926A45.306,45.306,0,0,1,27.372,0a45.306,45.306,0,0,1,14.4,2.749c4.722,1.745,10.78,5.057,12.819,10.926a2.828,2.828,0,0,1,0,1.847c-2.087,6.007-7.46,9.24-11.6,10.895A43.761,43.761,0,0,1,27.372,29.2Zm0-23.358A39.1,39.1,0,0,0,15.158,8.2c-4.469,1.65-7.527,3.871-8.844,6.422,1.287,2.7,3.905,4.855,7.782,6.406a36.689,36.689,0,0,0,13.276,2.331,36.689,36.689,0,0,0,13.276-2.331c3.876-1.551,6.494-3.707,7.782-6.406-1.316-2.55-4.375-4.772-8.844-6.422A39.1,39.1,0,0,0,27.372,5.839Z" transform="translate(0 32.846)" fill="#62beb8"/>
      </g>
    </g>
  </g>
</svg>
