<svg xmlns="http://www.w3.org/2000/svg" width="24" height="23" viewBox="0 0 24 23">
  <g id="Сгруппировать_3395" data-name="Сгруппировать 3395" transform="translate(-612 -432)">
    <g id="Сгруппировать_3389" data-name="Сгруппировать 3389" transform="translate(570 168.663)">
      <g id="Icon_user_outline" transform="translate(44 263.337)">
        <path id="Shape" d="M4.735,9.471A4.735,4.735,0,1,1,9.471,4.735,4.741,4.741,0,0,1,4.735,9.471Zm0-7.1A2.368,2.368,0,1,0,7.1,4.735,2.37,2.37,0,0,0,4.735,2.367Z" transform="translate(5.412)" fill="#fff"/>
        <path id="Shape-2" data-name="Shape" d="M10.147,10.824A16.223,16.223,0,0,1,4.358,9.793a7.123,7.123,0,0,1-4.3-4.039,1.048,1.048,0,0,1,0-.685c.756-2.176,3-3.4,4.752-4.05A16.8,16.8,0,0,1,10.147,0a16.8,16.8,0,0,1,5.338,1.019c1.751.647,4,1.875,4.752,4.05a1.048,1.048,0,0,1,0,.685,7.123,7.123,0,0,1-4.3,4.039A16.223,16.223,0,0,1,10.147,10.824Zm0-8.659a14.493,14.493,0,0,0-4.528.875A5.8,5.8,0,0,0,2.341,5.42,5.094,5.094,0,0,0,5.226,7.795a13.6,13.6,0,0,0,4.921.864,13.6,13.6,0,0,0,4.921-.864A5.093,5.093,0,0,0,17.953,5.42a5.8,5.8,0,0,0-3.279-2.381A14.493,14.493,0,0,0,10.147,2.165Z" transform="translate(0 12.176)" fill="#fff"/>
      </g>
    </g>
    <rect id="Прямоугольник_2405" data-name="Прямоугольник 2405" width="24" height="23" transform="translate(612 432)" fill="none"/>
  </g>
</svg>
