<svg xmlns="http://www.w3.org/2000/svg" width="23" height="23" viewBox="0 0 23 23">
  <g id="Сгруппировать_3392" data-name="Сгруппировать 3392" transform="translate(-44 -264.285)">
    <g id="Icon_call_outline" transform="translate(44 264.285)">
      <path id="Shape" d="M16.726,23a10.893,10.893,0,0,1-5-.93,22.757,22.757,0,0,1-6.065-4.748A21.91,21.91,0,0,1,.916,10.91,10.92,10.92,0,0,1,0,6.24,6.593,6.593,0,0,1,.5,3.528,8.383,8.383,0,0,1,2.386.909,3.306,3.306,0,0,1,4.727,0l.149,0A3.61,3.61,0,0,1,7.268.992L9.734,3.355l.018.018A3.477,3.477,0,0,1,10.7,5.829a3.473,3.473,0,0,1-.951,2.455l-1.2,1.2a7.477,7.477,0,0,0,1.893,3.026,7.282,7.282,0,0,0,3.038,1.921l1.2-1.2a3.631,3.631,0,0,1,4.907,0L22.05,15.7a3.648,3.648,0,0,1,0,4.911A8.237,8.237,0,0,1,16.726,23Zm-12-20.7a1.023,1.023,0,0,0-.712.234,6.224,6.224,0,0,0-1.4,1.9A4.364,4.364,0,0,0,2.3,6.24a8.656,8.656,0,0,0,.725,3.75A19.73,19.73,0,0,0,7.294,15.7a20.786,20.786,0,0,0,5.411,4.29,8.676,8.676,0,0,0,4.021.713,6.044,6.044,0,0,0,3.695-1.716,1.378,1.378,0,0,0,0-1.662l-2.46-2.464a1.363,1.363,0,0,0-1.651,0L14.671,16.5a1.146,1.146,0,0,1-.976.326,9.016,9.016,0,0,1-4.883-2.693A9.078,9.078,0,0,1,6.16,9.278,1.155,1.155,0,0,1,6.484,8.3L8.124,6.66A1.2,1.2,0,0,0,8.4,5.829a1.212,1.212,0,0,0-.272-.824L5.669,2.645,5.65,2.628A1.317,1.317,0,0,0,4.788,2.3H4.726Z" fill="#fff"/>
    </g>
  </g>
</svg>
