<svg width="55" height="55" viewBox="0 0 55 55" fill="none" xmlns="http://www.w3.org/2000/svg">
<path d="M38.2095 42.7355C38.2204 40.971 38.2095 39.1738 38.2095 37.4419V35.6447C38.2095 35.4813 38.1986 35.2853 38.1551 35.111C38.0353 34.6318 37.6322 34.305 37.1312 34.2941C36.6628 34.2941 36.2381 34.6426 36.1291 35.1219C36.0856 35.3288 36.0856 35.5249 36.0856 35.7645V42.485C36.0856 45.8179 33.7438 48.1489 30.389 48.1489H19.3771C18.4294 48.1489 18.0482 48.5301 18.0373 49.4777V51.2858L17.1986 50.4798C16.5669 49.8698 15.9896 49.3252 15.445 48.7261C15.0856 48.334 14.7261 48.1706 14.1924 48.1489C12.5259 48.1489 10.8376 48.1489 9.16026 48.1489H7.80964C4.45487 48.1489 2.11307 45.7962 2.11307 42.4305V26.5825C2.11307 25.9398 2.22199 25.1338 2.37448 24.5783L0.392116 24.1209C0.326763 24.3169 0.0217842 25.2754 0.0217842 25.2754L0 43.6504L0.0217842 43.7049C0.119813 43.9663 0.217842 44.2604 0.326763 44.6198C0.555498 45.3605 0.77334 46.0576 1.15456 46.6893C2.47251 48.9113 4.56379 50.1421 7.19968 50.251C8.43049 50.2946 9.67219 50.2946 10.9901 50.2837C11.8288 50.2837 12.6566 50.2837 13.4735 50.2837C13.7458 50.2837 14.0617 50.4144 14.2578 50.6105C14.9658 51.2858 15.6629 51.9938 16.3817 52.7127L16.5778 52.9087C16.959 53.2899 17.3402 53.6712 17.7215 54.0524C17.9284 54.2593 18.1571 54.4554 18.3859 54.6514L18.7998 55L19.5078 54.9564C20.0088 54.6623 20.2266 54.194 20.194 53.5405C20.1722 53.1157 20.1722 52.6909 20.1831 52.2661V50.2619H23.4398C25.7925 50.2619 28.1125 50.2619 30.4434 50.2619C31.1841 50.2619 31.7723 50.1966 32.306 50.0768C35.8242 49.2925 38.2095 46.3299 38.2422 42.7137L38.2095 42.7355Z" fill="#6CBBD9"/>
<path d="M1.14367 22.291C0.806016 22.8574 0.599066 23.4673 0.392116 24.1209L2.36359 24.7417C3.04979 22.3454 5.09751 20.8423 7.89678 20.8423H18.1571C18.5602 20.8423 18.9087 20.7116 19.1374 20.4829C19.3226 20.2977 19.4097 20.0472 19.4097 19.764C19.3988 19.1541 18.9087 18.7184 18.2334 18.7184H14.9331C12.1774 18.6966 9.68309 18.6857 7.16701 18.7511C4.57469 18.8164 2.49429 20.0472 1.15456 22.3019L1.14367 22.291Z" fill="#6CBBD9"/>
<path d="M54.4714 11.889C53.1862 6.62814 49.8641 2.94661 44.5814 0.931565C42.7951 0.256254 40.7038 -0.037833 38.1877 0.0166275C33.5804 -0.146754 30.1385 0.887996 27.0124 3.38229C23.5378 6.14889 21.5555 9.78685 21.1307 14.1873C20.7821 17.7708 21.6099 21.1255 23.6032 24.1318C25.7816 27.443 28.7552 29.6214 32.4476 30.6126C35.5954 31.4513 39.0046 31.5166 42.8713 30.8086C42.9585 30.7977 43.0456 30.7868 43.111 30.7868C43.3397 30.7868 43.5031 30.874 43.71 31.0809C44.418 31.7998 45.126 32.5078 45.834 33.2158L47.1628 34.5446C47.6421 35.0348 48.056 35.1546 48.5352 34.9367C48.9927 34.7407 49.1779 34.3812 49.1779 33.7059C49.1779 33.1178 49.1779 32.5296 49.1779 31.8978C49.1779 30.8304 49.1779 29.763 49.1561 28.7173C49.1343 28.0747 49.3413 27.6281 49.875 27.1162C54.3516 22.8465 55.8983 17.7272 54.4714 11.889ZM52.0643 20.1344C51.2692 22.4871 49.875 24.4694 47.9035 26.0161C47.25 26.528 46.9886 27.0835 47.0321 27.8895C47.0648 28.5866 47.0648 29.3055 47.0539 30.0026V30.5581L47.043 31.4404L46.2697 30.667C45.7033 30.1006 45.1696 29.5778 44.6468 29.0223C44.1784 28.5213 43.7209 28.3906 43.0674 28.5866C40.8018 29.2511 38.46 29.1639 36.1945 29.0768H36.0311C33.0902 28.957 30.4761 27.9767 28.2868 26.1577C24.2785 22.8465 22.6229 18.6312 23.3636 13.6318C24.0607 8.8937 26.6748 5.45179 31.1079 3.39318C32.2515 2.85947 33.6022 2.48914 35.0072 2.30397C37.2728 2.00988 39.473 2.03167 41.5425 2.36932C45.3983 3.00107 48.4481 4.98343 50.5938 8.24017C53.001 11.889 53.4912 15.9082 52.0643 20.1561V20.1344Z" fill="#6CBBD9"/>
<path d="M30.5742 34.3921C30.5742 33.8693 30.1711 33.4336 29.6265 33.3465C29.474 33.3247 29.3433 33.3138 29.2017 33.3247H7.1779C5.90352 33.3247 5.7946 34.1416 5.7946 34.3812C5.7946 34.6209 5.89263 35.4378 7.1779 35.4487H29.2671C29.376 35.4487 29.4958 35.4487 29.6265 35.4269C30.1711 35.3397 30.5742 34.9041 30.5742 34.3812V34.3921Z" fill="#6CBBD9"/>
<path d="M26.3371 40.3828C26.3371 39.9035 26.0757 39.555 25.6291 39.4243C25.3786 39.348 25.1063 39.348 24.8994 39.348C23.723 39.348 22.5467 39.348 21.3703 39.348H7.12344C6.30653 39.348 5.7946 39.751 5.7946 40.4046C5.7946 41.0472 6.30653 41.4611 7.11255 41.472H24.8776C25.1281 41.472 25.3786 41.472 25.6182 41.3958C26.0866 41.2542 26.3371 40.9056 26.3371 40.3937V40.3828Z" fill="#6CBBD9"/>
<path d="M23.5814 28.3906C23.6141 27.9331 23.2764 27.4974 22.8081 27.3776C22.6011 27.3231 22.3724 27.3123 22.1763 27.3123H7.10166C6.94917 27.3123 6.79668 27.3123 6.66597 27.3449C6.16493 27.443 5.80549 27.8569 5.7946 28.3579C5.7946 28.8589 6.16493 29.3055 6.67686 29.4035C6.80757 29.4253 6.94917 29.4362 7.19968 29.4362H22.1872C22.3833 29.4362 22.612 29.4362 22.819 29.3709C23.2873 29.2402 23.5487 28.9025 23.5705 28.3906H23.5814Z" fill="#6CBBD9"/>
<path d="M29.5067 39.348C29.2453 39.348 28.9839 39.4787 28.7878 39.6748C28.5809 39.8817 28.472 40.1432 28.472 40.4155C28.472 40.6769 28.6027 40.9492 28.8096 41.1452C29.0275 41.3631 29.278 41.4175 29.583 41.4502C29.8117 41.4502 30.084 41.3195 30.2801 41.1126C30.4761 40.9056 30.5959 40.6333 30.585 40.3719C30.585 40.1105 30.4543 39.8382 30.2474 39.6421C30.0404 39.4461 29.779 39.3371 29.5176 39.3371L29.5067 39.348Z" fill="#6CBBD9"/>
<path d="M42.708 13.207C43.0783 11.7474 42.6971 10.2334 41.6405 9.0353C40.4969 7.72824 38.569 7.2272 36.8371 7.79359C35.2469 8.31642 33.9507 9.93934 33.82 11.5514C33.7438 12.5426 34.0052 13.0218 34.6696 13.1089C35.1271 13.1634 35.7479 13.0981 35.9331 11.7583C36.0965 10.582 37.0767 9.71061 38.264 9.67793C38.3184 9.67793 38.3729 9.67793 38.4274 9.67793C39.5057 9.67793 40.4642 10.5057 40.6711 11.6603C40.8781 12.804 40.2463 13.9259 39.1571 14.3398L38.6343 14.514C37.752 14.8299 37.2728 15.4725 37.251 16.3984C37.251 16.6598 37.251 16.9321 37.251 17.1935V18.5768C37.251 18.6966 37.251 18.8055 37.251 18.9253C37.2728 19.6006 37.6867 20.0472 38.3293 20.0799C38.5581 20.0799 38.7977 19.9928 38.9829 19.8185C39.2116 19.6115 39.3423 19.3066 39.3641 18.958C39.3968 18.348 39.3968 17.7054 39.3641 16.9212C39.3641 16.6271 39.4512 16.4964 39.7562 16.3766C41.2593 15.832 42.3267 14.6774 42.6971 13.2288L42.708 13.207Z" fill="#6CBBD9"/>
<path d="M38.2858 22.2039C37.7303 22.2147 37.2619 22.7049 37.2728 23.2822C37.2837 23.8486 37.7629 24.2951 38.3511 24.2951C38.6125 24.2951 38.8848 24.1644 39.0918 23.9575C39.277 23.7614 39.3859 23.4891 39.375 23.2277C39.3532 22.6722 38.863 22.2039 38.2967 22.2039H38.2858Z" fill="#6CBBD9"/>
</svg>
