<svg width="26" height="26" viewBox="0 0 26 26" fill="none" xmlns="http://www.w3.org/2000/svg">
<path fill-rule="evenodd" clip-rule="evenodd" d="M13.2 2C10.052 2 7.5 4.55198 7.5 7.7C7.5 10.848 10.052 13.4 13.2 13.4C16.348 13.4 18.9 10.848 18.9 7.7C18.9 4.55198 16.348 2 13.2 2ZM9.9 7.7C9.9 5.87746 11.3775 4.4 13.2 4.4C15.0225 4.4 16.5 5.87746 16.5 7.7C16.5 9.52254 15.0225 11 13.2 11C11.3775 11 9.9 9.52254 9.9 7.7ZM9.2 15C5.77583 15 3 17.7758 3 21.2V23.2C3 23.8627 3.53726 24.4 4.2 24.4C4.86274 24.4 5.4 23.8627 5.4 23.2V21.2C5.4 19.1013 7.10132 17.4 9.2 17.4H17.2C19.2987 17.4 21 19.1013 21 21.2V23.2C21 23.8627 21.5373 24.4 22.2 24.4C22.8627 24.4 23.4 23.8627 23.4 23.2V21.2C23.4 17.7758 20.6242 15 17.2 15H9.2Z" fill="#ADB1B3"/>
</svg>
