<svg width="55" height="55" viewBox="0 0 55 55" fill="none" xmlns="http://www.w3.org/2000/svg">
<path d="M54.5933 4.88144C54.057 3.39293 52.9625 2.21088 51.5287 1.55418C50.686 1.17111 49.7447 0.831814 48.6393 0.547246C47.9826 0.372127 47.304 0.262678 46.6473 0.153229L45.6841 0H42.9917C42.7399 0.0547246 42.4554 0.0985043 42.1599 0.142284C41.4703 0.240788 40.7698 0.339293 40.1022 0.514412C39.3361 0.700475 38.5809 0.941263 37.8476 1.18205C37.355 1.33528 36.9282 1.47756 36.4794 1.6089C36.2496 1.67457 36.0416 1.68552 35.9212 1.64174C33.6556 0.766145 31.4448 0.251733 29.1682 0.0766145H29.1026L28.9822 0.0218898H25.9066C25.6658 0.0656695 25.3813 0.109449 25.0967 0.153229L24.9654 0.175119C24.2211 0.273623 23.455 0.383072 22.6998 0.558191C21.9117 0.744255 21.1456 0.985043 20.4013 1.22583C19.9745 1.35717 19.5586 1.48851 19.1208 1.61985C18.8143 1.70741 18.6502 1.69646 18.5516 1.66363C16.3627 0.809924 14.3269 0.306458 12.324 0.131339L12.1926 0.492522H11.7111L11.733 0.0328348H9.12806C8.8435 0.0985043 8.51515 0.153229 8.1868 0.218899C7.39877 0.361183 6.61073 0.492522 5.84459 0.700475C4.95805 0.930319 4.08246 1.26961 3.2397 1.67457C1.54323 2.50639 0.492518 3.92923 0.0985003 5.88837C0.0875554 5.95404 0.0656622 6.01971 0.0437724 6.08538L0 7.51916L0.0437724 7.71617C0.0656622 7.78184 0.0875554 7.84751 0.0985003 7.91318C0.284564 8.85444 0.601966 9.93799 1.49945 10.7589C2.78001 11.93 4.57498 12.1598 6.17294 11.3499C6.6764 11.0982 7.17987 10.8574 7.68333 10.6275L8.49326 10.2444L8.03357 11.0106C6.52317 13.5389 5.51624 16.3517 5.03466 19.3506C4.99088 19.6024 4.87049 19.8869 4.68443 20.1277C3.00985 22.3167 2.71433 24.6261 3.79788 26.9902C4.88143 29.3762 6.87341 30.7115 9.54397 30.8428C9.93799 30.8647 10.0584 30.9851 10.2116 31.3353C10.3101 31.5652 10.4196 31.795 10.529 32.0139L10.6932 32.3532H10.6713L10.7589 32.5283C10.8136 32.6378 10.8683 32.7363 10.934 32.8348C10.9887 32.9333 11.0325 32.999 11.0544 33.0537C11.2404 33.4039 11.4156 33.7542 11.6016 34.0934C11.6235 34.1482 11.6563 34.181 11.6673 34.181L11.733 34.2467C12.3787 35.2755 13.1558 36.2824 14.0533 37.2127L14.3379 37.5192C14.6881 37.8694 15.0821 38.2306 15.5746 38.6465L16.1985 39.2157L15.9467 39.4127C12.8056 41.8972 10.6494 45.104 9.56586 48.9348C9.36885 49.6133 9.1609 50.4999 9.24846 51.3426C9.4783 53.4879 11.2076 54.9982 13.4513 54.9982C16.6363 54.9982 19.8213 54.9982 23.0172 54.9982H27.5921C27.6907 54.9982 27.7563 54.9982 27.822 54.9982H34.6954C37.0267 54.9982 39.4236 55.0092 41.7768 54.9764C42.926 54.9545 44.0314 54.4291 44.7866 53.5207C45.5528 52.6123 45.8811 51.4302 45.6951 50.281C45.3777 48.3437 44.6225 46.4065 43.3857 44.3488C42.2255 42.4444 40.7808 40.8136 38.9749 39.3798L38.7013 39.1609L38.9749 38.942C41.6345 36.8187 43.6155 34.1482 44.8523 31.007L44.918 30.8319H45.2682C47.9497 30.7224 49.9636 29.4309 51.0909 27.0887C52.2073 24.7684 51.9665 22.4699 50.3795 20.2481C50.1825 19.9745 49.9417 19.6024 49.887 19.2412C49.4273 16.297 48.4203 13.506 46.899 10.9668L46.4393 10.2007L48.9785 11.4046C50.9924 12.3459 53.4112 11.4922 54.3744 9.5002C55.0858 8.03358 55.1734 6.39184 54.6152 4.87049L54.5933 4.88144ZM5.58191 9.52209C5.0675 9.78476 4.57498 9.9161 4.12623 9.9161C3.83072 9.9161 3.56804 9.86138 3.31631 9.75193C2.71434 9.47831 2.2656 8.87633 2.02481 8.01169C1.46662 5.96498 2.34221 4.0934 4.25758 3.22875C7.4316 1.79497 10.7917 1.5104 14.5677 2.37505C14.9836 2.46261 15.3886 2.583 15.8045 2.7034L16.4064 2.87852L15.8592 3.19592C13.9657 4.32325 12.4334 5.54908 11.1638 6.93908C10.5728 7.58483 9.93799 7.94602 8.96389 8.19775C7.9679 8.44948 6.91719 8.86539 5.58191 9.53303V9.52209ZM9.30319 28.5663L9.39074 28.9493L9.00767 28.9055C8.08829 28.7961 7.22365 28.3583 6.50128 27.6578C5.57096 26.7494 5.04561 25.5126 5.05655 24.2649C5.05655 23.0172 5.6038 21.7804 6.54506 20.8829C7.25648 20.1934 8.11019 19.7775 9.00767 19.679L9.39074 19.6352L9.30319 20.0073C8.65744 22.864 8.65744 25.7534 9.30319 28.5772V28.5663ZM16.0234 53.0829L15.1478 53.1048V52.8312L15.1259 53.1048C14.7975 53.1048 14.4801 53.1157 14.1627 53.1157C13.7578 53.1157 13.3638 53.1048 12.9697 53.061C12.3459 52.9953 11.8424 52.6998 11.4922 52.1964C11.1529 51.7148 11.0215 51.08 11.1091 50.4233L11.1419 50.1825H16.0234V53.0829ZM43.7469 50.2153L43.7906 50.4342C43.911 51.0033 43.8125 51.5834 43.5061 52.076C43.1558 52.6451 42.5976 52.9953 41.9409 53.061C41.5469 53.1048 41.1529 53.1157 40.748 53.1157C40.4305 53.1157 40.1131 53.1157 39.7848 53.1048L38.8764 53.0829V50.2153H43.7469ZM43.0354 47.8731L43.1887 48.2452H38.8435V47.8731C38.8435 47.4791 38.8435 47.107 38.8435 46.7458C38.8216 46.2642 38.5042 45.9359 38.0008 45.8921C37.5083 45.8592 37.1471 46.1219 37.0267 46.6035C36.9829 46.8005 36.9829 46.9975 36.9829 47.2055V53.1157H35.0566C33.9402 53.1157 32.8238 53.1157 31.6637 53.1157H26.7384C24.7574 53.1157 22.7873 53.1157 20.8063 53.1157H17.9387V50.9596C17.9387 49.6243 17.9387 48.289 17.9387 46.9537C17.9387 46.308 17.5557 45.8811 17.0084 45.8702C16.4612 45.8702 16.089 46.297 16.0781 46.9428C16.0781 47.2711 16.0781 47.5995 16.0781 47.9278V48.2015L15.8045 48.2452H11.7439L11.9519 47.698C13.0026 45.1369 14.6224 42.926 16.7567 41.142C17.7417 40.3211 17.8621 40.3102 19.0004 40.8902C19.2412 41.0216 19.3287 41.131 19.3616 41.3718C19.9417 45.4324 23.1704 48.3875 27.2091 48.5407C31.1274 48.7049 34.6516 45.903 35.4397 42.0395C35.6038 41.2076 35.9322 40.7917 36.6327 40.4743C36.9829 40.3102 37.1361 40.3211 37.3879 40.5072C39.9599 42.4444 41.8753 44.918 43.0573 47.8512L43.0354 47.8731ZM21.3535 41.93L21.8351 42.0723C25.5564 43.1996 29.3324 43.1887 33.0537 42.0613L33.5571 41.9081L33.393 42.4116C32.594 44.8742 30.0657 46.6911 27.4718 46.6911C27.428 46.6911 27.3733 46.6911 27.3295 46.6911C24.7246 46.6254 22.1635 44.7429 21.4849 42.4225L21.3426 41.941L21.3535 41.93ZM43.7687 28.0628C42.5976 33.1084 39.2376 37.2675 34.5422 39.4674C32.2656 40.5291 29.8468 41.0654 27.417 41.0654C24.834 41.0654 22.2401 40.4634 19.8541 39.2485C19.3397 38.9858 18.8034 38.6684 18.1686 38.2525C15.8045 36.6655 13.8672 34.4984 12.5867 31.9811L12.4553 31.7622C9.85043 26.3007 10.0803 20.8391 13.1558 15.509C13.9986 14.0533 15.2572 13.2653 16.9208 13.1886C18.3327 13.112 19.7775 13.1449 21.1784 13.1667C21.8789 13.1667 22.3824 12.9916 22.8202 12.5867C23.5644 11.919 24.3306 11.2623 25.0967 10.6166L26.0489 9.79571C26.9902 8.98578 27.8329 8.98578 28.7852 9.78476L29.8797 10.726C30.7552 11.4812 31.4776 12.1051 32.2437 12.7289C32.5393 12.9697 32.9552 13.123 33.3273 13.1339C34.2686 13.1667 35.2317 13.1558 36.0745 13.1558H36.4138C36.7531 13.1558 37.1033 13.1558 37.4426 13.1558C39.3579 13.1558 40.7698 13.9548 41.7549 15.5856C44.0971 19.482 44.7647 23.6739 43.7469 28.0628H43.7687ZM48.9785 21.5943C50.0621 23.1704 50.1606 24.8231 49.2631 26.4977C48.5517 27.8329 47.4462 28.621 45.8921 28.9055L45.4871 28.9822L45.5747 28.5772C46.2423 25.6877 46.2423 22.8858 45.5747 20.0073L45.4871 19.6133L45.8921 19.679C47.2164 19.8869 48.2233 20.5217 48.9785 21.6053V21.5943ZM47.5995 17.7417L47.6652 18.1139L47.0851 18.0263C46.4174 17.9278 45.7498 17.8293 45.104 17.7198L45.0165 17.687C44.918 17.6323 44.8304 17.5228 44.7757 17.4243C44.6006 17.085 44.4364 16.7457 44.2722 16.3955C44.0205 15.8701 43.7578 15.3229 43.4732 14.7975C42.1599 12.4772 40.1241 11.2842 37.3988 11.2514H36.0088C35.2974 11.2514 34.586 11.2514 33.8745 11.2295C33.6009 11.2295 33.2726 11.0982 33.0646 10.934C32.3532 10.3648 31.6746 9.76287 30.9851 9.17185L30.0219 8.34003C28.3802 6.93908 26.4867 6.93908 24.834 8.36192L24.3634 8.76689C23.4987 9.51114 22.6341 10.2663 21.7366 10.9997C21.5724 11.131 21.2988 11.2295 21.058 11.2404C20.664 11.2514 20.2591 11.2514 19.865 11.2514H19.3616C18.3765 11.2404 17.5009 11.2514 16.6801 11.3171C14.5239 11.4593 12.7837 12.5319 11.6345 14.4145C11.2514 15.0383 10.934 15.706 10.6275 16.3517C10.4524 16.7238 10.2882 17.0741 10.1131 17.4134C10.0584 17.5119 10.0255 17.5776 9.99271 17.6104L9.92705 17.6979L9.81759 17.7198C9.11712 17.8402 8.41665 17.9387 7.72711 18.0372L7.19082 18.1139L7.26743 17.7308C8.96389 9.63154 16.9537 1.34623 28.413 1.91536C35.2098 2.24371 45.6513 7.36593 47.5776 17.7417H47.5995ZM52.6779 8.64649C52.4262 9.20468 51.9446 9.64248 51.3755 9.83949C51.1566 9.9161 50.9267 9.94894 50.7078 9.94894C50.3904 9.94894 50.073 9.87232 49.7775 9.71909C48.3656 8.98578 46.6692 8.19775 44.7647 7.90224C44.6115 7.84751 44.5239 7.74901 44.4911 7.71617C42.9479 5.95404 41.1201 4.43269 39.0405 3.18497L38.5042 2.86757L39.1062 2.69245C41.4046 2.02481 43.528 1.77308 45.6184 1.93725C47.3149 2.06859 48.9785 2.4845 50.5656 3.17403C51.6053 3.63372 52.4043 4.44364 52.7983 5.45057C53.1923 6.46845 53.1485 7.60672 52.6779 8.64649Z" fill="#F1BC62"/>
<path d="M34.5969 22.3495C34.7064 22.9953 35.1223 23.3346 35.6804 23.247C36.2167 23.1704 36.5342 22.6888 36.4575 22.0431C36.3153 20.8501 35.2645 19.9088 34.0606 19.9088C32.8676 19.9088 31.8607 20.7844 31.6746 21.9884C31.5761 22.6451 31.8388 23.1157 32.3641 23.2361C32.6159 23.2908 32.8567 23.258 33.0427 23.1376C33.196 23.0391 33.4149 22.8202 33.5024 22.3495C33.579 21.9665 33.776 21.8132 34.0715 21.8132C34.3561 21.8132 34.5312 21.9993 34.5969 22.3495Z" fill="#F1BC62"/>
<path d="M20.861 21.8132H20.8829C21.2441 21.8132 21.3535 22.1306 21.4083 22.4371C21.5177 23.0062 21.9117 23.3236 22.459 23.258C22.9515 23.1923 23.258 22.8092 23.258 22.251C23.258 20.9814 22.1744 19.9417 20.872 19.9307C20.259 19.9088 19.668 20.1387 19.2083 20.5655C18.7487 21.0033 18.475 21.6053 18.4641 22.2182C18.4531 22.8092 18.7596 23.2142 19.285 23.2689C19.8322 23.3346 20.2372 22.9953 20.3247 22.4371C20.3904 22.0102 20.5546 21.8351 20.8829 21.8351L20.861 21.8132Z" fill="#F1BC62"/>
<path d="M25.3047 28.0847C25.9066 28.6866 26.6071 28.9712 27.5265 28.9931C28.3255 28.9712 29.0478 28.6538 29.606 28.0847C30.0329 27.6469 30.0767 27.1106 29.7045 26.7056C29.3433 26.3116 28.818 26.3116 28.3364 26.7056C27.6578 27.2638 27.2419 27.2638 26.5743 26.7056C26.3335 26.5086 26.0818 26.4101 25.8519 26.4101C25.6221 26.4101 25.3922 26.5086 25.2062 26.7056C24.845 27.0996 24.8888 27.6578 25.3047 28.0847Z" fill="#F1BC62"/>
</svg>
