<svg width="63" height="55" viewBox="0 0 63 55" fill="none" xmlns="http://www.w3.org/2000/svg">
<path d="M25.4971 32.9628C25.4971 33.4891 25.9204 33.9124 26.4467 33.9124C26.973 33.9124 27.3963 33.4891 27.3963 32.9628V21.7616C27.3963 21.2353 26.973 20.812 26.4467 20.812H25.5314C25.3483 20.812 25.1653 20.8692 25.0165 20.9607L22.1676 22.8142C21.9502 22.9515 21.8015 23.1689 21.7557 23.4321C21.7099 23.6838 21.7557 23.9469 21.9045 24.1529C22.0189 24.2673 22.2477 24.4389 22.3621 24.4503C22.7054 24.5076 23.2088 24.2558 23.369 24.1414L23.4147 24.1071L25.1309 22.7341H25.6115L25.4971 26.8187V32.9742V32.9628Z" fill="#F08390"/>
<path d="M35.6113 20.606C32.4763 20.606 30.9546 22.8485 30.9546 27.448C30.9546 32.0475 32.2818 34.1184 35.3825 34.1184C38.4831 34.1184 40.062 31.8987 40.062 27.3336C40.062 22.7685 38.7348 20.5946 35.6113 20.5946V20.606ZM35.5312 32.5509C33.1743 32.5509 32.8768 29.7706 32.8768 27.345C32.8768 24.1529 33.3116 22.1735 35.4511 22.1735C37.8653 22.1735 38.1513 25.1826 38.1513 27.448C38.1513 30.5944 37.7165 32.5509 35.5426 32.5509H35.5312Z" fill="#F08390"/>
<path d="M46.0382 37.7058C51.9191 29.4107 49.9626 17.8663 41.679 11.9854C38.544 9.75434 34.8599 8.57587 31.0156 8.57587C24.0477 8.57587 17.7321 12.4431 14.5285 18.6558C10.8786 25.738 12.2974 34.5708 17.9838 40.1428C22.2972 44.3647 28.1552 46.2067 34.059 45.2113C38.933 44.3876 43.1893 41.7217 46.0382 37.7058ZM21.8395 39.9025C18.4071 37.4655 16.1188 33.8157 15.4209 29.6395C14.5742 24.6396 16.1303 19.6512 19.6885 15.9785C24.4253 11.0701 31.9767 9.8001 38.0635 12.8893C42.6172 15.2005 45.7178 19.3995 46.5645 24.3994C47.2624 28.5755 46.3013 32.7631 43.8529 36.1955C40.901 40.3373 36.0841 42.8086 30.9698 42.8086C27.6861 42.8086 24.5283 41.8018 21.851 39.9025H21.8395Z" fill="#F08390"/>
<path d="M33.3038 52.2249C29.8028 52.5453 26.3703 52.1563 23.0866 51.0694C19.1508 49.765 15.6955 47.6026 12.8351 44.6393C9.99765 41.6988 7.94963 38.2206 6.77116 34.2848L6.65675 33.9072L7.42333 33.3008L8.01828 33.7241C8.6018 34.136 9.41414 33.9987 9.82603 33.4267C10.2379 32.8431 10.1006 32.0422 9.52855 31.6189L5.14648 28.4954C4.86044 28.3009 4.5172 28.2208 4.1854 28.278C3.84216 28.3352 3.54468 28.5183 3.35017 28.8043L0.238107 33.1635C-0.173784 33.747 -0.0364891 34.5479 0.535583 34.9713C1.15342 35.4175 1.96576 35.2802 2.37765 34.6967L3.62477 32.9461L3.94513 34.1017C5.9245 41.1954 9.91756 46.7216 15.8328 50.5316C21.1988 53.9869 27.1598 55.4514 33.567 54.8794C33.9446 54.845 34.2764 54.662 34.5052 54.3645C34.7226 54.0784 34.8141 53.7238 34.7569 53.3576L35.0315 53.2432L34.7455 53.289C34.6311 52.6254 34.0132 52.1677 33.3038 52.2249Z" fill="#F08390"/>
<path d="M57.205 26.5046C57.491 26.6991 57.8343 26.7792 58.1661 26.722C58.5093 26.6648 58.8068 26.4817 59.0013 26.1957L62.1019 21.8365C62.5138 21.253 62.3765 20.4521 61.8045 20.0287C61.1866 19.5825 60.3743 19.7198 59.9624 20.3033L58.7153 22.0539L58.3949 20.8983C56.4155 13.8046 52.4225 8.27839 46.5073 4.46839C41.1412 1.01308 35.1802 -0.451424 28.773 0.120648C28.3955 0.154972 28.0637 0.338035 27.8348 0.635512C27.6175 0.921548 27.5259 1.27623 27.5831 1.64236V1.69957C27.709 2.36317 28.3268 2.83227 29.0362 2.76362C32.5258 2.44326 35.9697 2.83227 39.2534 3.9192C43.1893 5.22353 46.6446 7.38596 49.5049 10.3493C52.3424 13.2897 54.3904 16.7679 55.5689 20.7038L55.6833 21.0814L54.9167 21.6878L54.3218 21.2644C54.0929 21.1042 53.8298 21.0241 53.5781 21.0241C53.1776 21.0241 52.7772 21.2072 52.5255 21.5619C52.1136 22.1454 52.2509 22.9463 52.8229 23.3696L57.205 26.4932V26.5046Z" fill="#F08390"/>
</svg>
