<svg id="Icon_delete_outline" xmlns="http://www.w3.org/2000/svg" width="24" height="24" viewBox="0 0 24 24">
    <rect id="Icon_delete_outline_background" data-name="Icon_delete_outline background" width="24" height="24" fill="#fff" opacity="0"/>
    <g id="Icon_delete_outline-2" data-name="Icon_delete_outline" transform="translate(4 2)">
        <path id="Path" d="M1,0A1,1,0,0,1,2,1V12a1,1,0,0,0,1,1h8a1,1,0,0,0,1-1V1a1,1,0,0,1,2,0V12a3,3,0,0,1-3,3H3a3,3,0,0,1-3-3V1A1,1,0,0,1,1,0Z" transform="translate(1 5)" fill="#fff"/>
        <path id="Path-2" data-name="Path" d="M1,0A1,1,0,0,1,2,1V9A1,1,0,0,1,0,9V1A1,1,0,0,1,1,0Z" transform="translate(5 6)" fill="#fff"/>
        <path id="Path-3" data-name="Path" d="M1,0A1,1,0,0,1,2,1V9A1,1,0,0,1,0,9V1A1,1,0,0,1,1,0Z" transform="translate(9 6)" fill="#fff"/>
        <path id="Path-4" data-name="Path" d="M0,1A1,1,0,0,1,1,0H15a1,1,0,0,1,0,2H1A1,1,0,0,1,0,1Z" transform="translate(0 2)" fill="#fff"/>
        <path id="Path-5" data-name="Path" d="M0,1A1,1,0,0,1,1,0H7A1,1,0,0,1,8,1V2H0Z" transform="translate(4)" fill="#fff"/>
    </g>
</svg>
