<svg xmlns="http://www.w3.org/2000/svg" width="72" height="72" viewBox="0 0 72 72">
  <g id="Сгруппировать_3295" data-name="Сгруппировать 3295" transform="translate(-1940 -1655)">
    <g id="Icon_language_outline" transform="translate(1940 1655)">
      <rect id="Icon_language_outline_background" data-name="Icon_language_outline background" width="72" height="72" fill="none"/>
      <g id="Icon_language_outline-2" data-name="Icon_language_outline" transform="translate(6 6)">
        <path id="Shape" d="M30,60A30,30,0,1,1,60,30,30.034,30.034,0,0,1,30,60ZM30,6A24,24,0,1,0,54,30,24.027,24.027,0,0,0,30,6Z" fill="#62beb8"/>
        <path id="Path" d="M54,6H0V0H54Z" transform="translate(3 27)" fill="#62beb8"/>
        <path id="Path-2" data-name="Path" d="M0,54s0,0,2.122,2.12,2.122,2.121,2.123,2.12l.006-.006.012-.012.036-.037.122-.126c.1-.107.247-.259.427-.455.36-.392.862-.958,1.461-1.681a54.38,54.38,0,0,0,4.369-6.106c3.149-5.118,6.445-12.423,6.445-20.7s-3.3-15.58-6.445-20.7A54.372,54.372,0,0,0,6.309,2.315c-.6-.723-1.1-1.289-1.461-1.681-.18-.2-.324-.348-.427-.455L4.3.053,4.263.016,4.251,0l0,0s0,0-2.125,2.118S0,4.239,0,4.238l.014.015.079.081c.073.076.187.2.335.358.3.323.731.812,1.258,1.448a48.3,48.3,0,0,1,3.881,5.425c2.851,4.632,5.555,10.827,5.555,17.553s-2.7,12.92-5.555,17.553A48.275,48.275,0,0,1,1.686,52.1c-.527.637-.961,1.125-1.258,1.448-.148.161-.262.281-.335.358l-.079.081Z" transform="translate(27.877 0.882)" fill="#62beb8"/>
        <path id="Path-3" data-name="Path" d="M17.122,54s0,0-2.122,2.12-2.122,2.121-2.123,2.12l-.006-.006-.012-.012-.036-.037-.122-.126c-.1-.107-.247-.259-.427-.455-.36-.392-.863-.958-1.461-1.681a54.366,54.366,0,0,1-4.369-6.106C3.3,44.7,0,37.393,0,29.118s3.3-15.58,6.445-20.7a54.358,54.358,0,0,1,4.369-6.106c.6-.723,1.1-1.289,1.461-1.681.18-.2.324-.348.427-.455l.122-.126.036-.037L12.871,0l0,0s0,0,2.125,2.118,2.122,2.121,2.122,2.12l-.014.015-.079.081c-.073.076-.187.2-.335.358-.3.323-.731.812-1.258,1.448a48.3,48.3,0,0,0-3.881,5.425C8.7,16.2,6,22.393,6,29.118s2.7,12.92,5.555,17.553A48.275,48.275,0,0,0,15.436,52.1c.527.637.961,1.125,1.258,1.448.148.161.262.281.335.358l.079.081Z" transform="translate(15 0.882)" fill="#62beb8"/>
      </g>
    </g>
  </g>
</svg>
