<svg width="61" height="61" viewBox="0 0 61 61" fill="none" xmlns="http://www.w3.org/2000/svg">
<path d="M13.6911 14.2304C13.5131 14.2304 13.3456 14.2304 13.178 14.2304C13.0105 14.2304 12.8325 14.2304 12.6597 14.2304C8.86387 14.2408 6 17.0942 6 20.8796C6 31.9634 6 41.9424 6 51.377C6 55.1518 8.8534 58 12.6335 58C24.1937 58 35.7539 58 47.3141 58C50.733 58 53.3246 55.8168 53.9215 52.445C53.9319 52.3874 53.9529 52.3351 53.9738 52.2827C53.9791 52.2618 53.9895 52.2461 53.9948 52.2251V19.9948C53.9686 19.8901 53.9372 19.7696 53.911 19.644C53.8534 19.3927 53.7906 19.1309 53.7173 18.8796C52.9162 16.1728 50.3874 14.2618 47.5602 14.2304C47.1623 14.2304 46.7696 14.2304 46.356 14.2304C46.1571 14.2304 45.9476 14.2304 45.7382 14.2304H45.6754V13.8272C45.6754 13.6021 45.6754 13.3927 45.6754 13.1885C45.6544 11.555 44.9162 10.5707 43.3403 10.0785C43.2984 10.0681 43.267 10.0366 43.2408 10.0157C43.2408 10.0157 43.2304 10.0052 43.2251 10.0052H42.1309L42.0052 10.0576C41.911 10.0942 41.8168 10.1361 41.7225 10.1728C40.5079 10.6387 39.8325 11.5131 39.7225 12.7696C39.6963 13.0733 39.7016 13.3717 39.712 13.6911C39.712 13.8377 39.7173 13.9895 39.7173 14.1414V14.2042H37.2199V13.3717C37.2199 11.5602 36.5497 10.6335 34.8377 10.0628C34.801 10.0524 34.7801 10.0262 34.7644 10.0052H33.6806L33.555 10.0576C33.4607 10.0942 33.3665 10.1361 33.2723 10.1728C32.0576 10.6387 31.3822 11.5131 31.2723 12.7696C31.2461 13.0733 31.2513 13.3717 31.2618 13.6911C31.2618 13.8377 31.267 13.9895 31.267 14.1414V14.2042H28.7696V13.3717C28.7696 11.5602 28.0995 10.6335 26.3874 10.0628C26.3508 10.0524 26.3298 10.0262 26.3141 10.0052H25.2304L25.0995 10.0576C25.0052 10.0942 24.911 10.1361 24.8168 10.1675C23.6021 10.6335 22.9267 11.5079 22.8168 12.7644C22.7906 13.0681 22.7958 13.3665 22.8063 13.6859C22.8063 13.8325 22.8115 13.9843 22.8115 14.1361V14.199H20.3141V13.3665C20.3141 11.555 19.644 10.6283 17.9319 10.0576C17.8953 10.0471 17.8743 10.0209 17.8586 10H16.7749L16.6387 10.0576C16.5445 10.0942 16.4555 10.1309 16.3613 10.1675C15.1571 10.6283 14.4869 11.4921 14.3665 12.733C14.3351 13.0419 14.3455 13.356 14.3508 13.6859C14.3508 13.8429 14.356 14 14.356 14.1623V14.2251H13.7068L13.6911 14.2304ZM41.4503 14.4869C41.4503 14.0524 41.4503 13.5969 41.4503 13.1571C41.4607 12.3037 41.9476 11.7539 42.6859 11.7539H42.7016C43.4293 11.7592 43.9215 12.3141 43.9267 13.1361C43.9372 14.445 43.9372 15.7696 43.9267 17.0785C43.9215 17.8953 43.4293 18.4555 42.7068 18.4607H42.6911C41.9529 18.4607 41.4712 17.911 41.4555 17.0576C41.4503 16.6021 41.4555 16.1361 41.4555 15.6911C41.4555 15.4921 41.4555 15.288 41.4555 15.089C41.4555 14.8901 41.4555 14.6963 41.4555 14.4974L41.4503 14.4869ZM33 13.0105C33.0105 12.3665 33.3927 11.8901 33.9948 11.7696C34.5497 11.6545 35.1257 11.9581 35.3403 12.4712C35.4188 12.6597 35.4607 12.8901 35.466 13.178C35.4764 13.6492 35.4764 14.1309 35.4712 14.5916C35.4712 14.7749 35.4712 14.9634 35.4712 15.1466C35.4712 15.3298 35.4712 15.534 35.4712 15.7277C35.4712 16.1623 35.4712 16.5916 35.4712 17.0262C35.4607 17.9005 34.9895 18.445 34.2461 18.4555H34.2304C33.9005 18.4555 33.6126 18.3455 33.3979 18.1309C33.1414 17.8796 33 17.5026 33 17.0524C32.9895 15.7644 32.9843 14.3822 33.0052 13.0157L33 13.0105ZM24.534 13.1309C24.5393 12.3141 25.0314 11.7592 25.7592 11.7487H25.7749C26.5131 11.7487 26.9948 12.2984 27.0105 13.1518C27.0157 13.6073 27.0105 14.0681 27.0105 14.5131C27.0105 14.7173 27.0105 14.9215 27.0105 15.1204C27.0105 15.3194 27.0105 15.5183 27.0105 15.7173C27.0105 16.1518 27.0105 16.6021 27.0105 17.0471C27 17.9005 26.5131 18.4503 25.7749 18.4503H25.7592C25.0209 18.4398 24.5445 17.9005 24.534 17.0681C24.5236 15.7592 24.5236 14.4346 24.534 13.1257V13.1309ZM16.0681 14.4817C16.0681 14.0262 16.0628 13.5602 16.0681 13.0995C16.0838 12.2932 16.5812 11.7539 17.2984 11.7539C17.3089 11.7539 17.3194 11.7539 17.3298 11.7539C18.0471 11.7696 18.534 12.3089 18.5393 13.0995C18.555 14.534 18.555 15.8534 18.5393 17.1361C18.5288 17.9162 18.0209 18.4607 17.3089 18.4607C16.5916 18.4607 16.0942 17.9319 16.0733 17.1414C16.0628 16.6649 16.0628 16.178 16.0681 15.7068C16.0681 15.4974 16.0681 15.288 16.0681 15.0733C16.0681 14.8796 16.0681 14.6806 16.0681 14.4869V14.4817ZM14.3455 17.4555C14.445 18.6492 15.0524 19.4921 16.1518 19.9634C17.2199 20.4241 18.2356 20.2775 19.178 19.5393C19.8586 19.0052 20.2251 18.3037 20.2723 17.4503C20.288 17.1466 20.288 16.8377 20.2827 16.5131C20.2827 16.3665 20.2827 16.2147 20.2827 16.0576V15.9948H22.801V16.0576C22.801 16.2094 22.801 16.356 22.7958 16.5079C22.7906 16.8325 22.7801 17.1414 22.8063 17.4555C22.9058 18.6492 23.5131 19.4921 24.6178 19.9634C25.7016 20.4241 26.733 20.2723 27.6806 19.5079C28.3874 18.9372 28.7539 18.1518 28.7644 17.1675C28.7644 16.9267 28.7644 16.6806 28.7644 16.4293V16H31.267V16.0628C31.267 16.2094 31.267 16.356 31.2618 16.5026C31.2565 16.8115 31.2513 17.1361 31.2723 17.4503C31.3665 18.7644 32.3037 19.8429 33.6073 20.1257C34.9319 20.4136 36.2565 19.8115 36.8272 18.6545C37.0209 18.2565 37.0942 17.7853 37.1623 17.3298C37.1832 17.2042 37.199 17.0838 37.2199 16.9581C37.2513 16.7696 37.2461 16.5707 37.2356 16.3665C37.2356 16.2723 37.2251 16.1728 37.2251 16.0733V16.0157L37.2827 16.0052C37.3194 16 37.356 15.9948 37.3874 15.9895C37.4503 15.9791 37.5026 15.9686 37.555 15.9686C38.0524 15.9686 38.555 15.9686 39.089 15.9686H39.7225V16.0314C39.7225 16.1885 39.7225 16.3403 39.7173 16.4974C39.712 16.8272 39.7068 17.1361 39.7277 17.445C39.8272 18.7592 40.7644 19.8377 42.0628 20.1204C43.3874 20.4136 44.712 19.8063 45.2827 18.6492C45.4764 18.2565 45.5497 17.7853 45.6178 17.3298C45.6387 17.2042 45.6544 17.0838 45.6754 16.9581C45.7068 16.7696 45.7016 16.5707 45.6911 16.3613C45.6911 16.2618 45.6806 16.1571 45.6806 16.0471V15.9843H45.7435C45.9529 15.9843 46.1675 15.9738 46.377 15.9686C47.4398 15.9372 48.4398 15.911 49.4084 16.377C51.2723 17.2775 52.2304 18.7644 52.2408 20.801C52.2565 23.2042 52.2565 25.6492 52.2513 28.0157C52.2513 29.0262 52.2513 30.0366 52.2513 31.0471V36.733C52.2513 41.6073 52.2513 46.4764 52.2513 51.3508C52.2513 53.644 50.8534 55.4974 48.7016 56.0681C48.288 56.178 47.8325 56.2356 47.3403 56.2356C40.7016 56.2356 33.8377 56.2408 26.6126 56.2408C22.1152 56.2408 17.4817 56.2408 12.6597 56.2408C9.82199 56.2408 7.75916 54.178 7.75393 51.3403C7.75393 41.7801 7.75393 31.8168 7.75393 20.8901C7.75393 18.0524 9.82723 15.9791 12.6859 15.9686C13.0105 15.9686 13.3403 15.9686 13.6911 15.9686H14.3403V16.0366C14.3403 16.1937 14.3403 16.3455 14.3351 16.4974C14.3298 16.8272 14.3194 17.1361 14.3455 17.445V17.4555Z" fill="white"/>
<path d="M17.1153 22.6911C16.5027 22.6911 15.8902 22.6911 15.2828 22.6911H12.8378C11.131 22.6911 10.2305 23.5916 10.2305 25.288V51.1361C10.2305 52.8848 11.11 53.7696 12.843 53.7696H47.1991C48.8535 53.7696 49.7645 52.8691 49.7645 51.2304C49.7645 42.5654 49.7645 33.9058 49.7645 25.2408C49.7645 23.5969 48.8535 22.6911 47.2043 22.6911H26.1519C25.3195 22.6911 24.9111 22.9686 24.8954 23.5445C24.8902 23.7853 24.9582 23.9791 25.0996 24.1257C25.3038 24.3351 25.6598 24.4398 26.1572 24.4398H47.1676C47.8692 24.4398 48.021 24.5864 48.021 25.2513C48.021 33.9162 48.021 42.5759 48.021 51.2408C48.021 51.8482 47.8483 52.0157 47.2252 52.0157C35.7436 52.0157 24.2566 52.0157 12.775 52.0157C12.1519 52.0157 11.9792 51.8482 11.9792 51.2408C11.9792 42.5602 11.9792 33.8796 11.9792 25.2042C11.9792 24.6021 12.1519 24.4398 12.7802 24.4346C13.4294 24.4346 14.0786 24.4346 14.7279 24.4346C15.5237 24.4346 16.3142 24.4346 17.1048 24.4346C17.4765 24.4346 17.7697 24.3298 17.9582 24.1361C18.1048 23.9843 18.1833 23.7801 18.1781 23.5445C18.1676 23.0105 17.7697 22.6911 17.1153 22.6859V22.6911Z" fill="white"/>
<path d="M38.2099 37.8743C38.7125 37.356 38.8643 36.7644 38.6549 36.1309C38.4507 35.5026 38.0005 35.1204 37.3146 34.9948C36.9167 34.9215 36.5188 34.8429 36.1261 34.7696C35.3984 34.6283 34.6444 34.4869 33.9062 34.3613C33.5083 34.2984 33.2727 34.1204 33.0895 33.7592C32.791 33.1675 32.4717 32.5654 32.1628 31.9895C31.9586 31.6126 31.7596 31.2356 31.5607 30.8534C31.2099 30.178 30.702 29.8482 30.0214 29.8429H30.0109C29.3355 29.8429 28.8329 30.1675 28.4717 30.8377C27.9533 31.8063 27.3669 32.9005 26.7596 33.9686C26.6601 34.1466 26.4298 34.3089 26.2308 34.3508C25.1942 34.555 24.0738 34.7592 22.812 34.9634C22.058 35.089 21.5868 35.4607 21.3669 36.1047C21.1471 36.7592 21.3041 37.3508 21.8539 37.9215C22.7963 38.8953 23.5659 39.712 24.2727 40.4869C24.4193 40.6492 24.5135 40.9162 24.4874 41.1047C24.3512 42.2199 24.1942 43.3665 24.0109 44.4974C23.8853 45.2775 24.0947 45.8534 24.6444 46.2723C25.1994 46.6911 25.812 46.7277 26.5188 46.3822C27.0057 46.1414 27.5083 45.9058 27.99 45.6806C28.524 45.4293 29.0685 45.1728 29.6078 44.9058C29.7753 44.822 29.9219 44.7801 30.0633 44.7801C30.2046 44.7801 30.3408 44.822 30.4926 44.8953C31.5135 45.4241 32.5345 45.911 33.4821 46.356C33.6811 46.4503 33.8957 46.5131 34.0999 46.5812C34.1942 46.6126 34.2884 46.6387 34.3774 46.6702C34.88 46.6335 35.3251 46.4084 35.634 46.0314C35.9533 45.644 36.0895 45.1361 36.0214 44.6073L35.9586 44.1204C35.8224 43.1047 35.6811 42.0576 35.5659 41.0209C35.545 40.822 35.6287 40.555 35.7701 40.4084C36.3669 39.7644 36.9847 39.1309 37.5868 38.5131C37.7963 38.2984 38.0057 38.0838 38.2099 37.8691V37.8743ZM36.8067 36.801C36.5554 37.0576 36.3146 37.3194 36.0738 37.5759C35.5083 38.178 34.9743 38.7487 34.3879 39.288C33.8224 39.8115 33.6392 40.3665 33.7858 41.1466C33.9324 41.9372 34.0214 42.7277 34.1156 43.5654C34.1575 43.9267 34.1994 44.288 34.2465 44.6597L34.2622 44.7696L34.1575 44.7277C34.0895 44.7016 34.0319 44.6754 33.9795 44.6544C33.8748 44.6126 33.7963 44.5812 33.7125 44.5445L33.1418 44.267C32.3198 43.8691 31.4664 43.4555 30.6392 43.0366C30.2518 42.8429 29.8853 42.8429 29.4874 43.0366C28.7282 43.4084 27.9481 43.7801 27.1942 44.1361C26.9167 44.267 26.634 44.3979 26.3565 44.534C26.2622 44.5759 26.1732 44.6178 26.0528 44.6702L25.7439 44.8063L25.88 43.8272C25.9638 43.2199 26.0423 42.6387 26.1209 42.0628C26.1366 41.9529 26.1471 41.8482 26.1628 41.7382C26.1942 41.4764 26.2256 41.2042 26.2884 40.9424C26.4141 40.4346 26.2727 40.0262 25.8277 39.5759C25.2046 38.9476 24.6078 38.3089 23.9743 37.6335C23.7177 37.356 23.456 37.0785 23.1837 36.7958L23.0999 36.7068L24.1418 36.5183C24.7387 36.4136 25.3146 36.3089 25.8957 36.2042C26.1994 36.1466 26.4507 36.1099 26.6601 36.0733C27.3722 35.9581 27.8905 35.5916 28.2151 34.9738C28.3094 34.7958 28.4193 34.5812 28.5607 34.3298C28.8748 33.7592 29.1889 33.1885 29.5188 32.5864L30.0109 31.6859L30.3408 32.2984C30.545 32.6754 30.7334 33.0262 30.9167 33.377L31.1261 33.7696C31.3984 34.2775 31.6758 34.8063 31.9481 35.3246C32.1209 35.6649 32.3827 35.8534 32.7753 35.9215C33.7387 36.0942 34.7125 36.2723 35.6549 36.4503L36.3251 36.5759C36.4193 36.5916 36.5083 36.6178 36.6183 36.6492C36.6706 36.6649 36.7282 36.6806 36.791 36.6963L36.901 36.7225L36.8224 36.801H36.8067Z" fill="white"/>
<path d="M21.5554 22.6963H21.5449C21.3146 22.6963 21.0999 22.7853 20.9324 22.9529C20.7648 23.1204 20.6706 23.3455 20.6758 23.5759C20.681 24.0471 21.0685 24.4293 21.5344 24.4398H21.5449C21.7753 24.4398 21.9899 24.3508 22.1575 24.1832C22.325 24.0157 22.4193 23.7906 22.4193 23.5602C22.414 23.0942 22.0266 22.7068 21.5606 22.7016L21.5554 22.6963Z" fill="white"/>
</svg>
