<svg width="54" height="49" viewBox="0 0 54 49" fill="none" xmlns="http://www.w3.org/2000/svg">
<path d="M47.078 48.9104C49.9361 48.4938 52.193 46.4003 52.8258 43.5845C52.9892 42.8621 52.8996 42.2609 52.5726 41.8496C52.2457 41.4383 51.6815 41.2221 50.938 41.2221C48.6758 41.2221 46.4083 41.2221 44.1461 41.2221H40.7239V38.3166C40.7239 34.4461 40.7239 30.5756 40.7239 26.7051V26.6576C40.7239 26.4573 40.7239 26.2463 40.6817 26.0565C40.5868 25.6505 40.3178 25.4395 39.8854 25.4554C39.4847 25.4659 39.2263 25.6716 39.1419 26.0565C39.0997 26.2516 39.0997 26.4625 39.0997 26.6682V26.7051C39.0997 30.5914 39.0997 34.4725 39.0997 38.3588V41.2168H35.514C32.6876 41.2168 29.8612 41.2168 27.0347 41.2168C25.7797 41.2168 25.2208 41.6914 24.9729 42.9675C24.53 45.2139 23.1484 46.6798 20.9759 47.2071C18.8455 47.7239 16.9577 47.0595 15.5182 45.2824C14.7588 44.3438 14.4055 43.1837 14.4055 41.6334C14.4108 36.5501 14.4108 31.4668 14.4108 26.3834C14.4108 21.4794 14.4108 16.5754 14.4108 11.6713C14.4108 9.4988 13.7148 7.75866 12.2857 6.34545C12.2541 6.31909 12.233 6.28745 12.1908 6.23999C12.1697 6.21362 12.1434 6.18198 12.1117 6.1398L12.0273 6.03961H12.1592C12.2277 6.02906 12.291 6.02379 12.3437 6.01852C12.4492 6.01324 12.5336 6.0027 12.6179 6.0027H19.6576C24.3507 6.0027 29.0438 6.0027 33.7369 6.0027C34.6228 6.0027 35.4402 6.1978 36.2311 6.60384C36.5475 6.76203 36.8375 6.80422 37.0696 6.73039C37.2541 6.66711 37.4018 6.53001 37.502 6.31909C37.7182 5.87087 37.5231 5.44901 36.9747 5.16426C35.9675 4.63695 34.8707 4.38384 33.6209 4.38384H33.5946C30.5572 4.39438 27.4671 4.38911 24.4825 4.38911C23.2064 4.38911 21.9251 4.38911 20.6437 4.38911C19.3359 4.38911 18.0229 4.38911 16.7152 4.38911C13.6093 4.38911 10.3927 4.37856 7.23405 4.4102C3.91724 4.44184 1.00645 7.03096 0.610968 10.3056C0.489685 11.3233 0.500231 12.3832 0.500231 13.4009C0.500231 13.7859 0.505505 14.1708 0.500231 14.5505C0.494958 15.2254 0.64788 15.7106 0.969542 16.0322C1.29648 16.3592 1.78688 16.5226 2.47766 16.5226C4.75567 16.5226 7.0284 16.5226 9.3064 16.5226H12.7761V41.76C12.7761 44.6286 13.989 46.7589 16.383 48.0983C16.9156 48.3989 17.5325 48.5729 18.1284 48.7469C18.4026 48.826 18.6821 48.9051 18.951 49H46.788C46.8144 48.9895 46.8407 48.9789 46.8671 48.9736C46.9356 48.9473 47.0042 48.9262 47.078 48.9104ZM12.7656 13.6013C12.7656 14.0021 12.755 14.4028 12.755 14.8089V14.8721H2.02945V14.8036C2.06109 14.2974 2.07163 13.7806 2.08745 13.2849C2.11382 12.1881 2.13491 11.0544 2.35111 9.97865C2.85206 7.47391 5.28826 5.78122 8.00393 6.02906C10.5878 6.26635 12.6232 8.40725 12.7445 11.0069C12.7867 11.8612 12.7761 12.7049 12.7656 13.596V13.6013ZM45.9127 47.3706C40.9084 47.3706 35.8989 47.3706 30.8947 47.3706H24.2083L24.3296 47.2546C25.6268 46.047 26.3809 44.6233 26.6287 42.9148L26.6393 42.8568H51.2702V42.9306C51.0803 44.9871 49.1662 46.9329 46.9989 47.2704C46.6034 47.3337 46.2501 47.3601 45.9179 47.3601L45.9127 47.3706Z" fill="white"/>
<path d="M53.0052 6.29272V5.07462C52.7416 4.05163 52.1088 3.2132 50.954 2.35895C50.5743 2.0742 50.2052 1.76308 49.8519 1.46251C49.6515 1.29377 49.4511 1.11975 49.2455 0.956286C47.4737 -0.483285 45.4699 -0.288179 44.0145 1.47833L39.5271 6.90968C34.4437 13.0582 29.3657 19.212 24.2876 25.3657C24.0978 25.5977 23.9396 25.8719 23.85 26.1409C22.8586 29.0622 21.8883 31.9624 21.1607 34.1613C21.1185 34.2932 21.071 34.4197 21.0235 34.5516C20.7599 35.274 20.5068 35.9542 20.9497 36.7505L21.0025 36.8507H19.6103C19.2043 36.8507 18.8088 36.8507 18.4186 36.8507C17.5749 36.8507 17.1741 37.1038 17.1636 37.6522C17.1636 37.8789 17.2216 38.0477 17.3534 38.1795C17.5485 38.3746 17.8966 38.4748 18.3922 38.4748C23.9607 38.4748 29.5239 38.4748 35.0923 38.4748C35.9255 38.4748 36.3315 38.2059 36.3315 37.6574C36.3315 37.1038 35.936 36.8454 35.0923 36.8454H24.372L24.4406 36.7399C24.5777 36.5343 24.7253 36.4393 24.873 36.355C25.4583 36.0228 26.0489 35.6958 26.6342 35.3636C28.195 34.483 29.8139 33.576 31.3958 32.6638C31.7913 32.437 32.1552 32.1312 32.4294 31.8042C39.4374 23.3461 45.201 16.375 50.5585 9.86792C50.7536 9.62535 50.9645 9.38806 51.1702 9.16131C51.9137 8.31761 52.6836 7.44227 53.0052 6.29272ZM22.2733 35.9542L23.3121 32.8431L25.1366 34.3406L22.2733 35.9489V35.9542ZM29.3182 31.9835C28.4692 32.4634 27.673 32.9169 26.8504 33.3651C26.8187 33.3809 26.7818 33.3862 26.7396 33.3862C26.6184 33.3862 26.4602 33.3229 26.3811 33.2544C25.6112 32.6374 24.8571 32.0099 24.1294 31.3877C24.0187 31.2927 23.9185 31.0713 23.9607 30.9447C24.2402 30.0747 24.5302 29.2204 24.836 28.3134L25.1155 27.4908L30.0512 31.567L29.3182 31.9835ZM43.7034 15.6315L31.3695 30.5545L31.3167 30.5123L25.859 25.9985L25.9012 25.9458L38.2351 11.0175L38.2879 11.0597L43.7456 15.5787L43.7034 15.6315ZM44.7791 14.3237L39.2687 9.773L41.0299 7.64792L41.0826 7.69011L46.5403 12.2039L44.7844 14.329L44.7791 14.3237ZM48.6391 9.66227C48.3016 10.0736 47.9588 10.4796 47.6161 10.8962L47.5739 10.9489L47.5212 10.9067L42.0582 6.39291L42.1004 6.34018C42.4431 5.9236 42.7859 5.50702 43.1233 5.09571C43.9354 4.10436 44.7 3.17101 45.5068 2.23239C46.1449 1.4836 47.1731 1.38868 47.9588 2.00564C48.9133 2.75443 49.8572 3.53486 50.7694 4.33111C51.5077 4.97443 51.6184 5.98688 51.0225 6.73566C50.2474 7.72174 49.4248 8.70782 48.6338 9.65699L48.6391 9.66227Z" fill="white"/>
<path d="M24.3772 10.1949H30.0037C31.1954 10.1949 32.3819 10.1949 33.5736 10.1949C34.3277 10.1949 34.3646 9.773 34.3804 9.63062C34.3962 9.46188 34.3593 9.32478 34.2591 9.21932C34.1062 9.05585 33.832 8.96621 33.4629 8.96621H18.3025C18.1496 8.96621 17.9914 8.96621 17.849 9.00312C17.5379 9.07167 17.385 9.26678 17.3692 9.59898C17.3586 9.88374 17.5748 10.1263 17.886 10.1738C18.0283 10.1949 18.1865 10.1949 18.3394 10.1949L18.3658 10.2581H18.4133V10.1949C20.4012 10.1949 22.3892 10.1949 24.3772 10.1949Z" fill="white"/>
<path d="M29.9875 13.3535C28.9381 13.3535 27.8835 13.3535 26.8341 13.3535H18.1756C17.6799 13.3535 17.3794 13.5802 17.3688 13.9546C17.3688 14.1128 17.4163 14.2552 17.5165 14.3606C17.6483 14.4977 17.8698 14.5768 18.1334 14.5768C19.4095 14.5768 20.6856 14.5768 21.9617 14.5768H29.998C30.3566 14.5768 30.789 14.4714 30.7995 13.981C30.7995 13.8175 30.7521 13.6751 30.6519 13.5749C30.5095 13.4326 30.2828 13.3535 29.9822 13.3535H29.9875Z" fill="white"/>
<path d="M26.418 17.7513C24.4142 17.7513 22.4051 17.7513 20.4013 17.7513H18.1866C18.0811 17.7513 18.002 17.7513 17.9229 17.7618C17.596 17.7987 17.422 17.9728 17.3798 18.2891C17.3429 18.6003 17.48 18.8165 17.7858 18.9167C17.9282 18.9641 18.0969 18.9694 18.2551 18.9694C19.1147 18.9694 19.9742 18.9694 20.839 18.9694H26.2018C26.3073 18.9694 26.36 18.9694 26.4127 18.9694C26.6816 18.9588 26.9031 18.8797 27.0349 18.7374C27.1351 18.6319 27.1826 18.4948 27.1773 18.3313C27.1615 17.804 26.6395 17.746 26.4127 17.746L26.418 17.7513Z" fill="white"/>
<path d="M22.8054 22.128C22.0461 22.1227 21.2657 22.1175 20.4694 22.1175C19.6732 22.1175 18.9244 22.1175 18.1387 22.1227C17.875 22.1227 17.6536 22.2018 17.5217 22.3389C17.4215 22.4444 17.3688 22.5868 17.3688 22.7502C17.3794 23.2776 17.8961 23.3461 18.1229 23.3461C18.6713 23.3567 19.2302 23.3514 19.7734 23.3461C20.2427 23.3461 20.712 23.3461 21.176 23.3461H21.329C21.8088 23.3461 22.2992 23.3461 22.7843 23.3461C23.0638 23.3461 23.2747 23.2723 23.4013 23.1405C23.5015 23.0403 23.549 22.9032 23.5437 22.7292C23.5331 22.2071 23.0744 22.128 22.8054 22.128Z" fill="white"/>
</svg>
