<svg xmlns="http://www.w3.org/2000/svg" width="61" height="61" fill="none"><g fill="#fff" clip-path="url(#a)"><path d="M29.724 53.763c-.026-6.292-2.852-11.61-7.556-14.223-2.524-1.405-4.221-3.294-5.501-6.141-1.041-2.311-2.321-4.518-5.527-4.023-.989-1.457-2.483-2.103-3.93-2.727-.712-.307-1.451-.625-2.112-1.036-.172-.104-.339-.213-.5-.317-1.056-.687-1.967-1.28-3.253-.578-1.3.713-1.654 1.941-1.077 3.758.61 1.915 1.223 3.825 1.837 5.735.849 2.649 1.728 5.386 2.587 8.082.614 1.936 1.774 3.46 3.539 4.652a1555.9 1555.9 0 0 1 7.588 5.147c.228.157.468.302.697.448 1.327.827 2.581 1.613 2.243 3.607a.73.73 0 0 0 .161.588c.135.16.344.25.573.25.447 0 .687-.282.723-.828v-.115c.104-1.524.198-2.96-1.577-4.023-2.15-1.285-4.246-2.742-6.276-4.147-1.01-.698-2.05-1.421-3.086-2.113-1.54-1.03-2.405-2.03-2.805-3.232a726.683 726.683 0 0 1-3.149-9.758c-.546-1.717-1.093-3.435-1.644-5.147-.245-.755-.073-1.254.515-1.535.317-.151.624-.172.895-.073.265.104.479.323.614.64.64 1.504 1.488 2.935 2.316 4.32 1.462 2.461 2.972 5 3.336 8.014.073.604.416 1.103 1.077 1.572 2.129 1.504 4.382 3.08 6.88 4.834l.073.053c.395.28.895.63 1.348.052.172-.219.244-.422.213-.614-.047-.313-.359-.526-.635-.713-.052-.037-.104-.073-.156-.105a231.993 231.993 0 0 0-2.555-1.805 191.79 191.79 0 0 1-3.367-2.394c-.125-.094-.27-.172-.427-.26-.546-.302-1.062-.583-.718-1.317.4-.843 1.379-.833 2.134-.677 7.806 1.64 12.375 5.371 14.379 11.736.53 1.691.526 3.45.515 5.147v1.322c.005.51.016 1.14.744 1.181h.068c.208 0 .375-.057.494-.172.235-.213.276-.593.281-.968.01-.478.01-.957.006-1.426v-.676l.015.005ZM16.693 36.651c-2.706-.223-3.383-1.993-4.044-3.705-.24-.625-.49-1.27-.827-1.821 2.196.187 2.883 1.69 3.611 3.283.354.77.713 1.562 1.26 2.243Zm-4.57-.952c-.025.12-.145.229-.343.328-.557.28-1.088.463-1.488-.323-.932-1.827-1.88-3.622-2.878-5.521-.37-.703-.745-1.41-1.124-2.134 1.524-.11 2.149.624 2.591 1.441a219.14 219.14 0 0 1 2.837 5.387c.041.083.109.171.171.26.136.187.281.38.24.552l-.005.01ZM60.304 24.739c-.655-.505-1.4-.583-1.993-.219-1.02.63-2.123 1.088-3.185 1.53-1.02.427-2.082.864-3.05 1.452-.4.24-.645.724-.733.916-.339.76-.828 1.026-1.733.947-1.697-.15-3.06.64-3.95 2.28a311.702 311.702 0 0 0-2.686 5.069c-.38.728-.79 1.16-1.384 1.441-6.792 3.258-10.133 8.874-9.925 16.696 0 .156-.01.333-.026.525-.041.48-.088 1.02.188 1.322.14.156.359.234.64.234h.005c.291 0 .5-.073.635-.223.234-.26.187-.698.14-1.12-.026-.254-.057-.52-.015-.728.062-.323.047-.666.031-.994l-.015-.36c-.063-3.387 1.05-6.588 3.315-9.518 3.133-4.059 7.619-5.5 11.595-6.38.76-.167 1.753-.193 2.139.65.37.797-.188 1.088-.77 1.395-.183.1-.355.188-.5.297-.843.635-1.723 1.244-2.571 1.837a80.433 80.433 0 0 0-2.566 1.832 3.736 3.736 0 0 1-.468.276c-.39.208-.833.447-.927.827-.052.219.016.458.209.729.166.234.343.354.54.38.36.03.688-.26 1.01-.547.151-.135.297-.265.432-.348a37.609 37.609 0 0 0 3.149-2.181c.395-.302.833-.583 1.26-.853 1.665-1.067 3.387-2.17 3.08-4.814-.015-.125.089-.276.188-.427a1.8 1.8 0 0 0 .13-.214l1.967-3.731c.947-1.8 1.9-3.601 2.847-5.402l.073-.146c.39-.754.796-1.53 1.816-1.067.895.406.656 1.12.406 1.869-.026.067-.047.14-.068.208-.338 1.056-.676 2.113-1.02 3.175-1.046 3.252-2.128 6.614-3.138 9.94-.593 1.94-1.718 3.445-3.445 4.59-1.431.947-2.873 1.936-4.273 2.883-1.712 1.166-3.476 2.373-5.24 3.523-1.135.744-1.53 1.457-1.312 2.4v.306c0 .172-.005.297.01.422.016.13.01.28.005.437-.015.49-.03 1.098.745 1.13h.047c.26 0 .463-.079.598-.224.297-.323.224-.906.177-1.296-.135-1.14.4-1.733 1.374-2.368 2.035-1.333 4.08-2.727 6.058-4.075.989-.677 1.983-1.348 2.971-2.02 1.16-.78 2.56-1.894 3.128-3.575 2.123-6.292 3.7-11.168 5.105-15.81.339-1.114-.26-2.295-1.025-2.883l.005.005ZM54.7 28.044c.125 0 .26.01.401.026-.38.718-.755 1.43-1.124 2.133-.989 1.874-1.926 3.643-2.841 5.454-.365.724-.823.693-1.484.396-.213-.094-.338-.203-.374-.328-.053-.177.088-.38.223-.572.058-.084.115-.167.157-.245a230.98 230.98 0 0 1 2.846-5.376c.411-.75.994-1.494 2.196-1.494v.006Zm-5.1 3.065c-.338.546-.588 1.176-.827 1.79-.677 1.723-1.38 3.508-4.101 3.794.567-.703.947-1.514 1.311-2.295.745-1.587 1.447-3.091 3.617-3.284v-.005ZM43.864 24.79c1.332-1.857 2.103-3.918 2.004-6.26-.115-3.768-1.536-6.838-5.007-8.597-3.325-1.681-6.484-1.01-9.206 1.369-1.051.915-1.504.239-2.191-.282-4.939-3.736-11.247-1.878-13.333 3.971-1.27 3.56-.713 6.917 1.498 9.961 3.222 4.424 7.64 7.427 12.256 10.18.547.322 1.067.322 1.614 0 4.678-2.785 9.138-5.829 12.365-10.336v-.005Zm-4.038 2.468c-2.452 2.342-5.21 4.272-8.083 6.047-.635.39-1.17.562-1.91.104-3.804-2.347-7.442-4.902-10.32-8.379-1.847-2.232-2.529-4.049-2.524-7.187.089-2.602 1.338-5.324 4.544-6.765 3.19-1.437 5.833-.245 8.082 2.066.817.838 1.316.822 2.165.01 3.242-3.086 6.453-3.507 9.414-1.358 3.014 2.186 4.143 6.719 2.535 10.33-.895 2.01-2.327 3.633-3.904 5.137v-.005Z"/></g><defs><clipPath id="a"><path fill="#fff" d="M0 0h61v61H0z"/></clipPath></defs></svg>