<svg width="61" height="61" viewBox="0 0 61 61" fill="none" xmlns="http://www.w3.org/2000/svg">
<path d="M35.6172 22.8362L30.6589 26.4863L25.7006 22.8362C25.4752 22.6108 25.1077 22.6108 24.8824 22.8362C24.657 23.0615 24.657 23.429 24.8824 23.6544L30.071 27.5789V31.4544C30.071 31.7729 30.3306 32.0325 30.6491 32.0325C30.9676 32.0325 31.2272 31.7729 31.2272 31.4544V27.5936L36.4354 23.6544C36.6608 23.429 36.6608 23.0615 36.4354 22.8362C36.21 22.6108 35.8426 22.6108 35.6172 22.8362Z" fill="white"/>
<path d="M30.6449 32.0963C30.2922 32.0963 30.0031 31.8121 30.0031 31.4594V27.6133L24.839 23.7083C24.7116 23.581 24.643 23.4193 24.643 23.2478C24.643 23.0763 24.7116 22.9146 24.8292 22.797C25.0791 22.5472 25.4857 22.5472 25.7356 22.797L30.6498 26.4178L35.5689 22.797C35.8188 22.5521 36.2206 22.5521 36.4705 22.797C36.5929 22.9195 36.6566 23.0812 36.6566 23.2478C36.6566 23.4144 36.588 23.581 36.4705 23.6986L31.277 27.628V31.4545C31.277 31.8072 30.9879 32.0914 30.6351 32.0914L30.6449 32.0963ZM25.2849 22.7333C25.1526 22.7333 25.0203 22.7823 24.9223 22.8852C24.8243 22.9832 24.7704 23.1106 24.7704 23.2478C24.7704 23.385 24.8243 23.5173 24.9223 23.6104L30.1256 27.5447V31.4545C30.1256 31.7386 30.3559 31.9689 30.64 31.9689C30.9242 31.9689 31.1545 31.7386 31.1545 31.4545V27.5643L31.179 27.5447L36.3872 23.6055C36.4803 23.5124 36.5341 23.385 36.5341 23.2478C36.5341 23.1106 36.4802 22.9783 36.3823 22.8852C36.1814 22.6844 35.8531 22.6844 35.6522 22.8852H35.6473L30.6498 26.5697L25.6523 22.8901C25.5494 22.7872 25.4123 22.7333 25.28 22.7333H25.2849Z" fill="white"/>
<path d="M14.7952 22.8607C16.6473 22.8607 18.3866 22.1405 19.6948 20.8274C21.0029 19.5143 21.7281 17.775 21.7281 15.9279C21.7281 12.1063 18.6169 9 14.8002 9C12.953 9 11.2088 9.72023 9.90064 11.0333C8.59247 12.3464 7.87224 14.0857 7.87224 15.9328C7.87224 19.7495 10.9834 22.8607 14.8002 22.8607H14.7952ZM11.1157 12.2533C12.1005 11.2685 13.4038 10.7246 14.7952 10.7246C17.6615 10.7246 19.9985 13.0568 19.9985 15.9279C19.9985 17.3145 19.4596 18.6226 18.4748 19.6074C17.49 20.5922 16.1867 21.1361 14.8002 21.1361C11.929 21.1361 9.59687 18.8039 9.59687 15.9377C9.59687 14.5511 10.1407 13.243 11.1206 12.2582L11.1157 12.2533Z" fill="white"/>
<path d="M6 32.6891C6 32.9194 6.08819 33.1448 6.24987 33.3065C6.41156 33.473 6.63203 33.5661 6.86231 33.5661H22.7269C23.1973 33.5661 23.5745 33.1938 23.5892 32.7283C23.599 32.4784 23.746 26.6039 20.0567 23.2233C19.748 22.9391 19.2826 22.9195 18.9494 23.1743C18.9102 23.2037 14.7456 26.3051 10.9093 23.1792C10.7525 23.0518 10.5565 22.9832 10.3655 22.9832C10.1744 22.9832 9.9637 23.0518 9.79712 23.1939C9.64524 23.3262 6.09309 26.4961 6.0049 32.6842L6 32.6891ZM10.4145 25.0312L10.4488 24.9871L10.4929 25.0165C13.5697 27.0596 17.068 26.3443 19.312 24.9969L19.3561 24.9724L19.3904 25.0116C21.262 27.1282 21.7176 30.1512 21.8254 31.768V31.8366H7.75403V31.768C8.0431 28.26 9.53745 26.0405 10.4047 25.0312H10.4145Z" fill="white"/>
<path d="M51.3066 23.2673C51.0224 23.0077 50.5864 22.9832 50.2777 23.2232C50.2336 23.2575 46.0299 26.3834 42.1592 23.2281C42.0172 23.1105 41.8359 23.0469 41.6546 23.0469C41.4635 23.0469 41.2773 23.1154 41.1303 23.2428C40.9785 23.3751 37.4459 26.5059 37.3577 32.6891C37.3577 32.8998 37.441 33.1105 37.588 33.2623C37.7399 33.4142 37.9457 33.5024 38.1563 33.5024H54.021C54.457 33.5024 54.8049 33.1595 54.8196 32.7234C54.8294 32.4784 54.9764 26.6284 51.3066 23.2673ZM38.9942 31.9003L39.004 31.768C39.2881 28.2404 40.7923 26.0111 41.6644 24.9969L41.7379 24.9136L41.831 24.9724C44.8883 27.0008 48.3571 26.2903 50.5864 24.9479L50.6746 24.894L50.7432 24.9724C52.6246 27.1037 53.0851 30.1414 53.1978 31.7631L53.2076 31.8954H38.9991L38.9942 31.9003Z" fill="white"/>
<path d="M46.0887 22.8019C47.9211 22.8019 49.6457 22.0866 50.9441 20.7882C52.2425 19.4899 52.9578 17.7652 52.9578 15.9328C52.9578 12.1455 49.876 9.06859 46.0936 9.06859C44.2612 9.06859 42.5365 9.78393 41.2382 11.0823C39.9398 12.3807 39.2245 14.1053 39.2245 15.9377C39.2245 19.7201 42.3063 22.8019 46.0887 22.8019ZM42.3651 12.2141C43.3597 11.2195 44.6825 10.6707 46.0887 10.6707C48.9892 10.6707 51.3508 13.0323 51.3557 15.9328C51.3557 17.3341 50.8069 18.6569 49.8123 19.6515C48.8177 20.6461 47.4948 21.1949 46.0936 21.1949C43.1882 21.1949 40.8266 18.8333 40.8266 15.9328C40.8266 14.5267 41.3753 13.2038 42.3699 12.2092L42.3651 12.2141Z" fill="white"/>
<path d="M35.8725 47.765C35.5884 47.5053 35.1523 47.4808 34.8436 47.7209C34.7995 47.7552 30.5958 50.8811 26.7251 47.7258C26.5831 47.6082 26.4018 47.5445 26.2205 47.5445C26.0294 47.5445 25.8432 47.6131 25.6962 47.7405C25.5444 47.8728 22.0118 51.0036 21.9236 57.1867C21.9236 57.3974 22.0069 57.6081 22.1539 57.76C22.3058 57.9119 22.5116 58.0001 22.7222 58.0001H38.5869C39.0229 58.0001 39.3708 57.6571 39.3855 57.221C39.3953 56.9761 39.5423 51.1261 35.8725 47.765ZM23.5601 56.3979L23.5699 56.2657C23.854 52.738 25.3582 50.5087 26.2303 49.4945L26.3038 49.4112L26.3969 49.47C29.4542 51.4984 32.923 50.788 35.1523 49.4455L35.2405 49.3916L35.3091 49.47C37.1905 51.6013 37.6511 54.639 37.7637 56.2607L37.7735 56.393H23.565L23.5601 56.3979Z" fill="white"/>
<path d="M30.6551 47.2995C32.4875 47.2995 34.2121 46.5842 35.5105 45.2858C36.8089 43.9874 37.5242 42.2628 37.5242 40.4304C37.5242 36.643 34.4424 33.5662 30.66 33.5662C28.8276 33.5662 27.1029 34.2815 25.8046 35.5799C24.5062 36.8782 23.7909 38.6029 23.7909 40.4353C23.7909 44.2177 26.8727 47.2995 30.6551 47.2995ZM26.9315 36.7116C27.9261 35.717 29.2489 35.1683 30.6551 35.1683C33.5556 35.1683 35.9172 37.5299 35.9221 40.4304C35.9221 41.8316 35.3733 43.1545 34.3787 44.1491C33.3841 45.1437 32.0612 45.6924 30.66 45.6924C27.7546 45.6924 25.393 43.3309 25.393 40.4304C25.393 39.0242 25.9418 37.7013 26.9364 36.7067L26.9315 36.7116Z" fill="white"/>
</svg>
