<svg width="57" height="61" viewBox="0 0 57 61" fill="none" xmlns="http://www.w3.org/2000/svg">
<path d="M24.494 48.4691C24.5646 48.4843 24.5999 48.4691 24.62 48.454C24.6755 48.4137 24.7208 48.328 24.736 48.2171C24.7511 48.1113 24.746 47.9903 24.741 47.8643C24.741 47.8038 24.741 47.7383 24.741 47.6778V47.4258C24.746 47.3099 24.7511 47.189 24.741 47.073C24.7259 46.8865 24.6352 46.8009 24.4588 46.8009C24.2168 46.8009 24.1816 46.947 24.1765 47.0579L24.1664 47.2898C24.1513 47.6123 24.1362 47.9147 24.1916 48.1919C24.2068 48.2625 24.3731 48.4288 24.494 48.4591V48.4691Z" fill="white"/>
<path d="M29.8264 46.8059C29.8264 46.8059 29.8063 46.8059 29.7962 46.8059C29.7055 46.8059 29.5139 46.816 29.5039 47.1738C29.5039 47.2797 29.5039 47.3906 29.5039 47.4964V47.7988C29.5039 47.9047 29.5039 48.0105 29.5039 48.1113C29.524 48.4439 29.6601 48.4691 29.8012 48.4742C29.9323 48.4742 30.0885 48.449 30.1036 48.1264C30.1188 47.8139 30.1188 47.4813 30.1036 47.1386C30.0885 46.8261 29.9272 46.8009 29.8315 46.8009L29.8264 46.8059Z" fill="white"/>
<path d="M50.2782 54.5374C49.8296 53.0657 48.872 52.35 47.3549 52.345C46.8862 52.345 46.4124 52.345 45.9387 52.345H45.5203V52.34C45.4901 52.219 45.4649 52.1081 45.4397 51.9972L44.6686 48.3179C43.4287 42.421 42.1939 36.5241 40.959 30.6271L40.9137 30.4154C40.6617 29.1857 40.5609 29.105 39.447 29.1252H39.1144C38.9279 29.1302 38.9128 29.1353 38.8724 28.9236C38.5851 27.4317 38.2928 25.9398 37.9954 24.448C37.7182 23.0468 37.441 21.6456 37.1739 20.2395C37.063 19.6598 36.7253 19.3927 36.1306 19.3978C35.7476 19.4078 35.3645 19.4028 34.9815 19.4028C34.7244 19.4028 34.4674 19.4028 34.2053 19.4028C33.4745 19.4078 33.1922 19.6951 33.1872 20.436C33.1872 20.9804 33.1872 21.5196 33.1872 22.069V22.5428H30.3798V22.0589C30.3798 21.4944 30.3798 20.9451 30.3798 20.3957C30.3698 19.685 30.0925 19.4078 29.3718 19.3978C29.0744 19.3978 28.7821 19.3978 28.4848 19.3978H28.3436V16.8475H32.3102V16.9281C32.3102 17.17 32.3102 17.4019 32.3102 17.6337C32.3203 18.294 32.5975 18.5611 33.2628 18.5661C35.3998 18.5661 37.5318 18.5661 39.6688 18.5661C40.3693 18.5661 40.6466 18.294 40.6466 17.6085C40.6466 15.663 40.6466 13.7226 40.6466 11.7821C40.6466 11.0513 40.3895 10.8044 39.6385 10.8044C38.6154 10.8044 37.5973 10.8044 36.5792 10.8044H35.0671C35.0671 10.8044 35.0671 10.754 35.0671 10.7288C35.0671 10.5171 35.0621 10.3205 35.0722 10.1239C35.1125 9.54433 34.8807 9.17136 34.3766 9.01008L27.2902 9L27.2298 9.03528C26.761 9.31753 26.7106 9.75098 26.7106 10.0534C26.7207 12.3819 26.7207 14.7054 26.7207 17.0339V19.4129H26.3477C24.7954 19.4129 24.6845 19.5187 24.6845 21.0509V22.568H21.852V22.0942C21.852 21.56 21.852 21.0257 21.852 20.4965C21.852 19.6699 21.6 19.4179 20.7935 19.4129C20.5718 19.4129 20.35 19.4129 20.1282 19.4129C19.725 19.4129 19.3218 19.4179 18.9237 19.4078C18.3289 19.3927 17.9812 19.675 17.8703 20.2596C17.6787 21.2727 17.4822 22.2857 17.2806 23.2988L16.1264 29.1453H15.9701C15.7131 29.1453 15.4661 29.1504 15.2192 29.1453C14.6547 29.1101 14.322 29.3973 14.2061 29.982C13.1174 35.5564 12.0237 41.1307 10.9351 46.7001L9.82121 52.3652H7.77996C7.0945 52.3652 6.47961 52.6071 5.9504 53.0808C5.07342 53.8671 4.77101 55.0767 5.17926 56.1704C5.61775 57.3347 6.65601 58 8.03197 58C13.4551 58 18.8783 58 24.3015 58C31.9675 58 39.6385 58 47.3045 58C47.5364 58 47.8842 57.9899 48.2218 57.9093C49.2702 57.6522 49.9657 56.9265 50.3538 55.6866L50.3639 54.6685L50.2782 54.5526V54.5374ZM32.3052 11.9535V12.2005C32.3102 12.9464 32.3052 13.6974 32.3052 14.4534V15.1893H28.3386V10.6683H33.4442V10.7792C32.9604 10.7842 32.6832 10.8648 32.5118 11.0412C32.29 11.263 32.2951 11.5705 32.3052 11.9535ZM33.923 16.9432V12.4172H39.0337V16.9432H33.923ZM17.583 34.0494C17.583 34.9717 17.8249 35.2136 18.7674 35.2136H24.3065C25.1784 35.2136 25.4204 34.9717 25.4204 34.0847V30.7481H29.6188V32.3509C29.6188 32.996 29.6188 33.6411 29.6188 34.2863C29.6188 34.5786 29.6994 34.8104 29.8557 34.9717C30.0119 35.128 30.2286 35.2086 30.5058 35.2086C32.532 35.2086 34.5531 35.2136 36.5792 35.2086C37.3654 35.2086 37.4612 34.6542 37.4612 34.2409C37.4612 33.369 37.4612 32.492 37.4612 31.5948V30.7179H37.7283C38.2727 30.7179 38.7867 30.7179 39.3008 30.733C39.326 30.7733 39.3613 30.8388 39.3664 30.8842C39.8502 33.127 40.324 35.3699 40.7927 37.6127C41.8058 42.4462 42.8188 47.2797 43.8319 52.1182C43.842 52.1686 43.8521 52.224 43.8621 52.2795H34.7093V51.967C34.7093 51.4025 34.7093 50.843 34.7143 50.2785C34.7244 49.0437 34.7345 47.7686 34.6639 46.5136C34.4522 42.8847 31.6348 40.0269 27.9606 39.7245C25.9244 39.5532 23.9688 40.2235 22.4568 41.6045C20.9599 42.9704 20.093 44.8806 20.0728 46.8513C20.0627 48.1415 20.0627 49.4318 20.0678 50.7372V52.2845H11.4996L11.7213 51.1253C11.9229 50.0921 12.1195 49.0639 12.3211 48.0357L13.1578 43.7667C13.9944 39.5078 14.8311 35.2489 15.6526 30.99C15.703 30.7179 15.7433 30.7027 15.9853 30.7179C16.4036 30.738 16.8169 30.733 17.2554 30.7279C17.3612 30.7279 17.4721 30.7279 17.583 30.7279V34.0595V34.0494ZM20.2694 23.1174C20.2694 23.9339 20.5214 24.1808 21.3429 24.1808C22.6281 24.1808 23.9134 24.1808 25.1986 24.1808C26.0453 24.1808 26.2772 23.9389 26.2772 23.077V21.0509H28.767V23.0569C28.767 23.9288 29.019 24.1808 29.8909 24.1808C31.1762 24.1808 32.4614 24.1808 33.7466 24.1808C34.543 24.1808 34.7849 23.9339 34.7899 23.1325C34.7899 22.5982 34.7899 22.064 34.7899 21.5096V21.0207C34.8252 21.0207 34.8555 21.0207 34.8907 21.0207C35.1579 21.0207 35.4149 21.0106 35.6115 21.0257C35.6417 21.0459 35.7022 21.1366 35.7123 21.182C36.0903 23.0468 36.4582 24.9167 36.8261 26.7866L37.2848 29.1252H37.0681C36.05 29.1252 35.8685 29.3117 35.8685 30.3499V33.5605H31.2014V31.3731C31.2014 30.9245 31.2014 30.4759 31.2014 30.0274C31.2014 29.7401 31.1258 29.5183 30.9695 29.3621C30.8133 29.2058 30.5915 29.1302 30.2992 29.1302C29.4021 29.1302 28.5049 29.1302 27.6027 29.1302C26.6552 29.1302 25.7076 29.1302 24.7551 29.1302C24.1049 29.1302 23.8277 29.4175 23.8226 30.0878C23.8226 30.9648 23.8226 31.8418 23.8226 32.7339V33.5857H19.1857C19.1807 33.505 19.1757 33.4244 19.1757 33.3387V30.2542C19.1757 29.3772 18.9287 29.1353 18.0568 29.1353H17.7795L17.9408 28.3036C18.092 27.5174 18.2382 26.7412 18.3944 25.9701C18.4902 25.4812 18.591 24.9923 18.6868 24.5034C18.8985 23.4551 19.1152 22.3664 19.3067 21.2928C19.3571 21.0207 19.3974 21.0056 19.6343 21.0257C19.8309 21.0459 20.0224 21.0408 20.229 21.0358C20.2442 21.0358 20.2593 21.0358 20.2694 21.0358V21.5096C20.2694 22.0589 20.2694 22.5932 20.2694 23.1274V23.1174ZM28.2277 41.3475C30.7982 41.6801 32.9402 43.9482 33.0662 46.5287C33.1317 47.8895 33.1166 49.2907 33.1015 50.6414C33.0965 51.1807 33.0864 51.7251 33.0864 52.2694H28.2327V41.3424L28.2277 41.3475ZM26.5393 41.3323V52.2845H21.6504V50.3945C21.6453 49.2453 21.6403 48.1012 21.6504 46.9521C21.6806 44.1145 23.7269 41.7658 26.5342 41.3273L26.5393 41.3323ZM48.7259 55.4346C48.6049 55.9638 48.1765 56.3267 47.612 56.3821C47.5112 56.3922 47.4104 56.3922 47.3096 56.3872H8.07229C7.97148 56.3872 7.87572 56.3872 7.77492 56.3821C7.0945 56.3166 6.59553 55.7823 6.60561 55.1322C6.61569 54.4618 7.16507 53.9377 7.85556 53.9326C8.38477 53.9326 8.91399 53.9326 9.44824 53.9326C9.98249 53.9326 10.5117 53.9326 11.046 53.9326H47.3499C47.8388 53.9326 48.2672 54.1141 48.5192 54.4316C48.7359 54.7088 48.8115 55.0616 48.7208 55.4396L48.7259 55.4346Z" fill="white"/>
</svg>
