<svg width="61" height="61" viewBox="0 0 61 61" fill="none" xmlns="http://www.w3.org/2000/svg">
<path d="M52.2524 39.1349L53.3924 38.9422C54.287 38.7869 55.1662 38.637 56.0403 38.4871C56.526 38.4015 56.7867 38.2837 56.8991 38.091C57.0167 37.8929 56.9963 37.5877 56.8429 37.0631C55.841 33.7278 55.8359 31.1634 56.8276 28.7489C57.1445 27.9673 57.0525 27.6782 56.3164 27.191L53.4895 25.3173C51.0614 23.7059 48.6332 22.0998 46.2051 20.483C46.0977 20.4134 46.0108 20.3545 45.9341 20.3117C45.5405 20.0654 45.5303 20.0333 45.7194 19.5889C45.7552 19.5086 45.791 19.4123 45.837 19.2945C46.1795 18.4165 46.0824 18.1006 45.3309 17.5974C44.191 16.8372 43.0459 16.0823 41.9008 15.3275C38.6855 13.2021 35.3627 11.0018 32.1116 8.8068C31.0943 8.11618 30.2508 7.77355 29.208 8.16437C29.0649 8.2179 28.9115 8.23396 28.7633 8.25538C28.6968 8.26608 28.6252 8.27144 28.5588 8.28214L23.8559 9.09054C19.3881 9.8561 14.9203 10.6217 10.4525 11.3979C8.93934 11.6603 7.97319 12.8166 7.9323 14.4227C7.8914 15.9003 7.90674 17.3779 7.92718 18.4968C7.94252 19.514 8.3617 20.2796 9.16938 20.7721C9.64478 21.0612 10.1253 21.3877 10.6416 21.7625C10.7643 21.8535 10.8716 22.0623 10.8716 22.2176C10.8665 22.9778 10.8512 23.7326 10.8359 24.4928C10.8103 25.7991 10.7898 27.1482 10.8001 28.4759C10.8103 29.3057 11.2192 30.0177 11.9809 30.5317C12.3541 30.7833 12.7324 31.0349 13.1106 31.2812C13.3509 31.4418 13.5963 31.6024 13.8365 31.763C14.3528 32.1056 14.864 32.4483 15.3957 32.8016L15.8711 33.1228L15.5899 33.337C15.4672 33.428 15.365 33.5083 15.2576 33.5886L12.9828 35.2696C10.9023 36.8061 8.81665 38.3426 6.74122 39.8791C6.5572 40.0183 6.38339 40.1896 6.21981 40.3555C6.14824 40.4251 6.07668 40.5001 6 40.5697V41.2603C6.09201 41.6136 6.18914 41.967 6.28115 42.3203C6.49074 43.1073 6.71055 43.9264 6.88947 44.7348C7.23197 46.2873 6.92525 47.7703 6.55208 49.2853C6.43962 49.735 6.30671 50.1847 6.1738 50.6184C6.11246 50.8111 6.05623 51.0092 6 51.2073V51.6998C6.19936 52.0424 6.47541 52.2352 6.88947 52.3101C8.78598 52.6527 10.7132 53.0168 12.579 53.3701C13.3509 53.5147 14.1177 53.6646 14.8896 53.8091C20.482 54.8638 26.0744 55.9131 31.6668 56.9624C32.27 57.0748 32.8272 56.9356 33.364 56.5394C34.6113 55.6186 35.8535 54.6925 37.0957 53.7716C41.5277 50.4845 46.113 47.085 50.6422 43.7711C51.7617 42.952 52.2729 41.9188 52.2524 40.5268C52.2524 40.2324 52.2524 39.938 52.2524 39.6382C52.2524 39.499 52.2524 39.3544 52.2524 39.2099V39.151V39.1349ZM45.1009 21.7625L45.1111 21.6501L47.7284 23.3846L53.9087 27.4801L53.8422 27.6889H53.8013L51.3118 28.1226C49.6505 28.4063 47.9942 28.6954 46.3329 28.9738C45.0907 29.1879 43.8536 29.3967 42.6114 29.6055C39.2836 30.173 35.8432 30.7565 32.4643 31.3508C32.27 31.3829 32.0707 31.4097 31.8662 31.4097C31.4624 31.4097 31.0534 31.308 30.6547 30.9707C30.3786 30.7405 30.0821 30.5531 29.7345 30.3336C29.5709 30.2319 29.3971 30.1195 29.2131 30.0017L29.0751 29.9107L29.2387 29.8839C29.4585 29.8464 29.6579 29.809 29.8521 29.7715C30.215 29.7072 30.5371 29.6483 30.8643 29.5895C33.0624 29.2147 35.2656 28.8453 37.4637 28.4759C40.0197 28.0423 42.5756 27.614 45.1367 27.1803C45.5712 27.1054 45.8421 26.9555 45.9597 26.7253C46.0773 26.4897 46.0415 26.1578 45.8472 25.7188C45.2389 24.359 45.0038 23.0955 45.1009 21.7464V21.7625ZM43.7922 19.6532C43.8434 19.6532 43.9047 19.6532 43.9814 19.6425H44.0836L44.0478 19.7335C43.3526 21.5858 43.3833 23.4649 44.1552 25.6599L44.1808 25.7349L43.1686 25.9115C42.5449 26.0186 41.9315 26.1257 41.3232 26.2274L37.1059 26.9394C33.0675 27.6193 28.8962 28.3207 24.7913 29.022C24.7249 29.0327 24.6686 29.038 24.6175 29.038C24.5051 29.038 24.4182 29.0113 24.3568 28.9577C24.2392 28.856 24.2341 28.6686 24.2341 28.492C24.2341 27.8602 24.2341 27.2339 24.2341 26.6021C24.2341 25.6653 24.2341 24.7284 24.2392 23.7862C24.2392 23.1223 24.4284 22.8975 25.0674 22.7904C29.3154 22.0784 33.5633 21.361 37.8113 20.6436C38.7724 20.483 39.7283 20.317 40.6893 20.1564C41.6504 19.9958 42.6063 19.8298 43.5673 19.6692C43.6338 19.6585 43.7002 19.6532 43.7922 19.6532ZM13.5298 12.4687C14.1893 12.3509 14.818 12.2438 15.4468 12.1314C17.8392 11.7245 20.2264 11.3123 22.6188 10.9054L28.0323 9.97923C28.2367 9.94176 28.4412 9.90964 28.6508 9.87216C29.1109 9.79186 29.5812 9.7062 30.0515 9.64196C30.2508 9.61519 30.4911 9.66337 30.6496 9.77044C34.4477 12.2759 38.3072 14.8403 42.0389 17.3137L42.7801 17.8062C42.8159 17.8276 42.8465 17.8597 42.8977 17.9026C42.9283 17.9293 42.9641 17.9614 43.0101 17.9989L43.1226 18.0899L42.0695 18.2773C41.4101 18.3951 40.7711 18.5075 40.1321 18.6199C37.8624 19.0054 35.5928 19.3962 33.3231 19.7817L29.4125 20.4455C29.0393 20.5098 28.6713 20.574 28.2981 20.6382C27.3575 20.7989 26.3862 20.9702 25.4252 21.1201C25.3792 21.1254 25.3281 21.1308 25.277 21.1308C25.0929 21.1308 24.9038 21.0826 24.7709 20.9969C21.2028 18.6467 17.5784 16.2429 14.0717 13.9195L12.5943 12.9398C12.5688 12.9237 12.5432 12.9023 12.4972 12.8702L12.2621 12.6935L13.5145 12.474L13.5298 12.4687ZM10.0333 19.4605C9.62945 19.1928 9.45053 18.8608 9.45053 18.379C9.45053 17.9186 9.45053 17.4636 9.45053 17.0032C9.45053 16.1894 9.44031 15.3435 9.47609 14.5137C9.48631 14.2139 9.60389 13.9141 9.72146 13.5983C9.77769 13.443 9.83903 13.2878 9.89526 13.1218L9.92082 13.0415L9.99239 13.0897L23.3651 21.9552L23.3191 22.0141C22.675 22.8279 22.6852 23.7647 22.6955 24.7552V24.8033C22.7006 25.4511 22.7006 26.0882 22.6955 26.7681C22.6955 27.0679 22.6955 27.3731 22.6955 27.6836V27.796L22.6034 27.7425C22.5421 27.705 22.4808 27.6782 22.4296 27.6515C22.3274 27.5979 22.2405 27.5497 22.1587 27.4962L18.9331 25.3601C16.0142 23.4275 12.9982 21.4252 10.0282 19.4658L10.0333 19.4605ZM13.0289 29.3378C12.4972 28.9899 12.2621 28.5455 12.2672 27.9084C12.2672 26.7628 12.2672 25.6224 12.2672 24.4339V22.8172L13.2538 23.4864C13.8621 23.8986 14.4346 24.2894 15.0123 24.6749C15.7791 25.1888 16.5407 25.6974 17.3075 26.2113C19.1171 27.4159 20.9932 28.6686 22.813 29.9321C23.8047 30.6227 24.6533 30.7994 25.5683 30.4942C26.3709 30.2319 27.0917 30.3818 27.838 30.976C28.2061 31.2705 28.5997 31.5221 29.0189 31.7898C29.208 31.9076 29.3971 32.0307 29.5914 32.1592L29.663 32.2074L29.6016 32.2663C28.8502 32.9943 28.7888 33.9045 28.7939 35.018C28.7939 36.0834 28.7939 37.1648 28.7837 38.2087V39.0385C28.7837 39.151 28.7735 39.258 28.7684 39.3865C28.7684 39.4508 28.7633 39.5257 28.7582 39.606V39.7131L28.661 39.6596C28.5997 39.6221 28.5383 39.59 28.4872 39.5578C28.3799 39.499 28.2879 39.4454 28.1959 39.3812L24.4233 36.8811C20.6865 34.4023 16.827 31.8433 13.0237 29.3325L13.0289 29.3378ZM17.2871 34.0329L17.3228 34.0544L19.1682 35.2964C20.4207 36.1369 21.668 36.9774 22.9153 37.8126C23.7434 38.3693 24.5766 38.9261 25.4048 39.4829C26.8156 40.4251 28.2265 41.3727 29.6323 42.3203C30.1384 42.6576 30.6138 42.77 31.1403 42.6683C31.8815 42.5237 32.6381 42.406 33.3691 42.2935C33.6451 42.2507 33.9212 42.2079 34.1972 42.165C34.3812 42.1383 34.5448 42.1329 34.7442 42.2025L34.8618 42.2454L34.7595 42.3203C34.5142 42.5023 34.2637 42.6843 34.0132 42.8664C33.4304 43.2893 32.8272 43.7229 32.2649 44.1887C31.9122 44.4832 31.5646 44.617 31.1403 44.617C30.9921 44.617 30.8285 44.6009 30.6547 44.5688C26.1767 43.6962 21.622 42.8342 17.2155 41.9991L13.8825 41.3674C12.7733 41.1586 11.6691 40.9498 10.5138 40.7303L8.68375 40.3877L17.2871 34.0383V34.0329ZM32.6534 54.6978C32.6534 55.0083 32.6023 55.1903 32.4847 55.2867C32.4132 55.351 32.3109 55.3831 32.1729 55.3831C32.086 55.3831 31.9838 55.3724 31.8611 55.3509L30.8898 55.1689C23.314 53.7502 15.7382 52.3369 8.16233 50.9182C8.09588 50.9075 8.03453 50.8861 7.94252 50.8593C7.89651 50.8432 7.84028 50.8272 7.77383 50.8057L7.70737 50.7843L7.72782 50.7147C8.75531 47.6578 8.7911 44.8044 7.83517 41.9937L7.79939 41.8867L8.98535 42.1008C9.71124 42.2346 10.4013 42.3578 11.0914 42.4863C17.1746 43.6159 23.2629 44.7508 29.346 45.8858C29.8777 45.9875 30.4195 46.0946 30.9409 46.1963L31.4521 46.298C32.2803 46.464 32.6381 46.8816 32.6483 47.69C32.6739 49.735 32.679 51.8925 32.6483 54.6925L32.6534 54.6978ZM50.6729 41.1532C50.5962 41.5547 50.3355 41.9884 50.039 42.2079C45.7757 45.3826 41.4254 48.584 37.2235 51.6837L34.6777 53.5575C34.6215 53.6003 34.5602 53.6378 34.4681 53.6967C34.4221 53.7288 34.3659 53.7609 34.2995 53.8091L34.2023 53.8734V51.9942C34.2023 50.7201 34.2023 49.4888 34.2023 48.2521C34.2023 47.0743 33.9212 46.1856 33.3077 45.4575L33.2617 45.404L33.318 45.3611C33.3742 45.3183 33.4253 45.2755 33.4816 45.2327C33.5889 45.147 33.6911 45.0613 33.7985 44.9864L34.7544 44.2797C35.8688 43.4553 37.0241 42.5987 38.1692 41.7742C38.4708 41.5547 38.8133 41.4048 39.1353 41.3513C42.2178 40.8159 45.3565 40.2913 48.3878 39.7827L50.4991 39.4294C50.5297 39.424 50.5553 39.4294 50.586 39.4294C50.6013 39.4294 50.6166 39.4294 50.6371 39.4294H50.6984V39.4936C50.6984 39.6542 50.7035 39.8202 50.7138 39.9861C50.7291 40.3716 50.7444 40.7731 50.6729 41.1479V41.1532ZM51.5112 37.6466C49.3131 38.016 47.1201 38.3854 44.922 38.7548C43.2811 39.0332 41.6401 39.3062 39.9941 39.5846L36.4516 40.1842C34.6624 40.484 32.8783 40.7892 31.0892 41.089C31.0074 41.105 30.9358 41.1104 30.8694 41.1104C30.716 41.1104 30.6036 41.0729 30.5167 40.998C30.3991 40.8909 30.3428 40.7196 30.3377 40.4519C30.3275 38.5192 30.3173 36.4421 30.348 34.3381C30.3582 33.6475 30.7211 33.2513 31.4675 33.1282C34.5193 32.6142 37.5711 32.0949 40.6178 31.581C43.6644 31.067 46.7214 30.5477 49.7681 30.0338C50.9029 29.8411 52.0377 29.6537 53.2135 29.461L55.1202 29.1451L55.0844 29.2522C54.1336 31.9183 54.6192 34.5148 55.1969 36.9399L55.2122 37.0095L54.0416 37.213C53.193 37.3629 52.3444 37.5074 51.501 37.652L51.5112 37.6466Z" fill="white"/>
</svg>
