<svg width="61" height="61" viewBox="0 0 61 61" fill="none" xmlns="http://www.w3.org/2000/svg">
<path d="M42.3472 17.9216V10.7038C42.3472 9.74862 41.4231 9 40.2407 9C40.1168 9 39.9929 9.01032 39.8742 9.02581C39.7606 9.01032 39.647 9 39.5334 9H23.678C23.6315 9 23.585 9 23.5437 9C23.4973 9 23.4456 9 23.394 9C22.2117 9 21.2875 9.74862 21.2875 10.7038V17.9216H9.52114C7.57987 17.9216 6 19.5014 6 21.4427V37.2982C6 39.1672 7.46112 40.6954 9.3043 40.8038V53.4789C9.3043 55.4201 10.7189 57 12.4589 57H51.1759C52.9158 57 54.3305 55.4201 54.3305 53.4789V40.8038C56.1685 40.6902 57.6347 39.162 57.6347 37.2982V21.4427C57.6347 19.5014 56.0549 17.9216 54.1188 17.9216H42.3472ZM23.0378 10.8328C23.1152 10.7915 23.2856 10.7451 23.4715 10.7606C23.5231 10.7606 23.5747 10.7606 23.6212 10.7606C23.6367 10.7606 23.6573 10.7606 23.6728 10.7606H39.5282C39.5696 10.7606 39.6212 10.7657 39.6676 10.7761C39.7916 10.8019 39.9206 10.807 40.0394 10.7761C40.2666 10.7296 40.4937 10.7812 40.5918 10.8328V19.4963C40.5247 19.5324 40.4008 19.5737 40.2356 19.5737C40.0704 19.5737 39.9464 19.5324 39.8793 19.4963V12.8516C39.8793 12.3662 39.4869 11.9739 39.0016 11.9739H24.6176C24.1323 11.9739 23.7399 12.3662 23.7399 12.8516V19.4963C23.6728 19.5324 23.5489 19.5737 23.3837 19.5737C23.2185 19.5737 23.0946 19.5324 23.0274 19.4963V10.8328H23.0378ZM38.1291 13.7293V17.9216H25.5005V13.7293H38.1291ZM52.5699 53.4789C52.5699 54.4547 51.94 55.2446 51.1707 55.2446H12.4537C11.6793 55.2446 11.0545 54.4495 11.0545 53.4789V40.8141H24.8241V42.4146C24.8241 44.3559 26.404 45.9358 28.3453 45.9358H34.6234C36.5647 45.9358 38.1446 44.3559 38.1446 42.4146V40.8141H52.5751V53.4789H52.5699ZM26.5744 42.4146V37.4582C26.5744 36.4824 27.3695 35.6925 28.3401 35.6925H34.6183C35.5941 35.6925 36.384 36.4876 36.384 37.4582V42.4146C36.384 43.3904 35.5889 44.1804 34.6183 44.1804H28.3401C27.3643 44.1804 26.5744 43.3904 26.5744 42.4146ZM55.869 37.2982C55.869 38.2688 55.0791 39.0639 54.1033 39.0639H38.1343V37.4634C38.1343 35.5221 36.5544 33.9422 34.6131 33.9422H28.335C26.3937 33.9422 24.8138 35.5221 24.8138 37.4634V39.0639H9.50565C8.52985 39.0639 7.73992 38.2688 7.73992 37.2982V21.4427C7.73992 20.4669 8.52985 19.677 9.50565 19.677H21.2772C21.3082 20.6063 22.2169 21.3291 23.3785 21.3291C24.5402 21.3291 25.4489 20.6063 25.4798 19.677H38.1239C38.1549 20.6063 39.0636 21.3291 40.2253 21.3291C41.3869 21.3291 42.2956 20.6063 42.3266 19.677H54.0981C55.0739 19.677 55.8638 20.4669 55.8638 21.4427V37.2982H55.869Z" fill="white"/>
<path d="M31.4839 43.0136C33.1826 43.0136 34.5662 41.6299 34.5662 39.9313C34.5662 38.2327 33.1826 36.849 31.4839 36.849C29.7853 36.849 28.4017 38.2327 28.4017 39.9313C28.4017 41.6299 29.7853 43.0136 31.4839 43.0136ZM31.4839 37.7267C32.6972 37.7267 33.6885 38.7128 33.6885 39.9313C33.6885 41.1497 32.6972 42.1359 31.4839 42.1359C30.2706 42.1359 29.2794 41.1446 29.2794 39.9313C29.2794 38.718 30.2706 37.7267 31.4839 37.7267Z" fill="white"/>
</svg>
