<svg width="61" height="61" viewBox="0 0 61 61" fill="none" xmlns="http://www.w3.org/2000/svg">
<path d="M20.5792 13.5422H15.0231V18.3062H20.5792V13.5422ZM19.7151 17.442H15.8873V14.4064H19.7151V17.442Z" fill="white"/>
<path d="M28.5505 13.5422H22.9944V18.3062H28.5505V13.5422ZM27.6864 17.442H23.8586V14.4064H27.6864V17.442Z" fill="white"/>
<path d="M28.5505 19.7409H22.9944V24.5049H28.5505V19.7409ZM27.6864 23.6407H23.8586V20.6051H27.6864V23.6407Z" fill="white"/>
<path d="M28.5505 30.6981H22.9944V35.4621H28.5505V30.6981ZM27.6864 34.5979H23.8586V31.5623H27.6864V34.5979Z" fill="white"/>
<path d="M28.5505 41.5777H22.9944V46.3417H28.5505V41.5777ZM27.6864 45.4776H23.8586V42.4419H27.6864V45.4776Z" fill="white"/>
<path d="M20.5792 41.5777H15.0231V46.3417H20.5792V41.5777ZM19.7151 45.4776H15.8873V42.4419H19.7151V45.4776Z" fill="white"/>
<path d="M42.7272 33.3626H37.171V38.1266H42.7272V33.3626ZM41.863 37.2624H38.0352V34.2267H41.863V37.2624Z" fill="white"/>
<path d="M49.6952 41.0625H44.1391V45.8265H49.6952V41.0625ZM48.8311 44.9623H45.0033V41.9267H48.8311V44.9623Z" fill="white"/>
<path d="M52.8141 53.2717V29.7619H34.7608V7H8.81362V53.2717H2V55H59.2565V53.2717H52.8141ZM33.0324 52.5294H10.5475V8.73387H33.0324V52.5294ZM51.0857 52.5294H35.0322V31.4958H51.0857V52.5294Z" fill="white"/>
</svg>
