<svg width="62" height="37" viewBox="0 0 62 37" fill="none" xmlns="http://www.w3.org/2000/svg">
<path d="M31.0875 30.2053C37.6036 30.2053 42.9055 24.9034 42.9055 18.3873C42.9055 11.8712 37.6036 6.56923 31.0875 6.56923C24.5714 6.56923 19.2695 11.8712 19.2695 18.3873C19.2695 24.9034 24.5714 30.2053 31.0875 30.2053ZM31.0875 7.90102C36.8684 7.90102 41.5737 12.6064 41.5737 18.3873C41.5737 24.1681 36.8684 28.8735 31.0875 28.8735C25.3066 28.8735 20.6013 24.1681 20.6013 18.3873C20.6013 12.6064 25.3066 7.90102 31.0875 7.90102Z" fill="white"/>
<path d="M27.6381 25.7604C27.7348 25.8108 27.844 25.8402 27.949 25.8402C28.0793 25.8402 28.2095 25.8024 28.3187 25.7268L38.3891 18.9418C38.5739 18.82 38.6832 18.6099 38.6832 18.3915C38.6832 18.173 38.5739 17.9629 38.3891 17.8411L28.3187 11.0561C28.1171 10.9175 27.8524 10.9049 27.6339 11.0183C27.4155 11.136 27.281 11.3586 27.281 11.6065V25.1722C27.281 25.4201 27.4155 25.6428 27.6339 25.7604H27.6381ZM28.617 12.8501L36.8304 18.3873L28.617 23.9203V12.8501Z" fill="white"/>
<path fill-rule="evenodd" clip-rule="evenodd" d="M56.5 1.5H5.5C3.567 1.5 2 3.06701 2 5V31.6C2 33.533 3.567 35.1 5.5 35.1H56.5C58.433 35.1 60 33.533 60 31.6V5C60 3.067 58.433 1.5 56.5 1.5ZM5.5 0C2.73858 0 0.5 2.23858 0.5 5V31.6C0.5 34.3614 2.73858 36.6 5.5 36.6H56.5C59.2614 36.6 61.5 34.3614 61.5 31.6V5C61.5 2.23858 59.2614 0 56.5 0H5.5Z" fill="white"/>
</svg>
