<svg width="61" height="62" viewBox="0 0 61 62" fill="none" xmlns="http://www.w3.org/2000/svg">
<path d="M30.5875 42.133C37.1036 42.133 42.4055 36.8311 42.4055 30.315C42.4055 23.7989 37.1036 18.497 30.5875 18.497C24.0714 18.497 18.7695 23.7989 18.7695 30.315C18.7695 36.8311 24.0714 42.133 30.5875 42.133ZM30.5875 19.8288C36.3684 19.8288 41.0737 24.5341 41.0737 30.315C41.0737 36.0959 36.3684 40.8012 30.5875 40.8012C24.8066 40.8012 20.1013 36.0959 20.1013 30.315C20.1013 24.5341 24.8066 19.8288 30.5875 19.8288Z" fill="white"/>
<path d="M27.1381 37.6881C27.2348 37.7385 27.344 37.768 27.449 37.768C27.5793 37.768 27.7095 37.7301 27.8187 37.6545L37.8891 30.8696C38.0739 30.7477 38.1832 30.5377 38.1832 30.3192C38.1832 30.1007 38.0739 29.8907 37.8891 29.7688L27.8187 22.9839C27.6171 22.8452 27.3524 22.8326 27.1339 22.9461C26.9155 23.0637 26.781 23.2864 26.781 23.5342V37.1C26.781 37.3478 26.9155 37.5705 27.1339 37.6881H27.1381ZM28.117 24.7778L36.3304 30.315L28.117 35.848V24.7778Z" fill="white"/>
<path fill-rule="evenodd" clip-rule="evenodd" d="M56 13.4277H5C3.067 13.4277 1.5 14.9947 1.5 16.9277V43.5277C1.5 45.4607 3.067 47.0277 5 47.0277H56C57.933 47.0277 59.5 45.4607 59.5 43.5277V16.9277C59.5 14.9947 57.933 13.4277 56 13.4277ZM5 11.9277C2.23858 11.9277 0 14.1663 0 16.9277V43.5277C0 46.2892 2.23858 48.5277 5 48.5277H56C58.7614 48.5277 61 46.2892 61 43.5277V16.9277C61 14.1663 58.7614 11.9277 56 11.9277H5Z" fill="white"/>
</svg>
